<mxfile host="app.diagrams.net" modified="2024-01-25T12:56:53.760Z" agent="Mozilla/5.0 (Windows NT 10.0; Win64; x64) AppleWebKit/537.36 (KHTML, like Gecko) Chrome/122.0.0.0 Safari/537.36" etag="fRBC1RYPOiZUxMb-keuw" version="23.0.1" type="github">
  <diagram id="R2lEEEUBdFMjLlhIrx00" name="Page-1">
    <mxGraphModel dx="3907" dy="2348" grid="1" gridSize="10" guides="1" tooltips="1" connect="1" arrows="1" fold="1" page="1" pageScale="1" pageWidth="850" pageHeight="1100" math="0" shadow="0" extFonts="Permanent Marker^https://fonts.googleapis.com/css?family=Permanent+Marker">
      <root>
        <mxCell id="0" />
        <mxCell id="1" parent="0" />
        <mxCell id="C-vyLk0tnHw3VtMMgP7b-1" value="" style="edgeStyle=entityRelationEdgeStyle;endArrow=ERzeroToMany;startArrow=ERone;endFill=1;startFill=0;" parent="1" source="C-vyLk0tnHw3VtMMgP7b-24" target="C-vyLk0tnHw3VtMMgP7b-6" edge="1">
          <mxGeometry width="100" height="100" relative="1" as="geometry">
            <mxPoint x="340" y="720" as="sourcePoint" />
            <mxPoint x="440" y="620" as="targetPoint" />
          </mxGeometry>
        </mxCell>
        <mxCell id="C-vyLk0tnHw3VtMMgP7b-12" value="" style="edgeStyle=entityRelationEdgeStyle;endArrow=ERzeroToMany;startArrow=ERone;endFill=1;startFill=0;" parent="1" source="C-vyLk0tnHw3VtMMgP7b-3" target="C-vyLk0tnHw3VtMMgP7b-17" edge="1">
          <mxGeometry width="100" height="100" relative="1" as="geometry">
            <mxPoint x="400" y="180" as="sourcePoint" />
            <mxPoint x="460" y="205" as="targetPoint" />
          </mxGeometry>
        </mxCell>
        <mxCell id="C-vyLk0tnHw3VtMMgP7b-2" value="Orders" style="shape=table;startSize=30;container=1;collapsible=1;childLayout=tableLayout;fixedRows=1;rowLines=0;fontStyle=1;align=center;resizeLast=1;" parent="1" vertex="1">
          <mxGeometry x="450" y="120" width="250" height="130" as="geometry" />
        </mxCell>
        <mxCell id="C-vyLk0tnHw3VtMMgP7b-3" value="" style="shape=partialRectangle;collapsible=0;dropTarget=0;pointerEvents=0;fillColor=none;points=[[0,0.5],[1,0.5]];portConstraint=eastwest;top=0;left=0;right=0;bottom=1;" parent="C-vyLk0tnHw3VtMMgP7b-2" vertex="1">
          <mxGeometry y="30" width="250" height="30" as="geometry" />
        </mxCell>
        <mxCell id="C-vyLk0tnHw3VtMMgP7b-4" value="PK" style="shape=partialRectangle;overflow=hidden;connectable=0;fillColor=none;top=0;left=0;bottom=0;right=0;fontStyle=1;" parent="C-vyLk0tnHw3VtMMgP7b-3" vertex="1">
          <mxGeometry width="30" height="30" as="geometry" />
        </mxCell>
        <mxCell id="C-vyLk0tnHw3VtMMgP7b-5" value="order_id int NOT NULL " style="shape=partialRectangle;overflow=hidden;connectable=0;fillColor=none;top=0;left=0;bottom=0;right=0;align=left;spacingLeft=6;fontStyle=5;" parent="C-vyLk0tnHw3VtMMgP7b-3" vertex="1">
          <mxGeometry x="30" width="220" height="30" as="geometry" />
        </mxCell>
        <mxCell id="C-vyLk0tnHw3VtMMgP7b-6" value="" style="shape=partialRectangle;collapsible=0;dropTarget=0;pointerEvents=0;fillColor=none;points=[[0,0.5],[1,0.5]];portConstraint=eastwest;top=0;left=0;right=0;bottom=0;" parent="C-vyLk0tnHw3VtMMgP7b-2" vertex="1">
          <mxGeometry y="60" width="250" height="30" as="geometry" />
        </mxCell>
        <mxCell id="C-vyLk0tnHw3VtMMgP7b-7" value="FK1" style="shape=partialRectangle;overflow=hidden;connectable=0;fillColor=none;top=0;left=0;bottom=0;right=0;" parent="C-vyLk0tnHw3VtMMgP7b-6" vertex="1">
          <mxGeometry width="30" height="30" as="geometry" />
        </mxCell>
        <mxCell id="C-vyLk0tnHw3VtMMgP7b-8" value="customer_id int NOT NULL" style="shape=partialRectangle;overflow=hidden;connectable=0;fillColor=none;top=0;left=0;bottom=0;right=0;align=left;spacingLeft=6;" parent="C-vyLk0tnHw3VtMMgP7b-6" vertex="1">
          <mxGeometry x="30" width="220" height="30" as="geometry" />
        </mxCell>
        <mxCell id="C-vyLk0tnHw3VtMMgP7b-9" value="" style="shape=partialRectangle;collapsible=0;dropTarget=0;pointerEvents=0;fillColor=none;points=[[0,0.5],[1,0.5]];portConstraint=eastwest;top=0;left=0;right=0;bottom=0;" parent="C-vyLk0tnHw3VtMMgP7b-2" vertex="1">
          <mxGeometry y="90" width="250" height="30" as="geometry" />
        </mxCell>
        <mxCell id="C-vyLk0tnHw3VtMMgP7b-10" value="" style="shape=partialRectangle;overflow=hidden;connectable=0;fillColor=none;top=0;left=0;bottom=0;right=0;" parent="C-vyLk0tnHw3VtMMgP7b-9" vertex="1">
          <mxGeometry width="30" height="30" as="geometry" />
        </mxCell>
        <mxCell id="C-vyLk0tnHw3VtMMgP7b-11" value="order_date date NOT NULL" style="shape=partialRectangle;overflow=hidden;connectable=0;fillColor=none;top=0;left=0;bottom=0;right=0;align=left;spacingLeft=6;" parent="C-vyLk0tnHw3VtMMgP7b-9" vertex="1">
          <mxGeometry x="30" width="220" height="30" as="geometry" />
        </mxCell>
        <mxCell id="C-vyLk0tnHw3VtMMgP7b-13" value="Shipments" style="shape=table;startSize=30;container=1;collapsible=1;childLayout=tableLayout;fixedRows=1;rowLines=0;fontStyle=1;align=center;resizeLast=1;" parent="1" vertex="1">
          <mxGeometry x="450" y="280" width="250" height="130" as="geometry" />
        </mxCell>
        <mxCell id="C-vyLk0tnHw3VtMMgP7b-14" value="" style="shape=partialRectangle;collapsible=0;dropTarget=0;pointerEvents=0;fillColor=none;points=[[0,0.5],[1,0.5]];portConstraint=eastwest;top=0;left=0;right=0;bottom=1;" parent="C-vyLk0tnHw3VtMMgP7b-13" vertex="1">
          <mxGeometry y="30" width="250" height="30" as="geometry" />
        </mxCell>
        <mxCell id="C-vyLk0tnHw3VtMMgP7b-15" value="PK" style="shape=partialRectangle;overflow=hidden;connectable=0;fillColor=none;top=0;left=0;bottom=0;right=0;fontStyle=1;" parent="C-vyLk0tnHw3VtMMgP7b-14" vertex="1">
          <mxGeometry width="30" height="30" as="geometry" />
        </mxCell>
        <mxCell id="C-vyLk0tnHw3VtMMgP7b-16" value="shipment_id int NOT NULL " style="shape=partialRectangle;overflow=hidden;connectable=0;fillColor=none;top=0;left=0;bottom=0;right=0;align=left;spacingLeft=6;fontStyle=5;" parent="C-vyLk0tnHw3VtMMgP7b-14" vertex="1">
          <mxGeometry x="30" width="220" height="30" as="geometry" />
        </mxCell>
        <mxCell id="C-vyLk0tnHw3VtMMgP7b-17" value="" style="shape=partialRectangle;collapsible=0;dropTarget=0;pointerEvents=0;fillColor=none;points=[[0,0.5],[1,0.5]];portConstraint=eastwest;top=0;left=0;right=0;bottom=0;" parent="C-vyLk0tnHw3VtMMgP7b-13" vertex="1">
          <mxGeometry y="60" width="250" height="30" as="geometry" />
        </mxCell>
        <mxCell id="C-vyLk0tnHw3VtMMgP7b-18" value="FK1" style="shape=partialRectangle;overflow=hidden;connectable=0;fillColor=none;top=0;left=0;bottom=0;right=0;" parent="C-vyLk0tnHw3VtMMgP7b-17" vertex="1">
          <mxGeometry width="30" height="30" as="geometry" />
        </mxCell>
        <mxCell id="C-vyLk0tnHw3VtMMgP7b-19" value="order_id int NOT NULL" style="shape=partialRectangle;overflow=hidden;connectable=0;fillColor=none;top=0;left=0;bottom=0;right=0;align=left;spacingLeft=6;" parent="C-vyLk0tnHw3VtMMgP7b-17" vertex="1">
          <mxGeometry x="30" width="220" height="30" as="geometry" />
        </mxCell>
        <mxCell id="C-vyLk0tnHw3VtMMgP7b-20" value="" style="shape=partialRectangle;collapsible=0;dropTarget=0;pointerEvents=0;fillColor=none;points=[[0,0.5],[1,0.5]];portConstraint=eastwest;top=0;left=0;right=0;bottom=0;" parent="C-vyLk0tnHw3VtMMgP7b-13" vertex="1">
          <mxGeometry y="90" width="250" height="30" as="geometry" />
        </mxCell>
        <mxCell id="C-vyLk0tnHw3VtMMgP7b-21" value="" style="shape=partialRectangle;overflow=hidden;connectable=0;fillColor=none;top=0;left=0;bottom=0;right=0;" parent="C-vyLk0tnHw3VtMMgP7b-20" vertex="1">
          <mxGeometry width="30" height="30" as="geometry" />
        </mxCell>
        <mxCell id="C-vyLk0tnHw3VtMMgP7b-22" value="shipment_date date NOT NULL" style="shape=partialRectangle;overflow=hidden;connectable=0;fillColor=none;top=0;left=0;bottom=0;right=0;align=left;spacingLeft=6;" parent="C-vyLk0tnHw3VtMMgP7b-20" vertex="1">
          <mxGeometry x="30" width="220" height="30" as="geometry" />
        </mxCell>
        <mxCell id="C-vyLk0tnHw3VtMMgP7b-23" value="Customers" style="shape=table;startSize=30;container=1;collapsible=1;childLayout=tableLayout;fixedRows=1;rowLines=0;fontStyle=1;align=center;resizeLast=1;" parent="1" vertex="1">
          <mxGeometry x="120" y="120" width="250" height="100" as="geometry" />
        </mxCell>
        <mxCell id="C-vyLk0tnHw3VtMMgP7b-24" value="" style="shape=partialRectangle;collapsible=0;dropTarget=0;pointerEvents=0;fillColor=none;points=[[0,0.5],[1,0.5]];portConstraint=eastwest;top=0;left=0;right=0;bottom=1;" parent="C-vyLk0tnHw3VtMMgP7b-23" vertex="1">
          <mxGeometry y="30" width="250" height="30" as="geometry" />
        </mxCell>
        <mxCell id="C-vyLk0tnHw3VtMMgP7b-25" value="PK" style="shape=partialRectangle;overflow=hidden;connectable=0;fillColor=none;top=0;left=0;bottom=0;right=0;fontStyle=1;" parent="C-vyLk0tnHw3VtMMgP7b-24" vertex="1">
          <mxGeometry width="30" height="30" as="geometry" />
        </mxCell>
        <mxCell id="C-vyLk0tnHw3VtMMgP7b-26" value="customer_id int NOT NULL " style="shape=partialRectangle;overflow=hidden;connectable=0;fillColor=none;top=0;left=0;bottom=0;right=0;align=left;spacingLeft=6;fontStyle=5;" parent="C-vyLk0tnHw3VtMMgP7b-24" vertex="1">
          <mxGeometry x="30" width="220" height="30" as="geometry" />
        </mxCell>
        <mxCell id="C-vyLk0tnHw3VtMMgP7b-27" value="" style="shape=partialRectangle;collapsible=0;dropTarget=0;pointerEvents=0;fillColor=none;points=[[0,0.5],[1,0.5]];portConstraint=eastwest;top=0;left=0;right=0;bottom=0;" parent="C-vyLk0tnHw3VtMMgP7b-23" vertex="1">
          <mxGeometry y="60" width="250" height="30" as="geometry" />
        </mxCell>
        <mxCell id="C-vyLk0tnHw3VtMMgP7b-28" value="" style="shape=partialRectangle;overflow=hidden;connectable=0;fillColor=none;top=0;left=0;bottom=0;right=0;" parent="C-vyLk0tnHw3VtMMgP7b-27" vertex="1">
          <mxGeometry width="30" height="30" as="geometry" />
        </mxCell>
        <mxCell id="C-vyLk0tnHw3VtMMgP7b-29" value="customer_name char(50) NOT NULL" style="shape=partialRectangle;overflow=hidden;connectable=0;fillColor=none;top=0;left=0;bottom=0;right=0;align=left;spacingLeft=6;" parent="C-vyLk0tnHw3VtMMgP7b-27" vertex="1">
          <mxGeometry x="30" width="220" height="30" as="geometry" />
        </mxCell>
        <UserObject label="" plantUmlData="{&quot;data&quot;:&quot;@startuml\n\nentity \&quot;首页Banner表\&quot; as Banner {\n    + ID\n    链接地址\n    标题\n    封面\n    等级排序\n    创建时间\n    创建人\n    更新时间\n    更新人\n    逻辑删除\n    备注\n}\n\nentity \&quot;讲师提现记录表\&quot; as Withdraw {\n    + 自增ID\n    讲师ID\n    提款账号\n    开户人\n    提现金额\n    提现状态\n    更新人\n    创建人\n    提现申请时间\n    审核付款时间\n    逻辑删除\n    备注\n}\n\nentity \&quot;课程章节表\&quot; as Chapter {\n    + 章节ID\n    课程ID\n    章节名称\n    显示排序\n    章节时长\n    创建时间\n    创建人\n    更新时间\n    更新人\n    逻辑删除\n    备注说明\n}\n\nentity \&quot;课程表\&quot; as Course {\n    + 课程ID\n    课程讲师ID\n    课程专业ID\n    课程标题\n    课程简称\n    课程销售价格\n    总课时\n    课程封面图片路径\n    VIP学员数量\n    销售数量\n    浏览数量\n    乐观锁\n    课程状态\n    课程难易程度\n    父课程专业ID\n    课程类型\n    课程描述\n    课程资源下载地址\n    课程资源Key\n    创建时间\n    创建人\n    更新人\n    更新时间\n    课程备注\n    逻辑删除\n}\n\nentity \&quot;每日讲师收益和订单统计表\&quot; as DailyIncome {\n    + 自增ID\n    创建日期\n    日期\n    收入金额\n    订单数量\n    天号\n    讲师ID\n}\n\nentity \&quot;成交金额汇总表\&quot; as Transaction {\n    + 自增ID\n    订单编号\n    会员ID\n    成交金额\n    购买类型\n    支付渠道\n    国家或地区\n    区域\n    所属省份\n    城市\n    网络服务提供商\n    创建时间\n    创建人\n    更新时间\n    更新人\n    逻辑删除\n    备注\n}\n\nentity \&quot;环境参数表\&quot; as EnvParams {\n    + 自增ID\n    参数名称\n    参数值\n    课程ID\n    创建时间\n    创建人\n    更新时间\n    更新人\n    逻辑删除\n    备注\n}\n\nentity \&quot;讲师收益记录表\&quot; as TeacherIncome {\n    + 自增ID\n    购买者ID\n    讲师ID\n    订单编号\n    课程ID\n    课程价格\n    课程收益\n    创建时间\n    创建人\n    更新人\n    更新时间\n    逻辑删除\n    备注\n}\n\nentity \&quot;搜索关键词表\&quot; as Keywords {\n    + 自增ID\n    关键词\n    搜索次数\n    创建时间\n    创建人\n    更新时间\n    更新人\n    逻辑删除\n    备注\n}\n\nentity \&quot;会员表\&quot; as Member {\n    + 会员ID\n    微信openid\n    手机号\n    密码\n    昵称\n    电子邮箱\n    性别\n    用户头像\n    用户签名\n    是否讲师\n    讲师ID\n    会员类别ID\n    更新时间\n    更新人\n    创建时间\n    创建人\n    备注\n    逻辑删除\n}\n\nentity \&quot;会员购买课程记录表\&quot; as CoursePurchase {\n    + 自增ID\n    订单编号\n    课程ID\n    会员ID\n    讲师ID\n    购买金额\n    付款状态\n    购买类型\n    支付渠道\n    国家或地区\n    区域\n    所属省份\n    城市\n    网络服务提供商\n    创建时间\n    创建人\n    更新人\n    更新时间\n    备注\n    逻辑删除\n}\n\nentity \&quot;会员加入VIP记录表\&quot; as VIPJoin {\n    + 自增ID\n    订单编号\n    VIP类别ID\n    会员ID\n    购买金额\n    付款状态\n    支付渠道\n    国家或地区\n    区域\n    所属省份\n    城市\n    网络服务提供商\n    创建时间\n    创建人\n    更新时间\n    更新人\n    逻辑删除\n    备注\n}\n\nentity \&quot;课程类别表\&quot; as CourseCategory {\n    + 课程类别ID\n    类别名称\n    父类别ID\n    排序字段\n    创建时间\n    创建人\n    更新时间\n    更新人\n    阿里云视频分类ID\n    备注\n    是否删除\n}\n\nentity \&quot;讲师表\&quot; as Teacher {\n    + 讲师ID\n    讲师姓名\n    讲师简介\n    职称\n    讲师头像\n    排序\n    累计收入\n    可提现金额\n    收款人姓名\n    银行卡号\n    收款银行\n    逻辑删除\n    创建时间\n    创建人\n    更新人\n    更新时间\n    讲师详情介绍\n}\n\nentity \&quot;课程视频表\&quot; as CourseVideo {\n    + 视频ID\n    课程ID\n    章节ID\n    节点名称\n    排序字段\n    播放次数\n    可试听状态\n    视频资源\n    视频时长\n    预览时长\n    视频状态\n    视频源文件大小\n    乐观锁\n    视频原始名称\n    视频Key\n    创建时间\n    创建人\n    更新时间\n    更新人\n    备注\n    逻辑删除\n}\n\nentity \&quot;会员视频播放记录表\&quot; as VideoPlayRecord {\n    + 自增ID\n    视频ID\n    会员ID\n    播放次数\n    已播放时长\n    操作者IP\n    国家或地区\n    区域\n    所属省份\n    城市\n    网络服务提供商\n    创建时间\n    创建人\n    更新人\n    最后播放时间\n    逻辑删除\n    备注\n}\n\nentity \&quot;VIP会员类型表\&quot; as VIPTypes {\n    + 自增ID\n    会员名称\n    会员价格\n    创建时间\n    创建人\n    更新人\n    更新时间\n    逻辑删除\n    备注\n}\n\nentity \&quot;会员类型与课程类别关系表\&quot; as MembershipCourseCategory {\n    + 自增ID\n    VIP类别ID\n    课程分类ID\n    创建时间\n    创建人\n    更新人\n    更新时间\n    备注\n    逻辑删除\n}\n&#39;Relationships\nCourse *-- \&quot;1\&quot; Teacher : \&quot;讲师ID\&quot;\nCoursePurchase *-- \&quot;1\&quot; Course : \&quot;课程ID\&quot;\nCoursePurchase *-- \&quot;1\&quot; Member : \&quot;会员ID\&quot;\nCourseVideo *-- \&quot;1\&quot; Chapter : \&quot;章节ID\&quot;\nChapter *-- \&quot;1\&quot; Course : \&quot;课程ID\&quot;\nVideoPlayRecord *-- \&quot;1\&quot; Member : \&quot;会员ID\&quot;\nTeacherIncome *-- \&quot;1\&quot; Course : \&quot;课程ID\&quot;\nWithdraw *-- \&quot;1\&quot; Teacher : \&quot;讲师ID\&quot;\nDailyIncome *-- \&quot;1\&quot; Teacher : \&quot;讲师ID\&quot;\nTransaction *-- \&quot;1\&quot; Member : \&quot;会员ID\&quot;\nVIPJoin *-- \&quot;1\&quot; VIPTypes : \&quot;VIP类别ID\&quot;\nMembershipCourseCategory *-- \&quot;1\&quot; VIPTypes : \&quot;VIP类别ID\&quot;\nMembershipCourseCategory *-- \&quot;1\&quot; CourseCategory : \&quot;课程分类ID\&quot;\n\n@enduml&quot;,&quot;format&quot;:&quot;svg&quot;}" id="4ec-3jum0nc3cHPIG_mP-1">
          <mxCell style="shape=image;noLabel=1;verticalAlign=top;aspect=fixed;imageAspect=0;image=data:image/svg+xml,PD94bWwgdmVyc2lvbj0iMS4wIiBlbmNvZGluZz0idXMtYXNjaWkiIHN0YW5kYWxvbmU9Im5vIj8+PHN2ZyB4bWxucz0iaHR0cDovL3d3dy53My5vcmcvMjAwMC9zdmciIHhtbG5zOnhsaW5rPSJodHRwOi8vd3d3LnczLm9yZy8xOTk5L3hsaW5rIiBjb250ZW50U3R5bGVUeXBlPSJ0ZXh0L2NzcyIgaGVpZ2h0PSIxNjc1cHgiIHByZXNlcnZlQXNwZWN0UmF0aW89Im5vbmUiIHN0eWxlPSJ3aWR0aDoxNTE2cHg7aGVpZ2h0OjE2NzVweDtiYWNrZ3JvdW5kOiNGRkZGRkY7IiB2ZXJzaW9uPSIxLjEiIHZpZXdCb3g9IjAgMCAxNTE2IDE2NzUiIHdpZHRoPSIxNTE2cHgiIHpvb21BbmRQYW49Im1hZ25pZnkiPjxkZWZzLz48Zz48IS0tY2xhc3MgQmFubmVyLS0+PGcgaWQ9ImVsZW1fQmFubmVyIj48cmVjdCBjb2RlTGluZT0iMSIgZmlsbD0iI0YxRjFGMSIgaGVpZ2h0PSIyMTIuODI4MSIgaWQ9IkJhbm5lciIgcng9IjIuNSIgcnk9IjIuNSIgc3R5bGU9InN0cm9rZTojMTgxODE4O3N0cm9rZS13aWR0aDowLjU7IiB3aWR0aD0iMTE2IiB4PSI3IiB5PSI4MiIvPjxlbGxpcHNlIGN4PSIyMiIgY3k9Ijk4IiBmaWxsPSIjQUREMUIyIiByeD0iMTEiIHJ5PSIxMSIgc3R5bGU9InN0cm9rZTojMTgxODE4O3N0cm9rZS13aWR0aDoxLjA7Ii8+PHBhdGggZD0iTTI1LjYyNSwxMDQgTDI1LjYyNSwxMDIuMjUgTDIwLjMxMjUsMTAyLjI1IFEyMC4zMTI1LDEwMi4yNSAyMC4zMTI1LDk4LjY4NzUgTDI0LjU2MjUsOTguNjg3NSBMMjQuNTYyNSw5Ni45Mzc1IEwyMC4zMTI1LDk2LjkzNzUgTDIwLjMxMjUsOTQuNDM3NSBMMjUuNjI1LDk0LjQzNzUgTDI1LjYyNSw5Mi42ODc1IEwxOC41NjI1LDkyLjY4NzUgUTE4LjU2MjUsOTIuNjg3NSAxOC41NjI1LDEwNCBMMjUuNjI1LDEwNCBaICIgZmlsbD0iIzAwMDAwMCIvPjx0ZXh0IGZpbGw9IiMwMDAwMDAiIGZvbnQtZmFtaWx5PSJzYW5zLXNlcmlmIiBmb250LXNpemU9IjE0IiBsZW5ndGhBZGp1c3Q9InNwYWNpbmciIHRleHRMZW5ndGg9Ijg0IiB4PSIzNiIgeT0iMTAzLjc0MjIiPiYjMzkzMTg7JiMzOTAyOTtCYW5uZXImIzM0OTIwOzwvdGV4dD48bGluZSBzdHlsZT0ic3Ryb2tlOiMxODE4MTg7c3Ryb2tlLXdpZHRoOjAuNTsiIHgxPSI4IiB4Mj0iMTIyIiB5MT0iMTE0IiB5Mj0iMTE0Ii8+PGVsbGlwc2UgY3g9IjE4IiBjeT0iMTI2Ljk5MjIiIGZpbGw9Im5vbmUiIHJ4PSIzIiByeT0iMyIgc3R5bGU9InN0cm9rZTojMDM4MDQ4O3N0cm9rZS13aWR0aDoxLjA7Ii8+PHRleHQgZmlsbD0iIzAwMDAwMCIgZm9udC1mYW1pbHk9InNhbnMtc2VyaWYiIGZvbnQtc2l6ZT0iMTQiIGxlbmd0aEFkanVzdD0ic3BhY2luZyIgdGV4dExlbmd0aD0iMTQiIHg9IjI3IiB5PSIxMzEuMjM0NCI+SUQ8L3RleHQ+PHRleHQgZmlsbD0iIzAwMDAwMCIgZm9udC1mYW1pbHk9InNhbnMtc2VyaWYiIGZvbnQtc2l6ZT0iMTQiIGxlbmd0aEFkanVzdD0ic3BhY2luZyIgdGV4dExlbmd0aD0iNTYiIHg9IjI3IiB5PSIxNDYuMjE4OCI+JiMzODE0MjsmIzI1NTA5OyYjMjIzMjA7JiMyMjMzNjs8L3RleHQ+PHRleHQgZmlsbD0iIzAwMDAwMCIgZm9udC1mYW1pbHk9InNhbnMtc2VyaWYiIGZvbnQtc2l6ZT0iMTQiIGxlbmd0aEFkanVzdD0ic3BhY2luZyIgdGV4dExlbmd0aD0iMjgiIHg9IjI3IiB5PSIxNjEuMjAzMSI+JiMyNjYzMTsmIzM5MDY0OzwvdGV4dD48dGV4dCBmaWxsPSIjMDAwMDAwIiBmb250LWZhbWlseT0ic2Fucy1zZXJpZiIgZm9udC1zaXplPSIxNCIgbGVuZ3RoQWRqdXN0PSJzcGFjaW5nIiB0ZXh0TGVuZ3RoPSIyOCIgeD0iMjciIHk9IjE3Ni4xODc1Ij4mIzIzNTUzOyYjMzg3NTQ7PC90ZXh0Pjx0ZXh0IGZpbGw9IiMwMDAwMDAiIGZvbnQtZmFtaWx5PSJzYW5zLXNlcmlmIiBmb250LXNpemU9IjE0IiBsZW5ndGhBZGp1c3Q9InNwYWNpbmciIHRleHRMZW5ndGg9IjU2IiB4PSIyNyIgeT0iMTkxLjE3MTkiPiYjMzE1NjE7JiMzMjQyMzsmIzI1NDkwOyYjMjQyMDc7PC90ZXh0Pjx0ZXh0IGZpbGw9IiMwMDAwMDAiIGZvbnQtZmFtaWx5PSJzYW5zLXNlcmlmIiBmb250LXNpemU9IjE0IiBsZW5ndGhBZGp1c3Q9InNwYWNpbmciIHRleHRMZW5ndGg9IjU2IiB4PSIyNyIgeT0iMjA2LjE1NjMiPiYjMjEwMTk7JiMyNDMxNDsmIzI2MTAyOyYjMzgzODg7PC90ZXh0Pjx0ZXh0IGZpbGw9IiMwMDAwMDAiIGZvbnQtZmFtaWx5PSJzYW5zLXNlcmlmIiBmb250LXNpemU9IjE0IiBsZW5ndGhBZGp1c3Q9InNwYWNpbmciIHRleHRMZW5ndGg9IjQyIiB4PSIyNyIgeT0iMjIxLjE0MDYiPiYjMjEwMTk7JiMyNDMxNDsmIzIwMTU0OzwvdGV4dD48dGV4dCBmaWxsPSIjMDAwMDAwIiBmb250LWZhbWlseT0ic2Fucy1zZXJpZiIgZm9udC1zaXplPSIxNCIgbGVuZ3RoQWRqdXN0PSJzcGFjaW5nIiB0ZXh0TGVuZ3RoPSI1NiIgeD0iMjciIHk9IjIzNi4xMjUiPiYjMjYzNTY7JiMyNjAzMjsmIzI2MTAyOyYjMzgzODg7PC90ZXh0Pjx0ZXh0IGZpbGw9IiMwMDAwMDAiIGZvbnQtZmFtaWx5PSJzYW5zLXNlcmlmIiBmb250LXNpemU9IjE0IiBsZW5ndGhBZGp1c3Q9InNwYWNpbmciIHRleHRMZW5ndGg9IjQyIiB4PSIyNyIgeT0iMjUxLjEwOTQiPiYjMjYzNTY7JiMyNjAzMjsmIzIwMTU0OzwvdGV4dD48dGV4dCBmaWxsPSIjMDAwMDAwIiBmb250LWZhbWlseT0ic2Fucy1zZXJpZiIgZm9udC1zaXplPSIxNCIgbGVuZ3RoQWRqdXN0PSJzcGFjaW5nIiB0ZXh0TGVuZ3RoPSI1NiIgeD0iMjciIHk9IjI2Ni4wOTM4Ij4mIzM2OTIzOyYjMzY3NTM7JiMyMTAyNDsmIzM4NTAwOzwvdGV4dD48dGV4dCBmaWxsPSIjMDAwMDAwIiBmb250LWZhbWlseT0ic2Fucy1zZXJpZiIgZm9udC1zaXplPSIxNCIgbGVuZ3RoQWRqdXN0PSJzcGFjaW5nIiB0ZXh0TGVuZ3RoPSIyOCIgeD0iMjciIHk9IjI4MS4wNzgxIj4mIzIyNzkxOyYjMjc4ODA7PC90ZXh0PjxsaW5lIHN0eWxlPSJzdHJva2U6IzE4MTgxODtzdHJva2Utd2lkdGg6MC41OyIgeDE9IjgiIHgyPSIxMjIiIHkxPSIyODYuODI4MSIgeTI9IjI4Ni44MjgxIi8+PC9nPjwhLS1jbGFzcyBXaXRoZHJhdy0tPjxnIGlkPSJlbGVtX1dpdGhkcmF3Ij48cmVjdCBjb2RlTGluZT0iMTUiIGZpbGw9IiNGMUYxRjEiIGhlaWdodD0iMjI3LjgxMjUiIGlkPSJXaXRoZHJhdyIgcng9IjIuNSIgcnk9IjIuNSIgc3R5bGU9InN0cm9rZTojMTgxODE4O3N0cm9rZS13aWR0aDowLjU7IiB3aWR0aD0iMTMwIiB4PSIzOTciIHk9Ijk2NS41Ii8+PGVsbGlwc2UgY3g9IjQxMiIgY3k9Ijk4MS41IiBmaWxsPSIjQUREMUIyIiByeD0iMTEiIHJ5PSIxMSIgc3R5bGU9InN0cm9rZTojMTgxODE4O3N0cm9rZS13aWR0aDoxLjA7Ii8+PHBhdGggZD0iTTQxNS42MjUsOTg3LjUgTDQxNS42MjUsOTg1Ljc1IEw0MTAuMzEyNSw5ODUuNzUgUTQxMC4zMTI1LDk4NS43NSA0MTAuMzEyNSw5ODIuMTg3NSBMNDE0LjU2MjUsOTgyLjE4NzUgTDQxNC41NjI1LDk4MC40Mzc1IEw0MTAuMzEyNSw5ODAuNDM3NSBMNDEwLjMxMjUsOTc3LjkzNzUgTDQxNS42MjUsOTc3LjkzNzUgTDQxNS42MjUsOTc2LjE4NzUgTDQwOC41NjI1LDk3Ni4xODc1IFE0MDguNTYyNSw5NzYuMTg3NSA0MDguNTYyNSw5ODcuNSBMNDE1LjYyNSw5ODcuNSBaICIgZmlsbD0iIzAwMDAwMCIvPjx0ZXh0IGZpbGw9IiMwMDAwMDAiIGZvbnQtZmFtaWx5PSJzYW5zLXNlcmlmIiBmb250LXNpemU9IjE0IiBsZW5ndGhBZGp1c3Q9InNwYWNpbmciIHRleHRMZW5ndGg9Ijk4IiB4PSI0MjYiIHk9Ijk4Ny4yNDIyIj4mIzM1NzYyOyYjMjQwNzI7JiMyNTU1MjsmIzI5NjE2OyYjMzU3NjA7JiMyNDQwNTsmIzM0OTIwOzwvdGV4dD48bGluZSBzdHlsZT0ic3Ryb2tlOiMxODE4MTg7c3Ryb2tlLXdpZHRoOjAuNTsiIHgxPSIzOTgiIHgyPSI1MjYiIHkxPSI5OTcuNSIgeTI9Ijk5Ny41Ii8+PGVsbGlwc2UgY3g9IjQwOCIgY3k9IjEwMTAuNDkyMiIgZmlsbD0ibm9uZSIgcng9IjMiIHJ5PSIzIiBzdHlsZT0ic3Ryb2tlOiMwMzgwNDg7c3Ryb2tlLXdpZHRoOjEuMDsiLz48dGV4dCBmaWxsPSIjMDAwMDAwIiBmb250LWZhbWlseT0ic2Fucy1zZXJpZiIgZm9udC1zaXplPSIxNCIgbGVuZ3RoQWRqdXN0PSJzcGFjaW5nIiB0ZXh0TGVuZ3RoPSI0MiIgeD0iNDE3IiB5PSIxMDE0LjczNDQiPiYjMzMyNTg7JiMyMjY4NjtJRDwvdGV4dD48dGV4dCBmaWxsPSIjMDAwMDAwIiBmb250LWZhbWlseT0ic2Fucy1zZXJpZiIgZm9udC1zaXplPSIxNCIgbGVuZ3RoQWRqdXN0PSJzcGFjaW5nIiB0ZXh0TGVuZ3RoPSI0MiIgeD0iNDE3IiB5PSIxMDI5LjcxODgiPiYjMzU3NjI7JiMyNDA3MjtJRDwvdGV4dD48dGV4dCBmaWxsPSIjMDAwMDAwIiBmb250LWZhbWlseT0ic2Fucy1zZXJpZiIgZm9udC1zaXplPSIxNCIgbGVuZ3RoQWRqdXN0PSJzcGFjaW5nIiB0ZXh0TGVuZ3RoPSI1NiIgeD0iNDE3IiB5PSIxMDQ0LjcwMzEiPiYjMjU1NTI7JiMyNzQ1NDsmIzM2MTM0OyYjMjE0OTU7PC90ZXh0Pjx0ZXh0IGZpbGw9IiMwMDAwMDAiIGZvbnQtZmFtaWx5PSJzYW5zLXNlcmlmIiBmb250LXNpemU9IjE0IiBsZW5ndGhBZGp1c3Q9InNwYWNpbmciIHRleHRMZW5ndGg9IjQyIiB4PSI0MTciIHk9IjEwNTkuNjg3NSI+JiMyNDMyMDsmIzI1MTQzOyYjMjAxNTQ7PC90ZXh0Pjx0ZXh0IGZpbGw9IiMwMDAwMDAiIGZvbnQtZmFtaWx5PSJzYW5zLXNlcmlmIiBmb250LXNpemU9IjE0IiBsZW5ndGhBZGp1c3Q9InNwYWNpbmciIHRleHRMZW5ndGg9IjU2IiB4PSI0MTciIHk9IjEwNzQuNjcxOSI+JiMyNTU1MjsmIzI5NjE2OyYjMzczMjk7JiMzOTA2OTs8L3RleHQ+PHRleHQgZmlsbD0iIzAwMDAwMCIgZm9udC1mYW1pbHk9InNhbnMtc2VyaWYiIGZvbnQtc2l6ZT0iMTQiIGxlbmd0aEFkanVzdD0ic3BhY2luZyIgdGV4dExlbmd0aD0iNTYiIHg9IjQxNyIgeT0iMTA4OS42NTYzIj4mIzI1NTUyOyYjMjk2MTY7JiMyOTM2NjsmIzI0NTc3OzwvdGV4dD48dGV4dCBmaWxsPSIjMDAwMDAwIiBmb250LWZhbWlseT0ic2Fucy1zZXJpZiIgZm9udC1zaXplPSIxNCIgbGVuZ3RoQWRqdXN0PSJzcGFjaW5nIiB0ZXh0TGVuZ3RoPSI0MiIgeD0iNDE3IiB5PSIxMTA0LjY0MDYiPiYjMjYzNTY7JiMyNjAzMjsmIzIwMTU0OzwvdGV4dD48dGV4dCBmaWxsPSIjMDAwMDAwIiBmb250LWZhbWlseT0ic2Fucy1zZXJpZiIgZm9udC1zaXplPSIxNCIgbGVuZ3RoQWRqdXN0PSJzcGFjaW5nIiB0ZXh0TGVuZ3RoPSI0MiIgeD0iNDE3IiB5PSIxMTE5LjYyNSI+JiMyMTAxOTsmIzI0MzE0OyYjMjAxNTQ7PC90ZXh0Pjx0ZXh0IGZpbGw9IiMwMDAwMDAiIGZvbnQtZmFtaWx5PSJzYW5zLXNlcmlmIiBmb250LXNpemU9IjE0IiBsZW5ndGhBZGp1c3Q9InNwYWNpbmciIHRleHRMZW5ndGg9Ijg0IiB4PSI0MTciIHk9IjExMzQuNjA5NCI+JiMyNTU1MjsmIzI5NjE2OyYjMzAwMDM7JiMzNTgzMTsmIzI2MTAyOyYjMzgzODg7PC90ZXh0Pjx0ZXh0IGZpbGw9IiMwMDAwMDAiIGZvbnQtZmFtaWx5PSJzYW5zLXNlcmlmIiBmb250LXNpemU9IjE0IiBsZW5ndGhBZGp1c3Q9InNwYWNpbmciIHRleHRMZW5ndGg9Ijg0IiB4PSI0MTciIHk9IjExNDkuNTkzOCI+JiMyMzQ1NzsmIzI2NjgwOyYjMjAxODQ7JiMyNzQ1NDsmIzI2MTAyOyYjMzgzODg7PC90ZXh0Pjx0ZXh0IGZpbGw9IiMwMDAwMDAiIGZvbnQtZmFtaWx5PSJzYW5zLXNlcmlmIiBmb250LXNpemU9IjE0IiBsZW5ndGhBZGp1c3Q9InNwYWNpbmciIHRleHRMZW5ndGg9IjU2IiB4PSI0MTciIHk9IjExNjQuNTc4MSI+JiMzNjkyMzsmIzM2NzUzOyYjMjEwMjQ7JiMzODUwMDs8L3RleHQ+PHRleHQgZmlsbD0iIzAwMDAwMCIgZm9udC1mYW1pbHk9InNhbnMtc2VyaWYiIGZvbnQtc2l6ZT0iMTQiIGxlbmd0aEFkanVzdD0ic3BhY2luZyIgdGV4dExlbmd0aD0iMjgiIHg9IjQxNyIgeT0iMTE3OS41NjI1Ij4mIzIyNzkxOyYjMjc4ODA7PC90ZXh0PjxsaW5lIHN0eWxlPSJzdHJva2U6IzE4MTgxODtzdHJva2Utd2lkdGg6MC41OyIgeDE9IjM5OCIgeDI9IjUyNiIgeTE9IjExODUuMzEyNSIgeTI9IjExODUuMzEyNSIvPjwvZz48IS0tY2xhc3MgQ2hhcHRlci0tPjxnIGlkPSJlbGVtX0NoYXB0ZXIiPjxyZWN0IGNvZGVMaW5lPSIzMCIgZmlsbD0iI0YxRjFGMSIgaGVpZ2h0PSIyMTIuODI4MSIgaWQ9IkNoYXB0ZXIiIHJ4PSIyLjUiIHJ5PSIyLjUiIHN0eWxlPSJzdHJva2U6IzE4MTgxODtzdHJva2Utd2lkdGg6MC41OyIgd2lkdGg9IjEwMiIgeD0iMzA2IiB5PSI1MTIuNSIvPjxlbGxpcHNlIGN4PSIzMjEiIGN5PSI1MjguNSIgZmlsbD0iI0FERDFCMiIgcng9IjExIiByeT0iMTEiIHN0eWxlPSJzdHJva2U6IzE4MTgxODtzdHJva2Utd2lkdGg6MS4wOyIvPjxwYXRoIGQ9Ik0zMjQuNjI1LDUzNC41IEwzMjQuNjI1LDUzMi43NSBMMzE5LjMxMjUsNTMyLjc1IFEzMTkuMzEyNSw1MzIuNzUgMzE5LjMxMjUsNTI5LjE4NzUgTDMyMy41NjI1LDUyOS4xODc1IEwzMjMuNTYyNSw1MjcuNDM3NSBMMzE5LjMxMjUsNTI3LjQzNzUgTDMxOS4zMTI1LDUyNC45Mzc1IEwzMjQuNjI1LDUyNC45Mzc1IEwzMjQuNjI1LDUyMy4xODc1IEwzMTcuNTYyNSw1MjMuMTg3NSBRMzE3LjU2MjUsNTIzLjE4NzUgMzE3LjU2MjUsNTM0LjUgTDMyNC42MjUsNTM0LjUgWiAiIGZpbGw9IiMwMDAwMDAiLz48dGV4dCBmaWxsPSIjMDAwMDAwIiBmb250LWZhbWlseT0ic2Fucy1zZXJpZiIgZm9udC1zaXplPSIxNCIgbGVuZ3RoQWRqdXN0PSJzcGFjaW5nIiB0ZXh0TGVuZ3RoPSI3MCIgeD0iMzM1IiB5PSI1MzQuMjQyMiI+JiMzNTgzODsmIzMxMjQzOyYjMzE0NTY7JiMzMzQxMDsmIzM0OTIwOzwvdGV4dD48bGluZSBzdHlsZT0ic3Ryb2tlOiMxODE4MTg7c3Ryb2tlLXdpZHRoOjAuNTsiIHgxPSIzMDciIHgyPSI0MDciIHkxPSI1NDQuNSIgeTI9IjU0NC41Ii8+PGVsbGlwc2UgY3g9IjMxNyIgY3k9IjU1Ny40OTIyIiBmaWxsPSJub25lIiByeD0iMyIgcnk9IjMiIHN0eWxlPSJzdHJva2U6IzAzODA0ODtzdHJva2Utd2lkdGg6MS4wOyIvPjx0ZXh0IGZpbGw9IiMwMDAwMDAiIGZvbnQtZmFtaWx5PSJzYW5zLXNlcmlmIiBmb250LXNpemU9IjE0IiBsZW5ndGhBZGp1c3Q9InNwYWNpbmciIHRleHRMZW5ndGg9IjQyIiB4PSIzMjYiIHk9IjU2MS43MzQ0Ij4mIzMxNDU2OyYjMzM0MTA7SUQ8L3RleHQ+PHRleHQgZmlsbD0iIzAwMDAwMCIgZm9udC1mYW1pbHk9InNhbnMtc2VyaWYiIGZvbnQtc2l6ZT0iMTQiIGxlbmd0aEFkanVzdD0ic3BhY2luZyIgdGV4dExlbmd0aD0iNDIiIHg9IjMyNiIgeT0iNTc2LjcxODgiPiYjMzU4Mzg7JiMzMTI0MztJRDwvdGV4dD48dGV4dCBmaWxsPSIjMDAwMDAwIiBmb250LWZhbWlseT0ic2Fucy1zZXJpZiIgZm9udC1zaXplPSIxNCIgbGVuZ3RoQWRqdXN0PSJzcGFjaW5nIiB0ZXh0TGVuZ3RoPSI1NiIgeD0iMzI2IiB5PSI1OTEuNzAzMSI+JiMzMTQ1NjsmIzMzNDEwOyYjMjE1MTc7JiMzMTIxNjs8L3RleHQ+PHRleHQgZmlsbD0iIzAwMDAwMCIgZm9udC1mYW1pbHk9InNhbnMtc2VyaWYiIGZvbnQtc2l6ZT0iMTQiIGxlbmd0aEFkanVzdD0ic3BhY2luZyIgdGV4dExlbmd0aD0iNTYiIHg9IjMyNiIgeT0iNjA2LjY4NzUiPiYjMjYxNzQ7JiMzMTAzNDsmIzI1NDkwOyYjMjQyMDc7PC90ZXh0Pjx0ZXh0IGZpbGw9IiMwMDAwMDAiIGZvbnQtZmFtaWx5PSJzYW5zLXNlcmlmIiBmb250LXNpemU9IjE0IiBsZW5ndGhBZGp1c3Q9InNwYWNpbmciIHRleHRMZW5ndGg9IjU2IiB4PSIzMjYiIHk9IjYyMS42NzE5Ij4mIzMxNDU2OyYjMzM0MTA7JiMyNjEwMjsmIzM4MjcxOzwvdGV4dD48dGV4dCBmaWxsPSIjMDAwMDAwIiBmb250LWZhbWlseT0ic2Fucy1zZXJpZiIgZm9udC1zaXplPSIxNCIgbGVuZ3RoQWRqdXN0PSJzcGFjaW5nIiB0ZXh0TGVuZ3RoPSI1NiIgeD0iMzI2IiB5PSI2MzYuNjU2MyI+JiMyMTAxOTsmIzI0MzE0OyYjMjYxMDI7JiMzODM4ODs8L3RleHQ+PHRleHQgZmlsbD0iIzAwMDAwMCIgZm9udC1mYW1pbHk9InNhbnMtc2VyaWYiIGZvbnQtc2l6ZT0iMTQiIGxlbmd0aEFkanVzdD0ic3BhY2luZyIgdGV4dExlbmd0aD0iNDIiIHg9IjMyNiIgeT0iNjUxLjY0MDYiPiYjMjEwMTk7JiMyNDMxNDsmIzIwMTU0OzwvdGV4dD48dGV4dCBmaWxsPSIjMDAwMDAwIiBmb250LWZhbWlseT0ic2Fucy1zZXJpZiIgZm9udC1zaXplPSIxNCIgbGVuZ3RoQWRqdXN0PSJzcGFjaW5nIiB0ZXh0TGVuZ3RoPSI1NiIgeD0iMzI2IiB5PSI2NjYuNjI1Ij4mIzI2MzU2OyYjMjYwMzI7JiMyNjEwMjsmIzM4Mzg4OzwvdGV4dD48dGV4dCBmaWxsPSIjMDAwMDAwIiBmb250LWZhbWlseT0ic2Fucy1zZXJpZiIgZm9udC1zaXplPSIxNCIgbGVuZ3RoQWRqdXN0PSJzcGFjaW5nIiB0ZXh0TGVuZ3RoPSI0MiIgeD0iMzI2IiB5PSI2ODEuNjA5NCI+JiMyNjM1NjsmIzI2MDMyOyYjMjAxNTQ7PC90ZXh0Pjx0ZXh0IGZpbGw9IiMwMDAwMDAiIGZvbnQtZmFtaWx5PSJzYW5zLXNlcmlmIiBmb250LXNpemU9IjE0IiBsZW5ndGhBZGp1c3Q9InNwYWNpbmciIHRleHRMZW5ndGg9IjU2IiB4PSIzMjYiIHk9IjY5Ni41OTM4Ij4mIzM2OTIzOyYjMzY3NTM7JiMyMTAyNDsmIzM4NTAwOzwvdGV4dD48dGV4dCBmaWxsPSIjMDAwMDAwIiBmb250LWZhbWlseT0ic2Fucy1zZXJpZiIgZm9udC1zaXplPSIxNCIgbGVuZ3RoQWRqdXN0PSJzcGFjaW5nIiB0ZXh0TGVuZ3RoPSI1NiIgeD0iMzI2IiB5PSI3MTEuNTc4MSI+JiMyMjc5MTsmIzI3ODgwOyYjMzU4Mjg7JiMyNjEyNjs8L3RleHQ+PGxpbmUgc3R5bGU9InN0cm9rZTojMTgxODE4O3N0cm9rZS13aWR0aDowLjU7IiB4MT0iMzA3IiB4Mj0iNDA3IiB5MT0iNzE3LjMyODEiIHkyPSI3MTcuMzI4MSIvPjwvZz48IS0tY2xhc3MgQ291cnNlLS0+PGcgaWQ9ImVsZW1fQ291cnNlIj48cmVjdCBjb2RlTGluZT0iNDQiIGZpbGw9IiNGMUYxRjEiIGhlaWdodD0iNDIyLjYwOTQiIGlkPSJDb3Vyc2UiIHJ4PSIyLjUiIHJ5PSIyLjUiIHN0eWxlPSJzdHJva2U6IzE4MTgxODtzdHJva2Utd2lkdGg6MC41OyIgd2lkdGg9IjEzOCIgeD0iNTYyIiB5PSI4NjgiLz48ZWxsaXBzZSBjeD0iNjA1LjgiIGN5PSI4ODQiIGZpbGw9IiNBREQxQjIiIHJ4PSIxMSIgcnk9IjExIiBzdHlsZT0ic3Ryb2tlOiMxODE4MTg7c3Ryb2tlLXdpZHRoOjEuMDsiLz48cGF0aCBkPSJNNjA5LjQyNSw4OTAgTDYwOS40MjUsODg4LjI1IEw2MDQuMTEyNSw4ODguMjUgUTYwNC4xMTI1LDg4OC4yNSA2MDQuMTEyNSw4ODQuNjg3NSBMNjA4LjM2MjUsODg0LjY4NzUgTDYwOC4zNjI1LDg4Mi45Mzc1IEw2MDQuMTEyNSw4ODIuOTM3NSBMNjA0LjExMjUsODgwLjQzNzUgTDYwOS40MjUsODgwLjQzNzUgTDYwOS40MjUsODc4LjY4NzUgTDYwMi4zNjI1LDg3OC42ODc1IFE2MDIuMzYyNSw4NzguNjg3NSA2MDIuMzYyNSw4OTAgTDYwOS40MjUsODkwIFogIiBmaWxsPSIjMDAwMDAwIi8+PHRleHQgZmlsbD0iIzAwMDAwMCIgZm9udC1mYW1pbHk9InNhbnMtc2VyaWYiIGZvbnQtc2l6ZT0iMTQiIGxlbmd0aEFkanVzdD0ic3BhY2luZyIgdGV4dExlbmd0aD0iNDIiIHg9IjYyNi4yIiB5PSI4ODkuNzQyMiI+JiMzNTgzODsmIzMxMjQzOyYjMzQ5MjA7PC90ZXh0PjxsaW5lIHN0eWxlPSJzdHJva2U6IzE4MTgxODtzdHJva2Utd2lkdGg6MC41OyIgeDE9IjU2MyIgeDI9IjY5OSIgeTE9IjkwMCIgeTI9IjkwMCIvPjxlbGxpcHNlIGN4PSI1NzMiIGN5PSI5MTIuOTkyMiIgZmlsbD0ibm9uZSIgcng9IjMiIHJ5PSIzIiBzdHlsZT0ic3Ryb2tlOiMwMzgwNDg7c3Ryb2tlLXdpZHRoOjEuMDsiLz48dGV4dCBmaWxsPSIjMDAwMDAwIiBmb250LWZhbWlseT0ic2Fucy1zZXJpZiIgZm9udC1zaXplPSIxNCIgbGVuZ3RoQWRqdXN0PSJzcGFjaW5nIiB0ZXh0TGVuZ3RoPSI0MiIgeD0iNTgyIiB5PSI5MTcuMjM0NCI+JiMzNTgzODsmIzMxMjQzO0lEPC90ZXh0Pjx0ZXh0IGZpbGw9IiMwMDAwMDAiIGZvbnQtZmFtaWx5PSJzYW5zLXNlcmlmIiBmb250LXNpemU9IjE0IiBsZW5ndGhBZGp1c3Q9InNwYWNpbmciIHRleHRMZW5ndGg9IjcwIiB4PSI1ODIiIHk9IjkzMi4yMTg4Ij4mIzM1ODM4OyYjMzEyNDM7JiMzNTc2MjsmIzI0MDcyO0lEPC90ZXh0Pjx0ZXh0IGZpbGw9IiMwMDAwMDAiIGZvbnQtZmFtaWx5PSJzYW5zLXNlcmlmIiBmb250LXNpemU9IjE0IiBsZW5ndGhBZGp1c3Q9InNwYWNpbmciIHRleHRMZW5ndGg9IjcwIiB4PSI1ODIiIHk9Ijk0Ny4yMDMxIj4mIzM1ODM4OyYjMzEyNDM7JiMxOTk4NzsmIzE5OTk0O0lEPC90ZXh0Pjx0ZXh0IGZpbGw9IiMwMDAwMDAiIGZvbnQtZmFtaWx5PSJzYW5zLXNlcmlmIiBmb250LXNpemU9IjE0IiBsZW5ndGhBZGp1c3Q9InNwYWNpbmciIHRleHRMZW5ndGg9IjU2IiB4PSI1ODIiIHk9Ijk2Mi4xODc1Ij4mIzM1ODM4OyYjMzEyNDM7JiMyNjYzMTsmIzM5MDY0OzwvdGV4dD48dGV4dCBmaWxsPSIjMDAwMDAwIiBmb250LWZhbWlseT0ic2Fucy1zZXJpZiIgZm9udC1zaXplPSIxNCIgbGVuZ3RoQWRqdXN0PSJzcGFjaW5nIiB0ZXh0TGVuZ3RoPSI1NiIgeD0iNTgyIiB5PSI5NzcuMTcxOSI+JiMzNTgzODsmIzMxMjQzOyYjMzE2MTY7JiMzMTIxNjs8L3RleHQ+PHRleHQgZmlsbD0iIzAwMDAwMCIgZm9udC1mYW1pbHk9InNhbnMtc2VyaWYiIGZvbnQtc2l6ZT0iMTQiIGxlbmd0aEFkanVzdD0ic3BhY2luZyIgdGV4dExlbmd0aD0iODQiIHg9IjU4MiIgeT0iOTkyLjE1NjMiPiYjMzU4Mzg7JiMzMTI0MzsmIzM4MTQ0OyYjMjE4MDY7JiMyMDIxNTsmIzI2Njg0OzwvdGV4dD48dGV4dCBmaWxsPSIjMDAwMDAwIiBmb250LWZhbWlseT0ic2Fucy1zZXJpZiIgZm9udC1zaXplPSIxNCIgbGVuZ3RoQWRqdXN0PSJzcGFjaW5nIiB0ZXh0TGVuZ3RoPSI0MiIgeD0iNTgyIiB5PSIxMDA3LjE0MDYiPiYjMjQ2MzU7JiMzNTgzODsmIzI2MTAyOzwvdGV4dD48dGV4dCBmaWxsPSIjMDAwMDAwIiBmb250LWZhbWlseT0ic2Fucy1zZXJpZiIgZm9udC1zaXplPSIxNCIgbGVuZ3RoQWRqdXN0PSJzcGFjaW5nIiB0ZXh0TGVuZ3RoPSIxMTIiIHg9IjU4MiIgeT0iMTAyMi4xMjUiPiYjMzU4Mzg7JiMzMTI0MzsmIzIzNTUzOyYjMzg3NTQ7JiMyMjI3MDsmIzI5MjU1OyYjMzYzMzU7JiMyNDQ1Mjs8L3RleHQ+PHRleHQgZmlsbD0iIzAwMDAwMCIgZm9udC1mYW1pbHk9InNhbnMtc2VyaWYiIGZvbnQtc2l6ZT0iMTQiIGxlbmd0aEFkanVzdD0ic3BhY2luZyIgdGV4dExlbmd0aD0iNzciIHg9IjU4MiIgeT0iMTAzNy4xMDk0Ij5WSVAmIzIzMzk4OyYjMjE1OTI7JiMyNTk2ODsmIzM3MzI3OzwvdGV4dD48dGV4dCBmaWxsPSIjMDAwMDAwIiBmb250LWZhbWlseT0ic2Fucy1zZXJpZiIgZm9udC1zaXplPSIxNCIgbGVuZ3RoQWRqdXN0PSJzcGFjaW5nIiB0ZXh0TGVuZ3RoPSI1NiIgeD0iNTgyIiB5PSIxMDUyLjA5MzgiPiYjMzgxNDQ7JiMyMTgwNjsmIzI1OTY4OyYjMzczMjc7PC90ZXh0Pjx0ZXh0IGZpbGw9IiMwMDAwMDAiIGZvbnQtZmFtaWx5PSJzYW5zLXNlcmlmIiBmb250LXNpemU9IjE0IiBsZW5ndGhBZGp1c3Q9InNwYWNpbmciIHRleHRMZW5ndGg9IjU2IiB4PSI1ODIiIHk9IjEwNjcuMDc4MSI+JiMyNzk4MzsmIzM1MjcyOyYjMjU5Njg7JiMzNzMyNzs8L3RleHQ+PHRleHQgZmlsbD0iIzAwMDAwMCIgZm9udC1mYW1pbHk9InNhbnMtc2VyaWYiIGZvbnQtc2l6ZT0iMTQiIGxlbmd0aEFkanVzdD0ic3BhY2luZyIgdGV4dExlbmd0aD0iNDIiIHg9IjU4MiIgeT0iMTA4Mi4wNjI1Ij4mIzIwMDQ4OyYjMzUyNjY7JiMzODE0NTs8L3RleHQ+PHRleHQgZmlsbD0iIzAwMDAwMCIgZm9udC1mYW1pbHk9InNhbnMtc2VyaWYiIGZvbnQtc2l6ZT0iMTQiIGxlbmd0aEFkanVzdD0ic3BhY2luZyIgdGV4dExlbmd0aD0iNTYiIHg9IjU4MiIgeT0iMTA5Ny4wNDY5Ij4mIzM1ODM4OyYjMzEyNDM7JiMyOTM2NjsmIzI0NTc3OzwvdGV4dD48dGV4dCBmaWxsPSIjMDAwMDAwIiBmb250LWZhbWlseT0ic2Fucy1zZXJpZiIgZm9udC1zaXplPSIxNCIgbGVuZ3RoQWRqdXN0PSJzcGFjaW5nIiB0ZXh0TGVuZ3RoPSI4NCIgeD0iNTgyIiB5PSIxMTEyLjAzMTMiPiYjMzU4Mzg7JiMzMTI0MzsmIzM4NTkwOyYjMjYxMzE7JiMzMTI0MzsmIzI0MjMwOzwvdGV4dD48dGV4dCBmaWxsPSIjMDAwMDAwIiBmb250LWZhbWlseT0ic2Fucy1zZXJpZiIgZm9udC1zaXplPSIxNCIgbGVuZ3RoQWRqdXN0PSJzcGFjaW5nIiB0ZXh0TGVuZ3RoPSI4NCIgeD0iNTgyIiB5PSIxMTI3LjAxNTYiPiYjMjkyMzg7JiMzNTgzODsmIzMxMjQzOyYjMTk5ODc7JiMxOTk5NDtJRDwvdGV4dD48dGV4dCBmaWxsPSIjMDAwMDAwIiBmb250LWZhbWlseT0ic2Fucy1zZXJpZiIgZm9udC1zaXplPSIxNCIgbGVuZ3RoQWRqdXN0PSJzcGFjaW5nIiB0ZXh0TGVuZ3RoPSI1NiIgeD0iNTgyIiB5PSIxMTQyIj4mIzM1ODM4OyYjMzEyNDM7JiMzMTg2NzsmIzIyNDExOzwvdGV4dD48dGV4dCBmaWxsPSIjMDAwMDAwIiBmb250LWZhbWlseT0ic2Fucy1zZXJpZiIgZm9udC1zaXplPSIxNCIgbGVuZ3RoQWRqdXN0PSJzcGFjaW5nIiB0ZXh0TGVuZ3RoPSI1NiIgeD0iNTgyIiB5PSIxMTU2Ljk4NDQiPiYjMzU4Mzg7JiMzMTI0MzsmIzI1NTUxOyYjMzY4NDg7PC90ZXh0Pjx0ZXh0IGZpbGw9IiMwMDAwMDAiIGZvbnQtZmFtaWx5PSJzYW5zLXNlcmlmIiBmb250LXNpemU9IjE0IiBsZW5ndGhBZGp1c3Q9InNwYWNpbmciIHRleHRMZW5ndGg9IjExMiIgeD0iNTgyIiB5PSIxMTcxLjk2ODgiPiYjMzU4Mzg7JiMzMTI0MzsmIzM2MTY0OyYjMjgzMDQ7JiMxOTk3OTsmIzM2NzMzOyYjMjIzMjA7JiMyMjMzNjs8L3RleHQ+PHRleHQgZmlsbD0iIzAwMDAwMCIgZm9udC1mYW1pbHk9InNhbnMtc2VyaWYiIGZvbnQtc2l6ZT0iMTQiIGxlbmd0aEFkanVzdD0ic3BhY2luZyIgdGV4dExlbmd0aD0iNzciIHg9IjU4MiIgeT0iMTE4Ni45NTMxIj4mIzM1ODM4OyYjMzEyNDM7JiMzNjE2NDsmIzI4MzA0O0tleTwvdGV4dD48dGV4dCBmaWxsPSIjMDAwMDAwIiBmb250LWZhbWlseT0ic2Fucy1zZXJpZiIgZm9udC1zaXplPSIxNCIgbGVuZ3RoQWRqdXN0PSJzcGFjaW5nIiB0ZXh0TGVuZ3RoPSI1NiIgeD0iNTgyIiB5PSIxMjAxLjkzNzUiPiYjMjEwMTk7JiMyNDMxNDsmIzI2MTAyOyYjMzgzODg7PC90ZXh0Pjx0ZXh0IGZpbGw9IiMwMDAwMDAiIGZvbnQtZmFtaWx5PSJzYW5zLXNlcmlmIiBmb250LXNpemU9IjE0IiBsZW5ndGhBZGp1c3Q9InNwYWNpbmciIHRleHRMZW5ndGg9IjQyIiB4PSI1ODIiIHk9IjEyMTYuOTIxOSI+JiMyMTAxOTsmIzI0MzE0OyYjMjAxNTQ7PC90ZXh0Pjx0ZXh0IGZpbGw9IiMwMDAwMDAiIGZvbnQtZmFtaWx5PSJzYW5zLXNlcmlmIiBmb250LXNpemU9IjE0IiBsZW5ndGhBZGp1c3Q9InNwYWNpbmciIHRleHRMZW5ndGg9IjQyIiB4PSI1ODIiIHk9IjEyMzEuOTA2MyI+JiMyNjM1NjsmIzI2MDMyOyYjMjAxNTQ7PC90ZXh0Pjx0ZXh0IGZpbGw9IiMwMDAwMDAiIGZvbnQtZmFtaWx5PSJzYW5zLXNlcmlmIiBmb250LXNpemU9IjE0IiBsZW5ndGhBZGp1c3Q9InNwYWNpbmciIHRleHRMZW5ndGg9IjU2IiB4PSI1ODIiIHk9IjEyNDYuODkwNiI+JiMyNjM1NjsmIzI2MDMyOyYjMjYxMDI7JiMzODM4ODs8L3RleHQ+PHRleHQgZmlsbD0iIzAwMDAwMCIgZm9udC1mYW1pbHk9InNhbnMtc2VyaWYiIGZvbnQtc2l6ZT0iMTQiIGxlbmd0aEFkanVzdD0ic3BhY2luZyIgdGV4dExlbmd0aD0iNTYiIHg9IjU4MiIgeT0iMTI2MS44NzUiPiYjMzU4Mzg7JiMzMTI0MzsmIzIyNzkxOyYjMjc4ODA7PC90ZXh0Pjx0ZXh0IGZpbGw9IiMwMDAwMDAiIGZvbnQtZmFtaWx5PSJzYW5zLXNlcmlmIiBmb250LXNpemU9IjE0IiBsZW5ndGhBZGp1c3Q9InNwYWNpbmciIHRleHRMZW5ndGg9IjU2IiB4PSI1ODIiIHk9IjEyNzYuODU5NCI+JiMzNjkyMzsmIzM2NzUzOyYjMjEwMjQ7JiMzODUwMDs8L3RleHQ+PGxpbmUgc3R5bGU9InN0cm9rZTojMTgxODE4O3N0cm9rZS13aWR0aDowLjU7IiB4MT0iNTYzIiB4Mj0iNjk5IiB5MT0iMTI4Mi42MDk0IiB5Mj0iMTI4Mi42MDk0Ii8+PC9nPjwhLS1jbGFzcyBEYWlseUluY29tZS0tPjxnIGlkPSJlbGVtX0RhaWx5SW5jb21lIj48cmVjdCBjb2RlTGluZT0iNzIiIGZpbGw9IiNGMUYxRjEiIGhlaWdodD0iMTUyLjg5MDYiIGlkPSJEYWlseUluY29tZSIgcng9IjIuNSIgcnk9IjIuNSIgc3R5bGU9InN0cm9rZTojMTgxODE4O3N0cm9rZS13aWR0aDowLjU7IiB3aWR0aD0iMjAwIiB4PSI4NzkiIHk9IjEwMDMiLz48ZWxsaXBzZSBjeD0iODk0IiBjeT0iMTAxOSIgZmlsbD0iI0FERDFCMiIgcng9IjExIiByeT0iMTEiIHN0eWxlPSJzdHJva2U6IzE4MTgxODtzdHJva2Utd2lkdGg6MS4wOyIvPjxwYXRoIGQ9Ik04OTcuNjI1LDEwMjUgTDg5Ny42MjUsMTAyMy4yNSBMODkyLjMxMjUsMTAyMy4yNSBRODkyLjMxMjUsMTAyMy4yNSA4OTIuMzEyNSwxMDE5LjY4NzUgTDg5Ni41NjI1LDEwMTkuNjg3NSBMODk2LjU2MjUsMTAxNy45Mzc1IEw4OTIuMzEyNSwxMDE3LjkzNzUgTDg5Mi4zMTI1LDEwMTUuNDM3NSBMODk3LjYyNSwxMDE1LjQzNzUgTDg5Ny42MjUsMTAxMy42ODc1IEw4OTAuNTYyNSwxMDEzLjY4NzUgUTg5MC41NjI1LDEwMTMuNjg3NSA4OTAuNTYyNSwxMDI1IEw4OTcuNjI1LDEwMjUgWiAiIGZpbGw9IiMwMDAwMDAiLz48dGV4dCBmaWxsPSIjMDAwMDAwIiBmb250LWZhbWlseT0ic2Fucy1zZXJpZiIgZm9udC1zaXplPSIxNCIgbGVuZ3RoQWRqdXN0PSJzcGFjaW5nIiB0ZXh0TGVuZ3RoPSIxNjgiIHg9IjkwOCIgeT0iMTAyNC43NDIyIj4mIzI3NTk5OyYjMjYwODU7JiMzNTc2MjsmIzI0MDcyOyYjMjU5MTA7JiMzMDQxMDsmIzIxNjQ0OyYjMzU3NDY7JiMyMTMzMzsmIzMyNDc5OyYjMzU3NDU7JiMzNDkyMDs8L3RleHQ+PGxpbmUgc3R5bGU9InN0cm9rZTojMTgxODE4O3N0cm9rZS13aWR0aDowLjU7IiB4MT0iODgwIiB4Mj0iMTA3OCIgeTE9IjEwMzUiIHkyPSIxMDM1Ii8+PGVsbGlwc2UgY3g9Ijg5MCIgY3k9IjEwNDcuOTkyMiIgZmlsbD0ibm9uZSIgcng9IjMiIHJ5PSIzIiBzdHlsZT0ic3Ryb2tlOiMwMzgwNDg7c3Ryb2tlLXdpZHRoOjEuMDsiLz48dGV4dCBmaWxsPSIjMDAwMDAwIiBmb250LWZhbWlseT0ic2Fucy1zZXJpZiIgZm9udC1zaXplPSIxNCIgbGVuZ3RoQWRqdXN0PSJzcGFjaW5nIiB0ZXh0TGVuZ3RoPSI0MiIgeD0iODk5IiB5PSIxMDUyLjIzNDQiPiYjMzMyNTg7JiMyMjY4NjtJRDwvdGV4dD48dGV4dCBmaWxsPSIjMDAwMDAwIiBmb250LWZhbWlseT0ic2Fucy1zZXJpZiIgZm9udC1zaXplPSIxNCIgbGVuZ3RoQWRqdXN0PSJzcGFjaW5nIiB0ZXh0TGVuZ3RoPSI1NiIgeD0iODk5IiB5PSIxMDY3LjIxODgiPiYjMjEwMTk7JiMyNDMxNDsmIzI2MDg1OyYjMjYzOTk7PC90ZXh0Pjx0ZXh0IGZpbGw9IiMwMDAwMDAiIGZvbnQtZmFtaWx5PSJzYW5zLXNlcmlmIiBmb250LXNpemU9IjE0IiBsZW5ndGhBZGp1c3Q9InNwYWNpbmciIHRleHRMZW5ndGg9IjI4IiB4PSI4OTkiIHk9IjEwODIuMjAzMSI+JiMyNjA4NTsmIzI2Mzk5OzwvdGV4dD48dGV4dCBmaWxsPSIjMDAwMDAwIiBmb250LWZhbWlseT0ic2Fucy1zZXJpZiIgZm9udC1zaXplPSIxNCIgbGVuZ3RoQWRqdXN0PSJzcGFjaW5nIiB0ZXh0TGVuZ3RoPSI1NiIgeD0iODk5IiB5PSIxMDk3LjE4NzUiPiYjMjU5MTA7JiMyMDgzNzsmIzM3MzI5OyYjMzkwNjk7PC90ZXh0Pjx0ZXh0IGZpbGw9IiMwMDAwMDAiIGZvbnQtZmFtaWx5PSJzYW5zLXNlcmlmIiBmb250LXNpemU9IjE0IiBsZW5ndGhBZGp1c3Q9InNwYWNpbmciIHRleHRMZW5ndGg9IjU2IiB4PSI4OTkiIHk9IjExMTIuMTcxOSI+JiMzNTc0NjsmIzIxMzMzOyYjMjU5Njg7JiMzNzMyNzs8L3RleHQ+PHRleHQgZmlsbD0iIzAwMDAwMCIgZm9udC1mYW1pbHk9InNhbnMtc2VyaWYiIGZvbnQtc2l6ZT0iMTQiIGxlbmd0aEFkanVzdD0ic3BhY2luZyIgdGV4dExlbmd0aD0iMjgiIHg9Ijg5OSIgeT0iMTEyNy4xNTYzIj4mIzIyODI1OyYjMjE0OTU7PC90ZXh0Pjx0ZXh0IGZpbGw9IiMwMDAwMDAiIGZvbnQtZmFtaWx5PSJzYW5zLXNlcmlmIiBmb250LXNpemU9IjE0IiBsZW5ndGhBZGp1c3Q9InNwYWNpbmciIHRleHRMZW5ndGg9IjQyIiB4PSI4OTkiIHk9IjExNDIuMTQwNiI+JiMzNTc2MjsmIzI0MDcyO0lEPC90ZXh0PjxsaW5lIHN0eWxlPSJzdHJva2U6IzE4MTgxODtzdHJva2Utd2lkdGg6MC41OyIgeDE9Ijg4MCIgeDI9IjEwNzgiIHkxPSIxMTQ3Ljg5MDYiIHkyPSIxMTQ3Ljg5MDYiLz48L2c+PCEtLWNsYXNzIFRyYW5zYWN0aW9uLS0+PGcgaWQ9ImVsZW1fVHJhbnNhY3Rpb24iPjxyZWN0IGNvZGVMaW5lPSI4MiIgZmlsbD0iI0YxRjFGMSIgaGVpZ2h0PSIzMDIuNzM0NCIgaWQ9IlRyYW5zYWN0aW9uIiByeD0iMi41IiByeT0iMi41IiBzdHlsZT0ic3Ryb2tlOiMxODE4MTg7c3Ryb2tlLXdpZHRoOjAuNTsiIHdpZHRoPSIxMzAiIHg9IjgwMSIgeT0iNDY3LjUiLz48ZWxsaXBzZSBjeD0iODE2IiBjeT0iNDgzLjUiIGZpbGw9IiNBREQxQjIiIHJ4PSIxMSIgcnk9IjExIiBzdHlsZT0ic3Ryb2tlOiMxODE4MTg7c3Ryb2tlLXdpZHRoOjEuMDsiLz48cGF0aCBkPSJNODE5LjYyNSw0ODkuNSBMODE5LjYyNSw0ODcuNzUgTDgxNC4zMTI1LDQ4Ny43NSBRODE0LjMxMjUsNDg3Ljc1IDgxNC4zMTI1LDQ4NC4xODc1IEw4MTguNTYyNSw0ODQuMTg3NSBMODE4LjU2MjUsNDgyLjQzNzUgTDgxNC4zMTI1LDQ4Mi40Mzc1IEw4MTQuMzEyNSw0NzkuOTM3NSBMODE5LjYyNSw0NzkuOTM3NSBMODE5LjYyNSw0NzguMTg3NSBMODEyLjU2MjUsNDc4LjE4NzUgUTgxMi41NjI1LDQ3OC4xODc1IDgxMi41NjI1LDQ4OS41IEw4MTkuNjI1LDQ4OS41IFogIiBmaWxsPSIjMDAwMDAwIi8+PHRleHQgZmlsbD0iIzAwMDAwMCIgZm9udC1mYW1pbHk9InNhbnMtc2VyaWYiIGZvbnQtc2l6ZT0iMTQiIGxlbmd0aEFkanVzdD0ic3BhY2luZyIgdGV4dExlbmd0aD0iOTgiIHg9IjgzMCIgeT0iNDg5LjI0MjIiPiYjMjUxMDQ7JiMyMDEzMjsmIzM3MzI5OyYjMzkwNjk7JiMyNzcxOTsmIzI0NjM1OyYjMzQ5MjA7PC90ZXh0PjxsaW5lIHN0eWxlPSJzdHJva2U6IzE4MTgxODtzdHJva2Utd2lkdGg6MC41OyIgeDE9IjgwMiIgeDI9IjkzMCIgeTE9IjQ5OS41IiB5Mj0iNDk5LjUiLz48ZWxsaXBzZSBjeD0iODEyIiBjeT0iNTEyLjQ5MjIiIGZpbGw9Im5vbmUiIHJ4PSIzIiByeT0iMyIgc3R5bGU9InN0cm9rZTojMDM4MDQ4O3N0cm9rZS13aWR0aDoxLjA7Ii8+PHRleHQgZmlsbD0iIzAwMDAwMCIgZm9udC1mYW1pbHk9InNhbnMtc2VyaWYiIGZvbnQtc2l6ZT0iMTQiIGxlbmd0aEFkanVzdD0ic3BhY2luZyIgdGV4dExlbmd0aD0iNDIiIHg9IjgyMSIgeT0iNTE2LjczNDQiPiYjMzMyNTg7JiMyMjY4NjtJRDwvdGV4dD48dGV4dCBmaWxsPSIjMDAwMDAwIiBmb250LWZhbWlseT0ic2Fucy1zZXJpZiIgZm9udC1zaXplPSIxNCIgbGVuZ3RoQWRqdXN0PSJzcGFjaW5nIiB0ZXh0TGVuZ3RoPSI1NiIgeD0iODIxIiB5PSI1MzEuNzE4OCI+JiMzNTc0NjsmIzIxMzMzOyYjMzI1MzQ7JiMyMTQ5NTs8L3RleHQ+PHRleHQgZmlsbD0iIzAwMDAwMCIgZm9udC1mYW1pbHk9InNhbnMtc2VyaWYiIGZvbnQtc2l6ZT0iMTQiIGxlbmd0aEFkanVzdD0ic3BhY2luZyIgdGV4dExlbmd0aD0iNDIiIHg9IjgyMSIgeT0iNTQ2LjcwMzEiPiYjMjAyNTA7JiMyMTU5MjtJRDwvdGV4dD48dGV4dCBmaWxsPSIjMDAwMDAwIiBmb250LWZhbWlseT0ic2Fucy1zZXJpZiIgZm9udC1zaXplPSIxNCIgbGVuZ3RoQWRqdXN0PSJzcGFjaW5nIiB0ZXh0TGVuZ3RoPSI1NiIgeD0iODIxIiB5PSI1NjEuNjg3NSI+JiMyNTEwNDsmIzIwMTMyOyYjMzczMjk7JiMzOTA2OTs8L3RleHQ+PHRleHQgZmlsbD0iIzAwMDAwMCIgZm9udC1mYW1pbHk9InNhbnMtc2VyaWYiIGZvbnQtc2l6ZT0iMTQiIGxlbmd0aEFkanVzdD0ic3BhY2luZyIgdGV4dExlbmd0aD0iNTYiIHg9IjgyMSIgeT0iNTc2LjY3MTkiPiYjMzYxNDE7JiMyMDA4MDsmIzMxODY3OyYjMjI0MTE7PC90ZXh0Pjx0ZXh0IGZpbGw9IiMwMDAwMDAiIGZvbnQtZmFtaWx5PSJzYW5zLXNlcmlmIiBmb250LXNpemU9IjE0IiBsZW5ndGhBZGp1c3Q9InNwYWNpbmciIHRleHRMZW5ndGg9IjU2IiB4PSI4MjEiIHk9IjU5MS42NTYzIj4mIzI1OTAzOyYjMjAxODQ7JiMyODE5MjsmIzM2OTQ3OzwvdGV4dD48dGV4dCBmaWxsPSIjMDAwMDAwIiBmb250LWZhbWlseT0ic2Fucy1zZXJpZiIgZm9udC1zaXplPSIxNCIgbGVuZ3RoQWRqdXN0PSJzcGFjaW5nIiB0ZXh0TGVuZ3RoPSI3MCIgeD0iODIxIiB5PSI2MDYuNjQwNiI+JiMyMjI2OTsmIzIzNDc4OyYjMjUxMTA7JiMyMjMyMDsmIzIxMzA2OzwvdGV4dD48dGV4dCBmaWxsPSIjMDAwMDAwIiBmb250LWZhbWlseT0ic2Fucy1zZXJpZiIgZm9udC1zaXplPSIxNCIgbGVuZ3RoQWRqdXN0PSJzcGFjaW5nIiB0ZXh0TGVuZ3RoPSIyOCIgeD0iODIxIiB5PSI2MjEuNjI1Ij4mIzIxMzA2OyYjMjI0OTU7PC90ZXh0Pjx0ZXh0IGZpbGw9IiMwMDAwMDAiIGZvbnQtZmFtaWx5PSJzYW5zLXNlcmlmIiBmb250LXNpemU9IjE0IiBsZW5ndGhBZGp1c3Q9InNwYWNpbmciIHRleHRMZW5ndGg9IjU2IiB4PSI4MjEiIHk9IjYzNi42MDk0Ij4mIzI1MTUyOyYjMjM2NDY7JiMzMDQ2NTsmIzIwMjIxOzwvdGV4dD48dGV4dCBmaWxsPSIjMDAwMDAwIiBmb250LWZhbWlseT0ic2Fucy1zZXJpZiIgZm9udC1zaXplPSIxNCIgbGVuZ3RoQWRqdXN0PSJzcGFjaW5nIiB0ZXh0TGVuZ3RoPSIyOCIgeD0iODIxIiB5PSI2NTEuNTkzOCI+JiMyMjQ3ODsmIzI0MDY2OzwvdGV4dD48dGV4dCBmaWxsPSIjMDAwMDAwIiBmb250LWZhbWlseT0ic2Fucy1zZXJpZiIgZm9udC1zaXplPSIxNCIgbGVuZ3RoQWRqdXN0PSJzcGFjaW5nIiB0ZXh0TGVuZ3RoPSI5OCIgeD0iODIxIiB5PSI2NjYuNTc4MSI+JiMzMjU5MzsmIzMyNDc2OyYjMjYzODE7JiMyMTE1MzsmIzI1NTUyOyYjMjAzNzk7JiMyMTgzMDs8L3RleHQ+PHRleHQgZmlsbD0iIzAwMDAwMCIgZm9udC1mYW1pbHk9InNhbnMtc2VyaWYiIGZvbnQtc2l6ZT0iMTQiIGxlbmd0aEFkanVzdD0ic3BhY2luZyIgdGV4dExlbmd0aD0iNTYiIHg9IjgyMSIgeT0iNjgxLjU2MjUiPiYjMjEwMTk7JiMyNDMxNDsmIzI2MTAyOyYjMzgzODg7PC90ZXh0Pjx0ZXh0IGZpbGw9IiMwMDAwMDAiIGZvbnQtZmFtaWx5PSJzYW5zLXNlcmlmIiBmb250LXNpemU9IjE0IiBsZW5ndGhBZGp1c3Q9InNwYWNpbmciIHRleHRMZW5ndGg9IjQyIiB4PSI4MjEiIHk9IjY5Ni41NDY5Ij4mIzIxMDE5OyYjMjQzMTQ7JiMyMDE1NDs8L3RleHQ+PHRleHQgZmlsbD0iIzAwMDAwMCIgZm9udC1mYW1pbHk9InNhbnMtc2VyaWYiIGZvbnQtc2l6ZT0iMTQiIGxlbmd0aEFkanVzdD0ic3BhY2luZyIgdGV4dExlbmd0aD0iNTYiIHg9IjgyMSIgeT0iNzExLjUzMTMiPiYjMjYzNTY7JiMyNjAzMjsmIzI2MTAyOyYjMzgzODg7PC90ZXh0Pjx0ZXh0IGZpbGw9IiMwMDAwMDAiIGZvbnQtZmFtaWx5PSJzYW5zLXNlcmlmIiBmb250LXNpemU9IjE0IiBsZW5ndGhBZGp1c3Q9InNwYWNpbmciIHRleHRMZW5ndGg9IjQyIiB4PSI4MjEiIHk9IjcyNi41MTU2Ij4mIzI2MzU2OyYjMjYwMzI7JiMyMDE1NDs8L3RleHQ+PHRleHQgZmlsbD0iIzAwMDAwMCIgZm9udC1mYW1pbHk9InNhbnMtc2VyaWYiIGZvbnQtc2l6ZT0iMTQiIGxlbmd0aEFkanVzdD0ic3BhY2luZyIgdGV4dExlbmd0aD0iNTYiIHg9IjgyMSIgeT0iNzQxLjUiPiYjMzY5MjM7JiMzNjc1MzsmIzIxMDI0OyYjMzg1MDA7PC90ZXh0Pjx0ZXh0IGZpbGw9IiMwMDAwMDAiIGZvbnQtZmFtaWx5PSJzYW5zLXNlcmlmIiBmb250LXNpemU9IjE0IiBsZW5ndGhBZGp1c3Q9InNwYWNpbmciIHRleHRMZW5ndGg9IjI4IiB4PSI4MjEiIHk9Ijc1Ni40ODQ0Ij4mIzIyNzkxOyYjMjc4ODA7PC90ZXh0PjxsaW5lIHN0eWxlPSJzdHJva2U6IzE4MTgxODtzdHJva2Utd2lkdGg6MC41OyIgeDE9IjgwMiIgeDI9IjkzMCIgeTE9Ijc2Mi4yMzQ0IiB5Mj0iNzYyLjIzNDQiLz48L2c+PCEtLWNsYXNzIEVudlBhcmFtcy0tPjxnIGlkPSJlbGVtX0VudlBhcmFtcyI+PHJlY3QgY29kZUxpbmU9IjEwMiIgZmlsbD0iI0YxRjFGMSIgaGVpZ2h0PSIxOTcuODQzOCIgaWQ9IkVudlBhcmFtcyIgcng9IjIuNSIgcnk9IjIuNSIgc3R5bGU9InN0cm9rZTojMTgxODE4O3N0cm9rZS13aWR0aDowLjU7IiB3aWR0aD0iMTAyIiB4PSIxNTgiIHk9Ijg5LjUiLz48ZWxsaXBzZSBjeD0iMTczIiBjeT0iMTA1LjUiIGZpbGw9IiNBREQxQjIiIHJ4PSIxMSIgcnk9IjExIiBzdHlsZT0ic3Ryb2tlOiMxODE4MTg7c3Ryb2tlLXdpZHRoOjEuMDsiLz48cGF0aCBkPSJNMTc2LjYyNSwxMTEuNSBMMTc2LjYyNSwxMDkuNzUgTDE3MS4zMTI1LDEwOS43NSBRMTcxLjMxMjUsMTA5Ljc1IDE3MS4zMTI1LDEwNi4xODc1IEwxNzUuNTYyNSwxMDYuMTg3NSBMMTc1LjU2MjUsMTA0LjQzNzUgTDE3MS4zMTI1LDEwNC40Mzc1IEwxNzEuMzEyNSwxMDEuOTM3NSBMMTc2LjYyNSwxMDEuOTM3NSBMMTc2LjYyNSwxMDAuMTg3NSBMMTY5LjU2MjUsMTAwLjE4NzUgUTE2OS41NjI1LDEwMC4xODc1IDE2OS41NjI1LDExMS41IEwxNzYuNjI1LDExMS41IFogIiBmaWxsPSIjMDAwMDAwIi8+PHRleHQgZmlsbD0iIzAwMDAwMCIgZm9udC1mYW1pbHk9InNhbnMtc2VyaWYiIGZvbnQtc2l6ZT0iMTQiIGxlbmd0aEFkanVzdD0ic3BhY2luZyIgdGV4dExlbmd0aD0iNzAiIHg9IjE4NyIgeT0iMTExLjI0MjIiPiYjMjk2MTU7JiMyMjY1OTsmIzIxNDQyOyYjMjU5Njg7JiMzNDkyMDs8L3RleHQ+PGxpbmUgc3R5bGU9InN0cm9rZTojMTgxODE4O3N0cm9rZS13aWR0aDowLjU7IiB4MT0iMTU5IiB4Mj0iMjU5IiB5MT0iMTIxLjUiIHkyPSIxMjEuNSIvPjxlbGxpcHNlIGN4PSIxNjkiIGN5PSIxMzQuNDkyMiIgZmlsbD0ibm9uZSIgcng9IjMiIHJ5PSIzIiBzdHlsZT0ic3Ryb2tlOiMwMzgwNDg7c3Ryb2tlLXdpZHRoOjEuMDsiLz48dGV4dCBmaWxsPSIjMDAwMDAwIiBmb250LWZhbWlseT0ic2Fucy1zZXJpZiIgZm9udC1zaXplPSIxNCIgbGVuZ3RoQWRqdXN0PSJzcGFjaW5nIiB0ZXh0TGVuZ3RoPSI0MiIgeD0iMTc4IiB5PSIxMzguNzM0NCI+JiMzMzI1ODsmIzIyNjg2O0lEPC90ZXh0Pjx0ZXh0IGZpbGw9IiMwMDAwMDAiIGZvbnQtZmFtaWx5PSJzYW5zLXNlcmlmIiBmb250LXNpemU9IjE0IiBsZW5ndGhBZGp1c3Q9InNwYWNpbmciIHRleHRMZW5ndGg9IjU2IiB4PSIxNzgiIHk9IjE1My43MTg4Ij4mIzIxNDQyOyYjMjU5Njg7JiMyMTUxNzsmIzMxMjE2OzwvdGV4dD48dGV4dCBmaWxsPSIjMDAwMDAwIiBmb250LWZhbWlseT0ic2Fucy1zZXJpZiIgZm9udC1zaXplPSIxNCIgbGVuZ3RoQWRqdXN0PSJzcGFjaW5nIiB0ZXh0TGVuZ3RoPSI0MiIgeD0iMTc4IiB5PSIxNjguNzAzMSI+JiMyMTQ0MjsmIzI1OTY4OyYjMjA1NDA7PC90ZXh0Pjx0ZXh0IGZpbGw9IiMwMDAwMDAiIGZvbnQtZmFtaWx5PSJzYW5zLXNlcmlmIiBmb250LXNpemU9IjE0IiBsZW5ndGhBZGp1c3Q9InNwYWNpbmciIHRleHRMZW5ndGg9IjQyIiB4PSIxNzgiIHk9IjE4My42ODc1Ij4mIzM1ODM4OyYjMzEyNDM7SUQ8L3RleHQ+PHRleHQgZmlsbD0iIzAwMDAwMCIgZm9udC1mYW1pbHk9InNhbnMtc2VyaWYiIGZvbnQtc2l6ZT0iMTQiIGxlbmd0aEFkanVzdD0ic3BhY2luZyIgdGV4dExlbmd0aD0iNTYiIHg9IjE3OCIgeT0iMTk4LjY3MTkiPiYjMjEwMTk7JiMyNDMxNDsmIzI2MTAyOyYjMzgzODg7PC90ZXh0Pjx0ZXh0IGZpbGw9IiMwMDAwMDAiIGZvbnQtZmFtaWx5PSJzYW5zLXNlcmlmIiBmb250LXNpemU9IjE0IiBsZW5ndGhBZGp1c3Q9InNwYWNpbmciIHRleHRMZW5ndGg9IjQyIiB4PSIxNzgiIHk9IjIxMy42NTYzIj4mIzIxMDE5OyYjMjQzMTQ7JiMyMDE1NDs8L3RleHQ+PHRleHQgZmlsbD0iIzAwMDAwMCIgZm9udC1mYW1pbHk9InNhbnMtc2VyaWYiIGZvbnQtc2l6ZT0iMTQiIGxlbmd0aEFkanVzdD0ic3BhY2luZyIgdGV4dExlbmd0aD0iNTYiIHg9IjE3OCIgeT0iMjI4LjY0MDYiPiYjMjYzNTY7JiMyNjAzMjsmIzI2MTAyOyYjMzgzODg7PC90ZXh0Pjx0ZXh0IGZpbGw9IiMwMDAwMDAiIGZvbnQtZmFtaWx5PSJzYW5zLXNlcmlmIiBmb250LXNpemU9IjE0IiBsZW5ndGhBZGp1c3Q9InNwYWNpbmciIHRleHRMZW5ndGg9IjQyIiB4PSIxNzgiIHk9IjI0My42MjUiPiYjMjYzNTY7JiMyNjAzMjsmIzIwMTU0OzwvdGV4dD48dGV4dCBmaWxsPSIjMDAwMDAwIiBmb250LWZhbWlseT0ic2Fucy1zZXJpZiIgZm9udC1zaXplPSIxNCIgbGVuZ3RoQWRqdXN0PSJzcGFjaW5nIiB0ZXh0TGVuZ3RoPSI1NiIgeD0iMTc4IiB5PSIyNTguNjA5NCI+JiMzNjkyMzsmIzM2NzUzOyYjMjEwMjQ7JiMzODUwMDs8L3RleHQ+PHRleHQgZmlsbD0iIzAwMDAwMCIgZm9udC1mYW1pbHk9InNhbnMtc2VyaWYiIGZvbnQtc2l6ZT0iMTQiIGxlbmd0aEFkanVzdD0ic3BhY2luZyIgdGV4dExlbmd0aD0iMjgiIHg9IjE3OCIgeT0iMjczLjU5MzgiPiYjMjI3OTE7JiMyNzg4MDs8L3RleHQ+PGxpbmUgc3R5bGU9InN0cm9rZTojMTgxODE4O3N0cm9rZS13aWR0aDowLjU7IiB4MT0iMTU5IiB4Mj0iMjU5IiB5MT0iMjc5LjM0MzgiIHkyPSIyNzkuMzQzOCIvPjwvZz48IS0tY2xhc3MgVGVhY2hlckluY29tZS0tPjxnIGlkPSJlbGVtX1RlYWNoZXJJbmNvbWUiPjxyZWN0IGNvZGVMaW5lPSIxMTUiIGZpbGw9IiNGMUYxRjEiIGhlaWdodD0iMjQyLjc5NjkiIGlkPSJUZWFjaGVySW5jb21lIiByeD0iMi41IiByeT0iMi41IiBzdHlsZT0ic3Ryb2tlOiMxODE4MTg7c3Ryb2tlLXdpZHRoOjAuNTsiIHdpZHRoPSIxMzAiIHg9IjQ0MyIgeT0iNDk3LjUiLz48ZWxsaXBzZSBjeD0iNDU4IiBjeT0iNTEzLjUiIGZpbGw9IiNBREQxQjIiIHJ4PSIxMSIgcnk9IjExIiBzdHlsZT0ic3Ryb2tlOiMxODE4MTg7c3Ryb2tlLXdpZHRoOjEuMDsiLz48cGF0aCBkPSJNNDYxLjYyNSw1MTkuNSBMNDYxLjYyNSw1MTcuNzUgTDQ1Ni4zMTI1LDUxNy43NSBRNDU2LjMxMjUsNTE3Ljc1IDQ1Ni4zMTI1LDUxNC4xODc1IEw0NjAuNTYyNSw1MTQuMTg3NSBMNDYwLjU2MjUsNTEyLjQzNzUgTDQ1Ni4zMTI1LDUxMi40Mzc1IEw0NTYuMzEyNSw1MDkuOTM3NSBMNDYxLjYyNSw1MDkuOTM3NSBMNDYxLjYyNSw1MDguMTg3NSBMNDU0LjU2MjUsNTA4LjE4NzUgUTQ1NC41NjI1LDUwOC4xODc1IDQ1NC41NjI1LDUxOS41IEw0NjEuNjI1LDUxOS41IFogIiBmaWxsPSIjMDAwMDAwIi8+PHRleHQgZmlsbD0iIzAwMDAwMCIgZm9udC1mYW1pbHk9InNhbnMtc2VyaWYiIGZvbnQtc2l6ZT0iMTQiIGxlbmd0aEFkanVzdD0ic3BhY2luZyIgdGV4dExlbmd0aD0iOTgiIHg9IjQ3MiIgeT0iNTE5LjI0MjIiPiYjMzU3NjI7JiMyNDA3MjsmIzI1OTEwOyYjMzA0MTA7JiMzNTc2MDsmIzI0NDA1OyYjMzQ5MjA7PC90ZXh0PjxsaW5lIHN0eWxlPSJzdHJva2U6IzE4MTgxODtzdHJva2Utd2lkdGg6MC41OyIgeDE9IjQ0NCIgeDI9IjU3MiIgeTE9IjUyOS41IiB5Mj0iNTI5LjUiLz48ZWxsaXBzZSBjeD0iNDU0IiBjeT0iNTQyLjQ5MjIiIGZpbGw9Im5vbmUiIHJ4PSIzIiByeT0iMyIgc3R5bGU9InN0cm9rZTojMDM4MDQ4O3N0cm9rZS13aWR0aDoxLjA7Ii8+PHRleHQgZmlsbD0iIzAwMDAwMCIgZm9udC1mYW1pbHk9InNhbnMtc2VyaWYiIGZvbnQtc2l6ZT0iMTQiIGxlbmd0aEFkanVzdD0ic3BhY2luZyIgdGV4dExlbmd0aD0iNDIiIHg9IjQ2MyIgeT0iNTQ2LjczNDQiPiYjMzMyNTg7JiMyMjY4NjtJRDwvdGV4dD48dGV4dCBmaWxsPSIjMDAwMDAwIiBmb250LWZhbWlseT0ic2Fucy1zZXJpZiIgZm9udC1zaXplPSIxNCIgbGVuZ3RoQWRqdXN0PSJzcGFjaW5nIiB0ZXh0TGVuZ3RoPSI1NiIgeD0iNDYzIiB5PSI1NjEuNzE4OCI+JiMzNjE0MTsmIzIwMDgwOyYjMzI3NzM7SUQ8L3RleHQ+PHRleHQgZmlsbD0iIzAwMDAwMCIgZm9udC1mYW1pbHk9InNhbnMtc2VyaWYiIGZvbnQtc2l6ZT0iMTQiIGxlbmd0aEFkanVzdD0ic3BhY2luZyIgdGV4dExlbmd0aD0iNDIiIHg9IjQ2MyIgeT0iNTc2LjcwMzEiPiYjMzU3NjI7JiMyNDA3MjtJRDwvdGV4dD48dGV4dCBmaWxsPSIjMDAwMDAwIiBmb250LWZhbWlseT0ic2Fucy1zZXJpZiIgZm9udC1zaXplPSIxNCIgbGVuZ3RoQWRqdXN0PSJzcGFjaW5nIiB0ZXh0TGVuZ3RoPSI1NiIgeD0iNDYzIiB5PSI1OTEuNjg3NSI+JiMzNTc0NjsmIzIxMzMzOyYjMzI1MzQ7JiMyMTQ5NTs8L3RleHQ+PHRleHQgZmlsbD0iIzAwMDAwMCIgZm9udC1mYW1pbHk9InNhbnMtc2VyaWYiIGZvbnQtc2l6ZT0iMTQiIGxlbmd0aEFkanVzdD0ic3BhY2luZyIgdGV4dExlbmd0aD0iNDIiIHg9IjQ2MyIgeT0iNjA2LjY3MTkiPiYjMzU4Mzg7JiMzMTI0MztJRDwvdGV4dD48dGV4dCBmaWxsPSIjMDAwMDAwIiBmb250LWZhbWlseT0ic2Fucy1zZXJpZiIgZm9udC1zaXplPSIxNCIgbGVuZ3RoQWRqdXN0PSJzcGFjaW5nIiB0ZXh0TGVuZ3RoPSI1NiIgeD0iNDYzIiB5PSI2MjEuNjU2MyI+JiMzNTgzODsmIzMxMjQzOyYjMjAyMTU7JiMyNjY4NDs8L3RleHQ+PHRleHQgZmlsbD0iIzAwMDAwMCIgZm9udC1mYW1pbHk9InNhbnMtc2VyaWYiIGZvbnQtc2l6ZT0iMTQiIGxlbmd0aEFkanVzdD0ic3BhY2luZyIgdGV4dExlbmd0aD0iNTYiIHg9IjQ2MyIgeT0iNjM2LjY0MDYiPiYjMzU4Mzg7JiMzMTI0MzsmIzI1OTEwOyYjMzA0MTA7PC90ZXh0Pjx0ZXh0IGZpbGw9IiMwMDAwMDAiIGZvbnQtZmFtaWx5PSJzYW5zLXNlcmlmIiBmb250LXNpemU9IjE0IiBsZW5ndGhBZGp1c3Q9InNwYWNpbmciIHRleHRMZW5ndGg9IjU2IiB4PSI0NjMiIHk9IjY1MS42MjUiPiYjMjEwMTk7JiMyNDMxNDsmIzI2MTAyOyYjMzgzODg7PC90ZXh0Pjx0ZXh0IGZpbGw9IiMwMDAwMDAiIGZvbnQtZmFtaWx5PSJzYW5zLXNlcmlmIiBmb250LXNpemU9IjE0IiBsZW5ndGhBZGp1c3Q9InNwYWNpbmciIHRleHRMZW5ndGg9IjQyIiB4PSI0NjMiIHk9IjY2Ni42MDk0Ij4mIzIxMDE5OyYjMjQzMTQ7JiMyMDE1NDs8L3RleHQ+PHRleHQgZmlsbD0iIzAwMDAwMCIgZm9udC1mYW1pbHk9InNhbnMtc2VyaWYiIGZvbnQtc2l6ZT0iMTQiIGxlbmd0aEFkanVzdD0ic3BhY2luZyIgdGV4dExlbmd0aD0iNDIiIHg9IjQ2MyIgeT0iNjgxLjU5MzgiPiYjMjYzNTY7JiMyNjAzMjsmIzIwMTU0OzwvdGV4dD48dGV4dCBmaWxsPSIjMDAwMDAwIiBmb250LWZhbWlseT0ic2Fucy1zZXJpZiIgZm9udC1zaXplPSIxNCIgbGVuZ3RoQWRqdXN0PSJzcGFjaW5nIiB0ZXh0TGVuZ3RoPSI1NiIgeD0iNDYzIiB5PSI2OTYuNTc4MSI+JiMyNjM1NjsmIzI2MDMyOyYjMjYxMDI7JiMzODM4ODs8L3RleHQ+PHRleHQgZmlsbD0iIzAwMDAwMCIgZm9udC1mYW1pbHk9InNhbnMtc2VyaWYiIGZvbnQtc2l6ZT0iMTQiIGxlbmd0aEFkanVzdD0ic3BhY2luZyIgdGV4dExlbmd0aD0iNTYiIHg9IjQ2MyIgeT0iNzExLjU2MjUiPiYjMzY5MjM7JiMzNjc1MzsmIzIxMDI0OyYjMzg1MDA7PC90ZXh0Pjx0ZXh0IGZpbGw9IiMwMDAwMDAiIGZvbnQtZmFtaWx5PSJzYW5zLXNlcmlmIiBmb250LXNpemU9IjE0IiBsZW5ndGhBZGp1c3Q9InNwYWNpbmciIHRleHRMZW5ndGg9IjI4IiB4PSI0NjMiIHk9IjcyNi41NDY5Ij4mIzIyNzkxOyYjMjc4ODA7PC90ZXh0PjxsaW5lIHN0eWxlPSJzdHJva2U6IzE4MTgxODtzdHJva2Utd2lkdGg6MC41OyIgeDE9IjQ0NCIgeDI9IjU3MiIgeTE9IjczMi4yOTY5IiB5Mj0iNzMyLjI5NjkiLz48L2c+PCEtLWNsYXNzIEtleXdvcmRzLS0+PGcgaWQ9ImVsZW1fS2V5d29yZHMiPjxyZWN0IGNvZGVMaW5lPSIxMzEiIGZpbGw9IiNGMUYxRjEiIGhlaWdodD0iMTgyLjg1OTQiIGlkPSJLZXl3b3JkcyIgcng9IjIuNSIgcnk9IjIuNSIgc3R5bGU9InN0cm9rZTojMTgxODE4O3N0cm9rZS13aWR0aDowLjU7IiB3aWR0aD0iMTE2IiB4PSI3IiB5PSI1MjcuNSIvPjxlbGxpcHNlIGN4PSIyMiIgY3k9IjU0My41IiBmaWxsPSIjQUREMUIyIiByeD0iMTEiIHJ5PSIxMSIgc3R5bGU9InN0cm9rZTojMTgxODE4O3N0cm9rZS13aWR0aDoxLjA7Ii8+PHBhdGggZD0iTTI1LjYyNSw1NDkuNSBMMjUuNjI1LDU0Ny43NSBMMjAuMzEyNSw1NDcuNzUgUTIwLjMxMjUsNTQ3Ljc1IDIwLjMxMjUsNTQ0LjE4NzUgTDI0LjU2MjUsNTQ0LjE4NzUgTDI0LjU2MjUsNTQyLjQzNzUgTDIwLjMxMjUsNTQyLjQzNzUgTDIwLjMxMjUsNTM5LjkzNzUgTDI1LjYyNSw1MzkuOTM3NSBMMjUuNjI1LDUzOC4xODc1IEwxOC41NjI1LDUzOC4xODc1IFExOC41NjI1LDUzOC4xODc1IDE4LjU2MjUsNTQ5LjUgTDI1LjYyNSw1NDkuNSBaICIgZmlsbD0iIzAwMDAwMCIvPjx0ZXh0IGZpbGw9IiMwMDAwMDAiIGZvbnQtZmFtaWx5PSJzYW5zLXNlcmlmIiBmb250LXNpemU9IjE0IiBsZW5ndGhBZGp1c3Q9InNwYWNpbmciIHRleHRMZW5ndGg9Ijg0IiB4PSIzNiIgeT0iNTQ5LjI0MjIiPiYjMjU2Mjg7JiMzMjAzNDsmIzIwODUxOyYjMzgxOTA7JiMzNTc4OTsmIzM0OTIwOzwvdGV4dD48bGluZSBzdHlsZT0ic3Ryb2tlOiMxODE4MTg7c3Ryb2tlLXdpZHRoOjAuNTsiIHgxPSI4IiB4Mj0iMTIyIiB5MT0iNTU5LjUiIHkyPSI1NTkuNSIvPjxlbGxpcHNlIGN4PSIxOCIgY3k9IjU3Mi40OTIyIiBmaWxsPSJub25lIiByeD0iMyIgcnk9IjMiIHN0eWxlPSJzdHJva2U6IzAzODA0ODtzdHJva2Utd2lkdGg6MS4wOyIvPjx0ZXh0IGZpbGw9IiMwMDAwMDAiIGZvbnQtZmFtaWx5PSJzYW5zLXNlcmlmIiBmb250LXNpemU9IjE0IiBsZW5ndGhBZGp1c3Q9InNwYWNpbmciIHRleHRMZW5ndGg9IjQyIiB4PSIyNyIgeT0iNTc2LjczNDQiPiYjMzMyNTg7JiMyMjY4NjtJRDwvdGV4dD48dGV4dCBmaWxsPSIjMDAwMDAwIiBmb250LWZhbWlseT0ic2Fucy1zZXJpZiIgZm9udC1zaXplPSIxNCIgbGVuZ3RoQWRqdXN0PSJzcGFjaW5nIiB0ZXh0TGVuZ3RoPSI0MiIgeD0iMjciIHk9IjU5MS43MTg4Ij4mIzIwODUxOyYjMzgxOTA7JiMzNTc4OTs8L3RleHQ+PHRleHQgZmlsbD0iIzAwMDAwMCIgZm9udC1mYW1pbHk9InNhbnMtc2VyaWYiIGZvbnQtc2l6ZT0iMTQiIGxlbmd0aEFkanVzdD0ic3BhY2luZyIgdGV4dExlbmd0aD0iNTYiIHg9IjI3IiB5PSI2MDYuNzAzMSI+JiMyNTYyODsmIzMyMDM0OyYjMjc0MjU7JiMyNTk2ODs8L3RleHQ+PHRleHQgZmlsbD0iIzAwMDAwMCIgZm9udC1mYW1pbHk9InNhbnMtc2VyaWYiIGZvbnQtc2l6ZT0iMTQiIGxlbmd0aEFkanVzdD0ic3BhY2luZyIgdGV4dExlbmd0aD0iNTYiIHg9IjI3IiB5PSI2MjEuNjg3NSI+JiMyMTAxOTsmIzI0MzE0OyYjMjYxMDI7JiMzODM4ODs8L3RleHQ+PHRleHQgZmlsbD0iIzAwMDAwMCIgZm9udC1mYW1pbHk9InNhbnMtc2VyaWYiIGZvbnQtc2l6ZT0iMTQiIGxlbmd0aEFkanVzdD0ic3BhY2luZyIgdGV4dExlbmd0aD0iNDIiIHg9IjI3IiB5PSI2MzYuNjcxOSI+JiMyMTAxOTsmIzI0MzE0OyYjMjAxNTQ7PC90ZXh0Pjx0ZXh0IGZpbGw9IiMwMDAwMDAiIGZvbnQtZmFtaWx5PSJzYW5zLXNlcmlmIiBmb250LXNpemU9IjE0IiBsZW5ndGhBZGp1c3Q9InNwYWNpbmciIHRleHRMZW5ndGg9IjU2IiB4PSIyNyIgeT0iNjUxLjY1NjMiPiYjMjYzNTY7JiMyNjAzMjsmIzI2MTAyOyYjMzgzODg7PC90ZXh0Pjx0ZXh0IGZpbGw9IiMwMDAwMDAiIGZvbnQtZmFtaWx5PSJzYW5zLXNlcmlmIiBmb250LXNpemU9IjE0IiBsZW5ndGhBZGp1c3Q9InNwYWNpbmciIHRleHRMZW5ndGg9IjQyIiB4PSIyNyIgeT0iNjY2LjY0MDYiPiYjMjYzNTY7JiMyNjAzMjsmIzIwMTU0OzwvdGV4dD48dGV4dCBmaWxsPSIjMDAwMDAwIiBmb250LWZhbWlseT0ic2Fucy1zZXJpZiIgZm9udC1zaXplPSIxNCIgbGVuZ3RoQWRqdXN0PSJzcGFjaW5nIiB0ZXh0TGVuZ3RoPSI1NiIgeD0iMjciIHk9IjY4MS42MjUiPiYjMzY5MjM7JiMzNjc1MzsmIzIxMDI0OyYjMzg1MDA7PC90ZXh0Pjx0ZXh0IGZpbGw9IiMwMDAwMDAiIGZvbnQtZmFtaWx5PSJzYW5zLXNlcmlmIiBmb250LXNpemU9IjE0IiBsZW5ndGhBZGp1c3Q9InNwYWNpbmciIHRleHRMZW5ndGg9IjI4IiB4PSIyNyIgeT0iNjk2LjYwOTQiPiYjMjI3OTE7JiMyNzg4MDs8L3RleHQ+PGxpbmUgc3R5bGU9InN0cm9rZTojMTgxODE4O3N0cm9rZS13aWR0aDowLjU7IiB4MT0iOCIgeDI9IjEyMiIgeTE9IjcwMi4zNTk0IiB5Mj0iNzAyLjM1OTQiLz48L2c+PCEtLWNsYXNzIE1lbWJlci0tPjxnIGlkPSJlbGVtX01lbWJlciI+PHJlY3QgY29kZUxpbmU9IjE0MyIgZmlsbD0iI0YxRjFGMSIgaGVpZ2h0PSIzMTcuNzE4OCIgaWQ9Ik1lbWJlciIgcng9IjIuNSIgcnk9IjIuNSIgc3R5bGU9InN0cm9rZTojMTgxODE4O3N0cm9rZS13aWR0aDowLjU7IiB3aWR0aD0iOTYiIHg9Ijc0OCIgeT0iOTIwLjUiLz48ZWxsaXBzZSBjeD0iNzcyLjkiIGN5PSI5MzYuNSIgZmlsbD0iI0FERDFCMiIgcng9IjExIiByeT0iMTEiIHN0eWxlPSJzdHJva2U6IzE4MTgxODtzdHJva2Utd2lkdGg6MS4wOyIvPjxwYXRoIGQ9Ik03NzYuNTI1LDk0Mi41IEw3NzYuNTI1LDk0MC43NSBMNzcxLjIxMjUsOTQwLjc1IFE3NzEuMjEyNSw5NDAuNzUgNzcxLjIxMjUsOTM3LjE4NzUgTDc3NS40NjI1LDkzNy4xODc1IEw3NzUuNDYyNSw5MzUuNDM3NSBMNzcxLjIxMjUsOTM1LjQzNzUgTDc3MS4yMTI1LDkzMi45Mzc1IEw3NzYuNTI1LDkzMi45Mzc1IEw3NzYuNTI1LDkzMS4xODc1IEw3NjkuNDYyNSw5MzEuMTg3NSBRNzY5LjQ2MjUsOTMxLjE4NzUgNzY5LjQ2MjUsOTQyLjUgTDc3Ni41MjUsOTQyLjUgWiAiIGZpbGw9IiMwMDAwMDAiLz48dGV4dCBmaWxsPSIjMDAwMDAwIiBmb250LWZhbWlseT0ic2Fucy1zZXJpZiIgZm9udC1zaXplPSIxNCIgbGVuZ3RoQWRqdXN0PSJzcGFjaW5nIiB0ZXh0TGVuZ3RoPSI0MiIgeD0iNzg5LjEiIHk9Ijk0Mi4yNDIyIj4mIzIwMjUwOyYjMjE1OTI7JiMzNDkyMDs8L3RleHQ+PGxpbmUgc3R5bGU9InN0cm9rZTojMTgxODE4O3N0cm9rZS13aWR0aDowLjU7IiB4MT0iNzQ5IiB4Mj0iODQzIiB5MT0iOTUyLjUiIHkyPSI5NTIuNSIvPjxlbGxpcHNlIGN4PSI3NTkiIGN5PSI5NjUuNDkyMiIgZmlsbD0ibm9uZSIgcng9IjMiIHJ5PSIzIiBzdHlsZT0ic3Ryb2tlOiMwMzgwNDg7c3Ryb2tlLXdpZHRoOjEuMDsiLz48dGV4dCBmaWxsPSIjMDAwMDAwIiBmb250LWZhbWlseT0ic2Fucy1zZXJpZiIgZm9udC1zaXplPSIxNCIgbGVuZ3RoQWRqdXN0PSJzcGFjaW5nIiB0ZXh0TGVuZ3RoPSI0MiIgeD0iNzY4IiB5PSI5NjkuNzM0NCI+JiMyMDI1MDsmIzIxNTkyO0lEPC90ZXh0Pjx0ZXh0IGZpbGw9IiMwMDAwMDAiIGZvbnQtZmFtaWx5PSJzYW5zLXNlcmlmIiBmb250LXNpemU9IjE0IiBsZW5ndGhBZGp1c3Q9InNwYWNpbmciIHRleHRMZW5ndGg9IjcwIiB4PSI3NjgiIHk9Ijk4NC43MTg4Ij4mIzI0NDk0OyYjMjA0NDk7b3BlbmlkPC90ZXh0Pjx0ZXh0IGZpbGw9IiMwMDAwMDAiIGZvbnQtZmFtaWx5PSJzYW5zLXNlcmlmIiBmb250LXNpemU9IjE0IiBsZW5ndGhBZGp1c3Q9InNwYWNpbmciIHRleHRMZW5ndGg9IjQyIiB4PSI3NjgiIHk9Ijk5OS43MDMxIj4mIzI1MTYzOyYjMjY0MjY7JiMyMTQ5NTs8L3RleHQ+PHRleHQgZmlsbD0iIzAwMDAwMCIgZm9udC1mYW1pbHk9InNhbnMtc2VyaWYiIGZvbnQtc2l6ZT0iMTQiIGxlbmd0aEFkanVzdD0ic3BhY2luZyIgdGV4dExlbmd0aD0iMjgiIHg9Ijc2OCIgeT0iMTAxNC42ODc1Ij4mIzIzNDk0OyYjMzA3MjE7PC90ZXh0Pjx0ZXh0IGZpbGw9IiMwMDAwMDAiIGZvbnQtZmFtaWx5PSJzYW5zLXNlcmlmIiBmb250LXNpemU9IjE0IiBsZW5ndGhBZGp1c3Q9InNwYWNpbmciIHRleHRMZW5ndGg9IjI4IiB4PSI3NjgiIHk9IjEwMjkuNjcxOSI+JiMyNjE2NTsmIzMxMjE2OzwvdGV4dD48dGV4dCBmaWxsPSIjMDAwMDAwIiBmb250LWZhbWlseT0ic2Fucy1zZXJpZiIgZm9udC1zaXplPSIxNCIgbGVuZ3RoQWRqdXN0PSJzcGFjaW5nIiB0ZXh0TGVuZ3RoPSI1NiIgeD0iNzY4IiB5PSIxMDQ0LjY1NjMiPiYjMzAwMDU7JiMyMzM3NjsmIzM3MDM4OyYjMzE2NjU7PC90ZXh0Pjx0ZXh0IGZpbGw9IiMwMDAwMDAiIGZvbnQtZmFtaWx5PSJzYW5zLXNlcmlmIiBmb250LXNpemU9IjE0IiBsZW5ndGhBZGp1c3Q9InNwYWNpbmciIHRleHRMZW5ndGg9IjI4IiB4PSI3NjgiIHk9IjEwNTkuNjQwNiI+JiMyNDYxNTsmIzIxMDM1OzwvdGV4dD48dGV4dCBmaWxsPSIjMDAwMDAwIiBmb250LWZhbWlseT0ic2Fucy1zZXJpZiIgZm9udC1zaXplPSIxNCIgbGVuZ3RoQWRqdXN0PSJzcGFjaW5nIiB0ZXh0TGVuZ3RoPSI1NiIgeD0iNzY4IiB5PSIxMDc0LjYyNSI+JiMyOTk5MjsmIzI1MTQzOyYjMjI4MzY7JiMyMDY4Nzs8L3RleHQ+PHRleHQgZmlsbD0iIzAwMDAwMCIgZm9udC1mYW1pbHk9InNhbnMtc2VyaWYiIGZvbnQtc2l6ZT0iMTQiIGxlbmd0aEFkanVzdD0ic3BhY2luZyIgdGV4dExlbmd0aD0iNTYiIHg9Ijc2OCIgeT0iMTA4OS42MDk0Ij4mIzI5OTkyOyYjMjUxNDM7JiMzMTYxNDsmIzIxNTE3OzwvdGV4dD48dGV4dCBmaWxsPSIjMDAwMDAwIiBmb250LWZhbWlseT0ic2Fucy1zZXJpZiIgZm9udC1zaXplPSIxNCIgbGVuZ3RoQWRqdXN0PSJzcGFjaW5nIiB0ZXh0TGVuZ3RoPSI1NiIgeD0iNzY4IiB5PSIxMTA0LjU5MzgiPiYjMjYxNTk7JiMyMTU0MjsmIzM1NzYyOyYjMjQwNzI7PC90ZXh0Pjx0ZXh0IGZpbGw9IiMwMDAwMDAiIGZvbnQtZmFtaWx5PSJzYW5zLXNlcmlmIiBmb250LXNpemU9IjE0IiBsZW5ndGhBZGp1c3Q9InNwYWNpbmciIHRleHRMZW5ndGg9IjQyIiB4PSI3NjgiIHk9IjExMTkuNTc4MSI+JiMzNTc2MjsmIzI0MDcyO0lEPC90ZXh0Pjx0ZXh0IGZpbGw9IiMwMDAwMDAiIGZvbnQtZmFtaWx5PSJzYW5zLXNlcmlmIiBmb250LXNpemU9IjE0IiBsZW5ndGhBZGp1c3Q9InNwYWNpbmciIHRleHRMZW5ndGg9IjcwIiB4PSI3NjgiIHk9IjExMzQuNTYyNSI+JiMyMDI1MDsmIzIxNTkyOyYjMzE4Njc7JiMyMTAzNTtJRDwvdGV4dD48dGV4dCBmaWxsPSIjMDAwMDAwIiBmb250LWZhbWlseT0ic2Fucy1zZXJpZiIgZm9udC1zaXplPSIxNCIgbGVuZ3RoQWRqdXN0PSJzcGFjaW5nIiB0ZXh0TGVuZ3RoPSI1NiIgeD0iNzY4IiB5PSIxMTQ5LjU0NjkiPiYjMjYzNTY7JiMyNjAzMjsmIzI2MTAyOyYjMzgzODg7PC90ZXh0Pjx0ZXh0IGZpbGw9IiMwMDAwMDAiIGZvbnQtZmFtaWx5PSJzYW5zLXNlcmlmIiBmb250LXNpemU9IjE0IiBsZW5ndGhBZGp1c3Q9InNwYWNpbmciIHRleHRMZW5ndGg9IjQyIiB4PSI3NjgiIHk9IjExNjQuNTMxMyI+JiMyNjM1NjsmIzI2MDMyOyYjMjAxNTQ7PC90ZXh0Pjx0ZXh0IGZpbGw9IiMwMDAwMDAiIGZvbnQtZmFtaWx5PSJzYW5zLXNlcmlmIiBmb250LXNpemU9IjE0IiBsZW5ndGhBZGp1c3Q9InNwYWNpbmciIHRleHRMZW5ndGg9IjU2IiB4PSI3NjgiIHk9IjExNzkuNTE1NiI+JiMyMTAxOTsmIzI0MzE0OyYjMjYxMDI7JiMzODM4ODs8L3RleHQ+PHRleHQgZmlsbD0iIzAwMDAwMCIgZm9udC1mYW1pbHk9InNhbnMtc2VyaWYiIGZvbnQtc2l6ZT0iMTQiIGxlbmd0aEFkanVzdD0ic3BhY2luZyIgdGV4dExlbmd0aD0iNDIiIHg9Ijc2OCIgeT0iMTE5NC41Ij4mIzIxMDE5OyYjMjQzMTQ7JiMyMDE1NDs8L3RleHQ+PHRleHQgZmlsbD0iIzAwMDAwMCIgZm9udC1mYW1pbHk9InNhbnMtc2VyaWYiIGZvbnQtc2l6ZT0iMTQiIGxlbmd0aEFkanVzdD0ic3BhY2luZyIgdGV4dExlbmd0aD0iMjgiIHg9Ijc2OCIgeT0iMTIwOS40ODQ0Ij4mIzIyNzkxOyYjMjc4ODA7PC90ZXh0Pjx0ZXh0IGZpbGw9IiMwMDAwMDAiIGZvbnQtZmFtaWx5PSJzYW5zLXNlcmlmIiBmb250LXNpemU9IjE0IiBsZW5ndGhBZGp1c3Q9InNwYWNpbmciIHRleHRMZW5ndGg9IjU2IiB4PSI3NjgiIHk9IjEyMjQuNDY4OCI+JiMzNjkyMzsmIzM2NzUzOyYjMjEwMjQ7JiMzODUwMDs8L3RleHQ+PGxpbmUgc3R5bGU9InN0cm9rZTojMTgxODE4O3N0cm9rZS13aWR0aDowLjU7IiB4MT0iNzQ5IiB4Mj0iODQzIiB5MT0iMTIzMC4yMTg4IiB5Mj0iMTIzMC4yMTg4Ii8+PC9nPjwhLS1jbGFzcyBDb3Vyc2VQdXJjaGFzZS0tPjxnIGlkPSJlbGVtX0NvdXJzZVB1cmNoYXNlIj48cmVjdCBjb2RlTGluZT0iMTY0IiBmaWxsPSIjRjFGMUYxIiBoZWlnaHQ9IjM0Ny42ODc1IiBpZD0iQ291cnNlUHVyY2hhc2UiIHJ4PSIyLjUiIHJ5PSIyLjUiIHN0eWxlPSJzdHJva2U6IzE4MTgxODtzdHJva2Utd2lkdGg6MC41OyIgd2lkdGg9IjE1OCIgeD0iNjA4IiB5PSI0NDUiLz48ZWxsaXBzZSBjeD0iNjIzIiBjeT0iNDYxIiBmaWxsPSIjQUREMUIyIiByeD0iMTEiIHJ5PSIxMSIgc3R5bGU9InN0cm9rZTojMTgxODE4O3N0cm9rZS13aWR0aDoxLjA7Ii8+PHBhdGggZD0iTTYyNi42MjUsNDY3IEw2MjYuNjI1LDQ2NS4yNSBMNjIxLjMxMjUsNDY1LjI1IFE2MjEuMzEyNSw0NjUuMjUgNjIxLjMxMjUsNDYxLjY4NzUgTDYyNS41NjI1LDQ2MS42ODc1IEw2MjUuNTYyNSw0NTkuOTM3NSBMNjIxLjMxMjUsNDU5LjkzNzUgTDYyMS4zMTI1LDQ1Ny40Mzc1IEw2MjYuNjI1LDQ1Ny40Mzc1IEw2MjYuNjI1LDQ1NS42ODc1IEw2MTkuNTYyNSw0NTUuNjg3NSBRNjE5LjU2MjUsNDU1LjY4NzUgNjE5LjU2MjUsNDY3IEw2MjYuNjI1LDQ2NyBaICIgZmlsbD0iIzAwMDAwMCIvPjx0ZXh0IGZpbGw9IiMwMDAwMDAiIGZvbnQtZmFtaWx5PSJzYW5zLXNlcmlmIiBmb250LXNpemU9IjE0IiBsZW5ndGhBZGp1c3Q9InNwYWNpbmciIHRleHRMZW5ndGg9IjEyNiIgeD0iNjM3IiB5PSI0NjYuNzQyMiI+JiMyMDI1MDsmIzIxNTkyOyYjMzYxNDE7JiMyMDA4MDsmIzM1ODM4OyYjMzEyNDM7JiMzNTc2MDsmIzI0NDA1OyYjMzQ5MjA7PC90ZXh0PjxsaW5lIHN0eWxlPSJzdHJva2U6IzE4MTgxODtzdHJva2Utd2lkdGg6MC41OyIgeDE9IjYwOSIgeDI9Ijc2NSIgeTE9IjQ3NyIgeTI9IjQ3NyIvPjxlbGxpcHNlIGN4PSI2MTkiIGN5PSI0ODkuOTkyMiIgZmlsbD0ibm9uZSIgcng9IjMiIHJ5PSIzIiBzdHlsZT0ic3Ryb2tlOiMwMzgwNDg7c3Ryb2tlLXdpZHRoOjEuMDsiLz48dGV4dCBmaWxsPSIjMDAwMDAwIiBmb250LWZhbWlseT0ic2Fucy1zZXJpZiIgZm9udC1zaXplPSIxNCIgbGVuZ3RoQWRqdXN0PSJzcGFjaW5nIiB0ZXh0TGVuZ3RoPSI0MiIgeD0iNjI4IiB5PSI0OTQuMjM0NCI+JiMzMzI1ODsmIzIyNjg2O0lEPC90ZXh0Pjx0ZXh0IGZpbGw9IiMwMDAwMDAiIGZvbnQtZmFtaWx5PSJzYW5zLXNlcmlmIiBmb250LXNpemU9IjE0IiBsZW5ndGhBZGp1c3Q9InNwYWNpbmciIHRleHRMZW5ndGg9IjU2IiB4PSI2MjgiIHk9IjUwOS4yMTg4Ij4mIzM1NzQ2OyYjMjEzMzM7JiMzMjUzNDsmIzIxNDk1OzwvdGV4dD48dGV4dCBmaWxsPSIjMDAwMDAwIiBmb250LWZhbWlseT0ic2Fucy1zZXJpZiIgZm9udC1zaXplPSIxNCIgbGVuZ3RoQWRqdXN0PSJzcGFjaW5nIiB0ZXh0TGVuZ3RoPSI0MiIgeD0iNjI4IiB5PSI1MjQuMjAzMSI+JiMzNTgzODsmIzMxMjQzO0lEPC90ZXh0Pjx0ZXh0IGZpbGw9IiMwMDAwMDAiIGZvbnQtZmFtaWx5PSJzYW5zLXNlcmlmIiBmb250LXNpemU9IjE0IiBsZW5ndGhBZGp1c3Q9InNwYWNpbmciIHRleHRMZW5ndGg9IjQyIiB4PSI2MjgiIHk9IjUzOS4xODc1Ij4mIzIwMjUwOyYjMjE1OTI7SUQ8L3RleHQ+PHRleHQgZmlsbD0iIzAwMDAwMCIgZm9udC1mYW1pbHk9InNhbnMtc2VyaWYiIGZvbnQtc2l6ZT0iMTQiIGxlbmd0aEFkanVzdD0ic3BhY2luZyIgdGV4dExlbmd0aD0iNDIiIHg9IjYyOCIgeT0iNTU0LjE3MTkiPiYjMzU3NjI7JiMyNDA3MjtJRDwvdGV4dD48dGV4dCBmaWxsPSIjMDAwMDAwIiBmb250LWZhbWlseT0ic2Fucy1zZXJpZiIgZm9udC1zaXplPSIxNCIgbGVuZ3RoQWRqdXN0PSJzcGFjaW5nIiB0ZXh0TGVuZ3RoPSI1NiIgeD0iNjI4IiB5PSI1NjkuMTU2MyI+JiMzNjE0MTsmIzIwMDgwOyYjMzczMjk7JiMzOTA2OTs8L3RleHQ+PHRleHQgZmlsbD0iIzAwMDAwMCIgZm9udC1mYW1pbHk9InNhbnMtc2VyaWYiIGZvbnQtc2l6ZT0iMTQiIGxlbmd0aEFkanVzdD0ic3BhY2luZyIgdGV4dExlbmd0aD0iNTYiIHg9IjYyOCIgeT0iNTg0LjE0MDYiPiYjMjAxODQ7JiMyNzQ1NDsmIzI5MzY2OyYjMjQ1Nzc7PC90ZXh0Pjx0ZXh0IGZpbGw9IiMwMDAwMDAiIGZvbnQtZmFtaWx5PSJzYW5zLXNlcmlmIiBmb250LXNpemU9IjE0IiBsZW5ndGhBZGp1c3Q9InNwYWNpbmciIHRleHRMZW5ndGg9IjU2IiB4PSI2MjgiIHk9IjU5OS4xMjUiPiYjMzYxNDE7JiMyMDA4MDsmIzMxODY3OyYjMjI0MTE7PC90ZXh0Pjx0ZXh0IGZpbGw9IiMwMDAwMDAiIGZvbnQtZmFtaWx5PSJzYW5zLXNlcmlmIiBmb250LXNpemU9IjE0IiBsZW5ndGhBZGp1c3Q9InNwYWNpbmciIHRleHRMZW5ndGg9IjU2IiB4PSI2MjgiIHk9IjYxNC4xMDk0Ij4mIzI1OTAzOyYjMjAxODQ7JiMyODE5MjsmIzM2OTQ3OzwvdGV4dD48dGV4dCBmaWxsPSIjMDAwMDAwIiBmb250LWZhbWlseT0ic2Fucy1zZXJpZiIgZm9udC1zaXplPSIxNCIgbGVuZ3RoQWRqdXN0PSJzcGFjaW5nIiB0ZXh0TGVuZ3RoPSI3MCIgeD0iNjI4IiB5PSI2MjkuMDkzOCI+JiMyMjI2OTsmIzIzNDc4OyYjMjUxMTA7JiMyMjMyMDsmIzIxMzA2OzwvdGV4dD48dGV4dCBmaWxsPSIjMDAwMDAwIiBmb250LWZhbWlseT0ic2Fucy1zZXJpZiIgZm9udC1zaXplPSIxNCIgbGVuZ3RoQWRqdXN0PSJzcGFjaW5nIiB0ZXh0TGVuZ3RoPSIyOCIgeD0iNjI4IiB5PSI2NDQuMDc4MSI+JiMyMTMwNjsmIzIyNDk1OzwvdGV4dD48dGV4dCBmaWxsPSIjMDAwMDAwIiBmb250LWZhbWlseT0ic2Fucy1zZXJpZiIgZm9udC1zaXplPSIxNCIgbGVuZ3RoQWRqdXN0PSJzcGFjaW5nIiB0ZXh0TGVuZ3RoPSI1NiIgeD0iNjI4IiB5PSI2NTkuMDYyNSI+JiMyNTE1MjsmIzIzNjQ2OyYjMzA0NjU7JiMyMDIyMTs8L3RleHQ+PHRleHQgZmlsbD0iIzAwMDAwMCIgZm9udC1mYW1pbHk9InNhbnMtc2VyaWYiIGZvbnQtc2l6ZT0iMTQiIGxlbmd0aEFkanVzdD0ic3BhY2luZyIgdGV4dExlbmd0aD0iMjgiIHg9IjYyOCIgeT0iNjc0LjA0NjkiPiYjMjI0Nzg7JiMyNDA2Njs8L3RleHQ+PHRleHQgZmlsbD0iIzAwMDAwMCIgZm9udC1mYW1pbHk9InNhbnMtc2VyaWYiIGZvbnQtc2l6ZT0iMTQiIGxlbmd0aEFkanVzdD0ic3BhY2luZyIgdGV4dExlbmd0aD0iOTgiIHg9IjYyOCIgeT0iNjg5LjAzMTMiPiYjMzI1OTM7JiMzMjQ3NjsmIzI2MzgxOyYjMjExNTM7JiMyNTU1MjsmIzIwMzc5OyYjMjE4MzA7PC90ZXh0Pjx0ZXh0IGZpbGw9IiMwMDAwMDAiIGZvbnQtZmFtaWx5PSJzYW5zLXNlcmlmIiBmb250LXNpemU9IjE0IiBsZW5ndGhBZGp1c3Q9InNwYWNpbmciIHRleHRMZW5ndGg9IjU2IiB4PSI2MjgiIHk9IjcwNC4wMTU2Ij4mIzIxMDE5OyYjMjQzMTQ7JiMyNjEwMjsmIzM4Mzg4OzwvdGV4dD48dGV4dCBmaWxsPSIjMDAwMDAwIiBmb250LWZhbWlseT0ic2Fucy1zZXJpZiIgZm9udC1zaXplPSIxNCIgbGVuZ3RoQWRqdXN0PSJzcGFjaW5nIiB0ZXh0TGVuZ3RoPSI0MiIgeD0iNjI4IiB5PSI3MTkiPiYjMjEwMTk7JiMyNDMxNDsmIzIwMTU0OzwvdGV4dD48dGV4dCBmaWxsPSIjMDAwMDAwIiBmb250LWZhbWlseT0ic2Fucy1zZXJpZiIgZm9udC1zaXplPSIxNCIgbGVuZ3RoQWRqdXN0PSJzcGFjaW5nIiB0ZXh0TGVuZ3RoPSI0MiIgeD0iNjI4IiB5PSI3MzMuOTg0NCI+JiMyNjM1NjsmIzI2MDMyOyYjMjAxNTQ7PC90ZXh0Pjx0ZXh0IGZpbGw9IiMwMDAwMDAiIGZvbnQtZmFtaWx5PSJzYW5zLXNlcmlmIiBmb250LXNpemU9IjE0IiBsZW5ndGhBZGp1c3Q9InNwYWNpbmciIHRleHRMZW5ndGg9IjU2IiB4PSI2MjgiIHk9Ijc0OC45Njg4Ij4mIzI2MzU2OyYjMjYwMzI7JiMyNjEwMjsmIzM4Mzg4OzwvdGV4dD48dGV4dCBmaWxsPSIjMDAwMDAwIiBmb250LWZhbWlseT0ic2Fucy1zZXJpZiIgZm9udC1zaXplPSIxNCIgbGVuZ3RoQWRqdXN0PSJzcGFjaW5nIiB0ZXh0TGVuZ3RoPSIyOCIgeD0iNjI4IiB5PSI3NjMuOTUzMSI+JiMyMjc5MTsmIzI3ODgwOzwvdGV4dD48dGV4dCBmaWxsPSIjMDAwMDAwIiBmb250LWZhbWlseT0ic2Fucy1zZXJpZiIgZm9udC1zaXplPSIxNCIgbGVuZ3RoQWRqdXN0PSJzcGFjaW5nIiB0ZXh0TGVuZ3RoPSI1NiIgeD0iNjI4IiB5PSI3NzguOTM3NSI+JiMzNjkyMzsmIzM2NzUzOyYjMjEwMjQ7JiMzODUwMDs8L3RleHQ+PGxpbmUgc3R5bGU9InN0cm9rZTojMTgxODE4O3N0cm9rZS13aWR0aDowLjU7IiB4MT0iNjA5IiB4Mj0iNzY1IiB5MT0iNzg0LjY4NzUiIHkyPSI3ODQuNjg3NSIvPjwvZz48IS0tY2xhc3MgVklQSm9pbi0tPjxnIGlkPSJlbGVtX1ZJUEpvaW4iPjxyZWN0IGNvZGVMaW5lPSIxODciIGZpbGw9IiNGMUYxRjEiIGhlaWdodD0iMzE3LjcxODgiIGlkPSJWSVBKb2luIiByeD0iMi41IiByeT0iMi41IiBzdHlsZT0ic3Ryb2tlOiMxODE4MTg7c3Ryb2tlLXdpZHRoOjAuNTsiIHdpZHRoPSIxNTEiIHg9IjExMjIuNSIgeT0iMjkuNSIvPjxlbGxpcHNlIGN4PSIxMTM3LjUiIGN5PSI0NS41IiBmaWxsPSIjQUREMUIyIiByeD0iMTEiIHJ5PSIxMSIgc3R5bGU9InN0cm9rZTojMTgxODE4O3N0cm9rZS13aWR0aDoxLjA7Ii8+PHBhdGggZD0iTTExNDEuMTI1LDUxLjUgTDExNDEuMTI1LDQ5Ljc1IEwxMTM1LjgxMjUsNDkuNzUgUTExMzUuODEyNSw0OS43NSAxMTM1LjgxMjUsNDYuMTg3NSBMMTE0MC4wNjI1LDQ2LjE4NzUgTDExNDAuMDYyNSw0NC40Mzc1IEwxMTM1LjgxMjUsNDQuNDM3NSBMMTEzNS44MTI1LDQxLjkzNzUgTDExNDEuMTI1LDQxLjkzNzUgTDExNDEuMTI1LDQwLjE4NzUgTDExMzQuMDYyNSw0MC4xODc1IFExMTM0LjA2MjUsNDAuMTg3NSAxMTM0LjA2MjUsNTEuNSBMMTE0MS4xMjUsNTEuNSBaICIgZmlsbD0iIzAwMDAwMCIvPjx0ZXh0IGZpbGw9IiMwMDAwMDAiIGZvbnQtZmFtaWx5PSJzYW5zLXNlcmlmIiBmb250LXNpemU9IjE0IiBsZW5ndGhBZGp1c3Q9InNwYWNpbmciIHRleHRMZW5ndGg9IjExOSIgeD0iMTE1MS41IiB5PSI1MS4yNDIyIj4mIzIwMjUwOyYjMjE1OTI7JiMyMTE1MjsmIzIwODM3O1ZJUCYjMzU3NjA7JiMyNDQwNTsmIzM0OTIwOzwvdGV4dD48bGluZSBzdHlsZT0ic3Ryb2tlOiMxODE4MTg7c3Ryb2tlLXdpZHRoOjAuNTsiIHgxPSIxMTIzLjUiIHgyPSIxMjcyLjUiIHkxPSI2MS41IiB5Mj0iNjEuNSIvPjxlbGxpcHNlIGN4PSIxMTMzLjUiIGN5PSI3NC40OTIyIiBmaWxsPSJub25lIiByeD0iMyIgcnk9IjMiIHN0eWxlPSJzdHJva2U6IzAzODA0ODtzdHJva2Utd2lkdGg6MS4wOyIvPjx0ZXh0IGZpbGw9IiMwMDAwMDAiIGZvbnQtZmFtaWx5PSJzYW5zLXNlcmlmIiBmb250LXNpemU9IjE0IiBsZW5ndGhBZGp1c3Q9InNwYWNpbmciIHRleHRMZW5ndGg9IjQyIiB4PSIxMTQyLjUiIHk9Ijc4LjczNDQiPiYjMzMyNTg7JiMyMjY4NjtJRDwvdGV4dD48dGV4dCBmaWxsPSIjMDAwMDAwIiBmb250LWZhbWlseT0ic2Fucy1zZXJpZiIgZm9udC1zaXplPSIxNCIgbGVuZ3RoQWRqdXN0PSJzcGFjaW5nIiB0ZXh0TGVuZ3RoPSI1NiIgeD0iMTE0Mi41IiB5PSI5My43MTg4Ij4mIzM1NzQ2OyYjMjEzMzM7JiMzMjUzNDsmIzIxNDk1OzwvdGV4dD48dGV4dCBmaWxsPSIjMDAwMDAwIiBmb250LWZhbWlseT0ic2Fucy1zZXJpZiIgZm9udC1zaXplPSIxNCIgbGVuZ3RoQWRqdXN0PSJzcGFjaW5nIiB0ZXh0TGVuZ3RoPSI2MyIgeD0iMTE0Mi41IiB5PSIxMDguNzAzMSI+VklQJiMzMTg2NzsmIzIxMDM1O0lEPC90ZXh0Pjx0ZXh0IGZpbGw9IiMwMDAwMDAiIGZvbnQtZmFtaWx5PSJzYW5zLXNlcmlmIiBmb250LXNpemU9IjE0IiBsZW5ndGhBZGp1c3Q9InNwYWNpbmciIHRleHRMZW5ndGg9IjQyIiB4PSIxMTQyLjUiIHk9IjEyMy42ODc1Ij4mIzIwMjUwOyYjMjE1OTI7SUQ8L3RleHQ+PHRleHQgZmlsbD0iIzAwMDAwMCIgZm9udC1mYW1pbHk9InNhbnMtc2VyaWYiIGZvbnQtc2l6ZT0iMTQiIGxlbmd0aEFkanVzdD0ic3BhY2luZyIgdGV4dExlbmd0aD0iNTYiIHg9IjExNDIuNSIgeT0iMTM4LjY3MTkiPiYjMzYxNDE7JiMyMDA4MDsmIzM3MzI5OyYjMzkwNjk7PC90ZXh0Pjx0ZXh0IGZpbGw9IiMwMDAwMDAiIGZvbnQtZmFtaWx5PSJzYW5zLXNlcmlmIiBmb250LXNpemU9IjE0IiBsZW5ndGhBZGp1c3Q9InNwYWNpbmciIHRleHRMZW5ndGg9IjU2IiB4PSIxMTQyLjUiIHk9IjE1My42NTYzIj4mIzIwMTg0OyYjMjc0NTQ7JiMyOTM2NjsmIzI0NTc3OzwvdGV4dD48dGV4dCBmaWxsPSIjMDAwMDAwIiBmb250LWZhbWlseT0ic2Fucy1zZXJpZiIgZm9udC1zaXplPSIxNCIgbGVuZ3RoQWRqdXN0PSJzcGFjaW5nIiB0ZXh0TGVuZ3RoPSI1NiIgeD0iMTE0Mi41IiB5PSIxNjguNjQwNiI+JiMyNTkwMzsmIzIwMTg0OyYjMjgxOTI7JiMzNjk0Nzs8L3RleHQ+PHRleHQgZmlsbD0iIzAwMDAwMCIgZm9udC1mYW1pbHk9InNhbnMtc2VyaWYiIGZvbnQtc2l6ZT0iMTQiIGxlbmd0aEFkanVzdD0ic3BhY2luZyIgdGV4dExlbmd0aD0iNzAiIHg9IjExNDIuNSIgeT0iMTgzLjYyNSI+JiMyMjI2OTsmIzIzNDc4OyYjMjUxMTA7JiMyMjMyMDsmIzIxMzA2OzwvdGV4dD48dGV4dCBmaWxsPSIjMDAwMDAwIiBmb250LWZhbWlseT0ic2Fucy1zZXJpZiIgZm9udC1zaXplPSIxNCIgbGVuZ3RoQWRqdXN0PSJzcGFjaW5nIiB0ZXh0TGVuZ3RoPSIyOCIgeD0iMTE0Mi41IiB5PSIxOTguNjA5NCI+JiMyMTMwNjsmIzIyNDk1OzwvdGV4dD48dGV4dCBmaWxsPSIjMDAwMDAwIiBmb250LWZhbWlseT0ic2Fucy1zZXJpZiIgZm9udC1zaXplPSIxNCIgbGVuZ3RoQWRqdXN0PSJzcGFjaW5nIiB0ZXh0TGVuZ3RoPSI1NiIgeD0iMTE0Mi41IiB5PSIyMTMuNTkzOCI+JiMyNTE1MjsmIzIzNjQ2OyYjMzA0NjU7JiMyMDIyMTs8L3RleHQ+PHRleHQgZmlsbD0iIzAwMDAwMCIgZm9udC1mYW1pbHk9InNhbnMtc2VyaWYiIGZvbnQtc2l6ZT0iMTQiIGxlbmd0aEFkanVzdD0ic3BhY2luZyIgdGV4dExlbmd0aD0iMjgiIHg9IjExNDIuNSIgeT0iMjI4LjU3ODEiPiYjMjI0Nzg7JiMyNDA2Njs8L3RleHQ+PHRleHQgZmlsbD0iIzAwMDAwMCIgZm9udC1mYW1pbHk9InNhbnMtc2VyaWYiIGZvbnQtc2l6ZT0iMTQiIGxlbmd0aEFkanVzdD0ic3BhY2luZyIgdGV4dExlbmd0aD0iOTgiIHg9IjExNDIuNSIgeT0iMjQzLjU2MjUiPiYjMzI1OTM7JiMzMjQ3NjsmIzI2MzgxOyYjMjExNTM7JiMyNTU1MjsmIzIwMzc5OyYjMjE4MzA7PC90ZXh0Pjx0ZXh0IGZpbGw9IiMwMDAwMDAiIGZvbnQtZmFtaWx5PSJzYW5zLXNlcmlmIiBmb250LXNpemU9IjE0IiBsZW5ndGhBZGp1c3Q9InNwYWNpbmciIHRleHRMZW5ndGg9IjU2IiB4PSIxMTQyLjUiIHk9IjI1OC41NDY5Ij4mIzIxMDE5OyYjMjQzMTQ7JiMyNjEwMjsmIzM4Mzg4OzwvdGV4dD48dGV4dCBmaWxsPSIjMDAwMDAwIiBmb250LWZhbWlseT0ic2Fucy1zZXJpZiIgZm9udC1zaXplPSIxNCIgbGVuZ3RoQWRqdXN0PSJzcGFjaW5nIiB0ZXh0TGVuZ3RoPSI0MiIgeD0iMTE0Mi41IiB5PSIyNzMuNTMxMyI+JiMyMTAxOTsmIzI0MzE0OyYjMjAxNTQ7PC90ZXh0Pjx0ZXh0IGZpbGw9IiMwMDAwMDAiIGZvbnQtZmFtaWx5PSJzYW5zLXNlcmlmIiBmb250LXNpemU9IjE0IiBsZW5ndGhBZGp1c3Q9InNwYWNpbmciIHRleHRMZW5ndGg9IjU2IiB4PSIxMTQyLjUiIHk9IjI4OC41MTU2Ij4mIzI2MzU2OyYjMjYwMzI7JiMyNjEwMjsmIzM4Mzg4OzwvdGV4dD48dGV4dCBmaWxsPSIjMDAwMDAwIiBmb250LWZhbWlseT0ic2Fucy1zZXJpZiIgZm9udC1zaXplPSIxNCIgbGVuZ3RoQWRqdXN0PSJzcGFjaW5nIiB0ZXh0TGVuZ3RoPSI0MiIgeD0iMTE0Mi41IiB5PSIzMDMuNSI+JiMyNjM1NjsmIzI2MDMyOyYjMjAxNTQ7PC90ZXh0Pjx0ZXh0IGZpbGw9IiMwMDAwMDAiIGZvbnQtZmFtaWx5PSJzYW5zLXNlcmlmIiBmb250LXNpemU9IjE0IiBsZW5ndGhBZGp1c3Q9InNwYWNpbmciIHRleHRMZW5ndGg9IjU2IiB4PSIxMTQyLjUiIHk9IjMxOC40ODQ0Ij4mIzM2OTIzOyYjMzY3NTM7JiMyMTAyNDsmIzM4NTAwOzwvdGV4dD48dGV4dCBmaWxsPSIjMDAwMDAwIiBmb250LWZhbWlseT0ic2Fucy1zZXJpZiIgZm9udC1zaXplPSIxNCIgbGVuZ3RoQWRqdXN0PSJzcGFjaW5nIiB0ZXh0TGVuZ3RoPSIyOCIgeD0iMTE0Mi41IiB5PSIzMzMuNDY4OCI+JiMyMjc5MTsmIzI3ODgwOzwvdGV4dD48bGluZSBzdHlsZT0ic3Ryb2tlOiMxODE4MTg7c3Ryb2tlLXdpZHRoOjAuNTsiIHgxPSIxMTIzLjUiIHgyPSIxMjcyLjUiIHkxPSIzMzkuMjE4OCIgeTI9IjMzOS4yMTg4Ii8+PC9nPjwhLS1jbGFzcyBDb3Vyc2VDYXRlZ29yeS0tPjxnIGlkPSJlbGVtX0NvdXJzZUNhdGVnb3J5Ij48cmVjdCBjb2RlTGluZT0iMjA4IiBmaWxsPSIjRjFGMUYxIiBoZWlnaHQ9IjIxMi44MjgxIiBpZD0iQ291cnNlQ2F0ZWdvcnkiIHJ4PSIyLjUiIHJ5PSIyLjUiIHN0eWxlPSJzdHJva2U6IzE4MTgxODtzdHJva2Utd2lkdGg6MC41OyIgd2lkdGg9IjEzOCIgeD0iMTM0MCIgeT0iNTEyLjUiLz48ZWxsaXBzZSBjeD0iMTM3MS4yIiBjeT0iNTI4LjUiIGZpbGw9IiNBREQxQjIiIHJ4PSIxMSIgcnk9IjExIiBzdHlsZT0ic3Ryb2tlOiMxODE4MTg7c3Ryb2tlLXdpZHRoOjEuMDsiLz48cGF0aCBkPSJNMTM3NC44MjUsNTM0LjUgTDEzNzQuODI1LDUzMi43NSBMMTM2OS41MTI1LDUzMi43NSBRMTM2OS41MTI1LDUzMi43NSAxMzY5LjUxMjUsNTI5LjE4NzUgTDEzNzMuNzYyNSw1MjkuMTg3NSBMMTM3My43NjI1LDUyNy40Mzc1IEwxMzY5LjUxMjUsNTI3LjQzNzUgTDEzNjkuNTEyNSw1MjQuOTM3NSBMMTM3NC44MjUsNTI0LjkzNzUgTDEzNzQuODI1LDUyMy4xODc1IEwxMzY3Ljc2MjUsNTIzLjE4NzUgUTEzNjcuNzYyNSw1MjMuMTg3NSAxMzY3Ljc2MjUsNTM0LjUgTDEzNzQuODI1LDUzNC41IFogIiBmaWxsPSIjMDAwMDAwIi8+PHRleHQgZmlsbD0iIzAwMDAwMCIgZm9udC1mYW1pbHk9InNhbnMtc2VyaWYiIGZvbnQtc2l6ZT0iMTQiIGxlbmd0aEFkanVzdD0ic3BhY2luZyIgdGV4dExlbmd0aD0iNzAiIHg9IjEzODguOCIgeT0iNTM0LjI0MjIiPiYjMzU4Mzg7JiMzMTI0MzsmIzMxODY3OyYjMjEwMzU7JiMzNDkyMDs8L3RleHQ+PGxpbmUgc3R5bGU9InN0cm9rZTojMTgxODE4O3N0cm9rZS13aWR0aDowLjU7IiB4MT0iMTM0MSIgeDI9IjE0NzciIHkxPSI1NDQuNSIgeTI9IjU0NC41Ii8+PGVsbGlwc2UgY3g9IjEzNTEiIGN5PSI1NTcuNDkyMiIgZmlsbD0ibm9uZSIgcng9IjMiIHJ5PSIzIiBzdHlsZT0ic3Ryb2tlOiMwMzgwNDg7c3Ryb2tlLXdpZHRoOjEuMDsiLz48dGV4dCBmaWxsPSIjMDAwMDAwIiBmb250LWZhbWlseT0ic2Fucy1zZXJpZiIgZm9udC1zaXplPSIxNCIgbGVuZ3RoQWRqdXN0PSJzcGFjaW5nIiB0ZXh0TGVuZ3RoPSI3MCIgeD0iMTM2MCIgeT0iNTYxLjczNDQiPiYjMzU4Mzg7JiMzMTI0MzsmIzMxODY3OyYjMjEwMzU7SUQ8L3RleHQ+PHRleHQgZmlsbD0iIzAwMDAwMCIgZm9udC1mYW1pbHk9InNhbnMtc2VyaWYiIGZvbnQtc2l6ZT0iMTQiIGxlbmd0aEFkanVzdD0ic3BhY2luZyIgdGV4dExlbmd0aD0iNTYiIHg9IjEzNjAiIHk9IjU3Ni43MTg4Ij4mIzMxODY3OyYjMjEwMzU7JiMyMTUxNzsmIzMxMjE2OzwvdGV4dD48dGV4dCBmaWxsPSIjMDAwMDAwIiBmb250LWZhbWlseT0ic2Fucy1zZXJpZiIgZm9udC1zaXplPSIxNCIgbGVuZ3RoQWRqdXN0PSJzcGFjaW5nIiB0ZXh0TGVuZ3RoPSI1NiIgeD0iMTM2MCIgeT0iNTkxLjcwMzEiPiYjMjkyMzg7JiMzMTg2NzsmIzIxMDM1O0lEPC90ZXh0Pjx0ZXh0IGZpbGw9IiMwMDAwMDAiIGZvbnQtZmFtaWx5PSJzYW5zLXNlcmlmIiBmb250LXNpemU9IjE0IiBsZW5ndGhBZGp1c3Q9InNwYWNpbmciIHRleHRMZW5ndGg9IjU2IiB4PSIxMzYwIiB5PSI2MDYuNjg3NSI+JiMyNTQ5MDsmIzI0MjA3OyYjMjMzODM7JiMyNzU3Mzs8L3RleHQ+PHRleHQgZmlsbD0iIzAwMDAwMCIgZm9udC1mYW1pbHk9InNhbnMtc2VyaWYiIGZvbnQtc2l6ZT0iMTQiIGxlbmd0aEFkanVzdD0ic3BhY2luZyIgdGV4dExlbmd0aD0iNTYiIHg9IjEzNjAiIHk9IjYyMS42NzE5Ij4mIzIxMDE5OyYjMjQzMTQ7JiMyNjEwMjsmIzM4Mzg4OzwvdGV4dD48dGV4dCBmaWxsPSIjMDAwMDAwIiBmb250LWZhbWlseT0ic2Fucy1zZXJpZiIgZm9udC1zaXplPSIxNCIgbGVuZ3RoQWRqdXN0PSJzcGFjaW5nIiB0ZXh0TGVuZ3RoPSI0MiIgeD0iMTM2MCIgeT0iNjM2LjY1NjMiPiYjMjEwMTk7JiMyNDMxNDsmIzIwMTU0OzwvdGV4dD48dGV4dCBmaWxsPSIjMDAwMDAwIiBmb250LWZhbWlseT0ic2Fucy1zZXJpZiIgZm9udC1zaXplPSIxNCIgbGVuZ3RoQWRqdXN0PSJzcGFjaW5nIiB0ZXh0TGVuZ3RoPSI1NiIgeD0iMTM2MCIgeT0iNjUxLjY0MDYiPiYjMjYzNTY7JiMyNjAzMjsmIzI2MTAyOyYjMzgzODg7PC90ZXh0Pjx0ZXh0IGZpbGw9IiMwMDAwMDAiIGZvbnQtZmFtaWx5PSJzYW5zLXNlcmlmIiBmb250LXNpemU9IjE0IiBsZW5ndGhBZGp1c3Q9InNwYWNpbmciIHRleHRMZW5ndGg9IjQyIiB4PSIxMzYwIiB5PSI2NjYuNjI1Ij4mIzI2MzU2OyYjMjYwMzI7JiMyMDE1NDs8L3RleHQ+PHRleHQgZmlsbD0iIzAwMDAwMCIgZm9udC1mYW1pbHk9InNhbnMtc2VyaWYiIGZvbnQtc2l6ZT0iMTQiIGxlbmd0aEFkanVzdD0ic3BhY2luZyIgdGV4dExlbmd0aD0iMTEyIiB4PSIxMzYwIiB5PSI2ODEuNjA5NCI+JiMzODQ2MzsmIzM3MzI0OyYjMjAxMTM7JiMzNTI3MDsmIzM5MDU3OyYjMjA5OTg7JiMzMTg2NztJRDwvdGV4dD48dGV4dCBmaWxsPSIjMDAwMDAwIiBmb250LWZhbWlseT0ic2Fucy1zZXJpZiIgZm9udC1zaXplPSIxNCIgbGVuZ3RoQWRqdXN0PSJzcGFjaW5nIiB0ZXh0TGVuZ3RoPSIyOCIgeD0iMTM2MCIgeT0iNjk2LjU5MzgiPiYjMjI3OTE7JiMyNzg4MDs8L3RleHQ+PHRleHQgZmlsbD0iIzAwMDAwMCIgZm9udC1mYW1pbHk9InNhbnMtc2VyaWYiIGZvbnQtc2l6ZT0iMTQiIGxlbmd0aEFkanVzdD0ic3BhY2luZyIgdGV4dExlbmd0aD0iNTYiIHg9IjEzNjAiIHk9IjcxMS41NzgxIj4mIzI2MTU5OyYjMjE1NDI7JiMyMTAyNDsmIzM4NTAwOzwvdGV4dD48bGluZSBzdHlsZT0ic3Ryb2tlOiMxODE4MTg7c3Ryb2tlLXdpZHRoOjAuNTsiIHgxPSIxMzQxIiB4Mj0iMTQ3NyIgeTE9IjcxNy4zMjgxIiB5Mj0iNzE3LjMyODEiLz48L2c+PCEtLWNsYXNzIFRlYWNoZXItLT48ZyBpZD0iZWxlbV9UZWFjaGVyIj48cmVjdCBjb2RlTGluZT0iMjIyIiBmaWxsPSIjRjFGMUYxIiBoZWlnaHQ9IjMwMi43MzQ0IiBpZD0iVGVhY2hlciIgcng9IjIuNSIgcnk9IjIuNSIgc3R5bGU9InN0cm9rZTojMTgxODE4O3N0cm9rZS13aWR0aDowLjU7IiB3aWR0aD0iMTEwIiB4PSI1NzYiIHk9IjEzNjYiLz48ZWxsaXBzZSBjeD0iNjA3LjIiIGN5PSIxMzgyIiBmaWxsPSIjQUREMUIyIiByeD0iMTEiIHJ5PSIxMSIgc3R5bGU9InN0cm9rZTojMTgxODE4O3N0cm9rZS13aWR0aDoxLjA7Ii8+PHBhdGggZD0iTTYxMC44MjUsMTM4OCBMNjEwLjgyNSwxMzg2LjI1IEw2MDUuNTEyNSwxMzg2LjI1IFE2MDUuNTEyNSwxMzg2LjI1IDYwNS41MTI1LDEzODIuNjg3NSBMNjA5Ljc2MjUsMTM4Mi42ODc1IEw2MDkuNzYyNSwxMzgwLjkzNzUgTDYwNS41MTI1LDEzODAuOTM3NSBMNjA1LjUxMjUsMTM3OC40Mzc1IEw2MTAuODI1LDEzNzguNDM3NSBMNjEwLjgyNSwxMzc2LjY4NzUgTDYwMy43NjI1LDEzNzYuNjg3NSBRNjAzLjc2MjUsMTM3Ni42ODc1IDYwMy43NjI1LDEzODggTDYxMC44MjUsMTM4OCBaICIgZmlsbD0iIzAwMDAwMCIvPjx0ZXh0IGZpbGw9IiMwMDAwMDAiIGZvbnQtZmFtaWx5PSJzYW5zLXNlcmlmIiBmb250LXNpemU9IjE0IiBsZW5ndGhBZGp1c3Q9InNwYWNpbmciIHRleHRMZW5ndGg9IjQyIiB4PSI2MjQuOCIgeT0iMTM4Ny43NDIyIj4mIzM1NzYyOyYjMjQwNzI7JiMzNDkyMDs8L3RleHQ+PGxpbmUgc3R5bGU9InN0cm9rZTojMTgxODE4O3N0cm9rZS13aWR0aDowLjU7IiB4MT0iNTc3IiB4Mj0iNjg1IiB5MT0iMTM5OCIgeTI9IjEzOTgiLz48ZWxsaXBzZSBjeD0iNTg3IiBjeT0iMTQxMC45OTIyIiBmaWxsPSJub25lIiByeD0iMyIgcnk9IjMiIHN0eWxlPSJzdHJva2U6IzAzODA0ODtzdHJva2Utd2lkdGg6MS4wOyIvPjx0ZXh0IGZpbGw9IiMwMDAwMDAiIGZvbnQtZmFtaWx5PSJzYW5zLXNlcmlmIiBmb250LXNpemU9IjE0IiBsZW5ndGhBZGp1c3Q9InNwYWNpbmciIHRleHRMZW5ndGg9IjQyIiB4PSI1OTYiIHk9IjE0MTUuMjM0NCI+JiMzNTc2MjsmIzI0MDcyO0lEPC90ZXh0Pjx0ZXh0IGZpbGw9IiMwMDAwMDAiIGZvbnQtZmFtaWx5PSJzYW5zLXNlcmlmIiBmb250LXNpemU9IjE0IiBsZW5ndGhBZGp1c3Q9InNwYWNpbmciIHRleHRMZW5ndGg9IjU2IiB4PSI1OTYiIHk9IjE0MzAuMjE4OCI+JiMzNTc2MjsmIzI0MDcyOyYjMjI5OTU7JiMyMTUxNzs8L3RleHQ+PHRleHQgZmlsbD0iIzAwMDAwMCIgZm9udC1mYW1pbHk9InNhbnMtc2VyaWYiIGZvbnQtc2l6ZT0iMTQiIGxlbmd0aEFkanVzdD0ic3BhY2luZyIgdGV4dExlbmd0aD0iNTYiIHg9IjU5NiIgeT0iMTQ0NS4yMDMxIj4mIzM1NzYyOyYjMjQwNzI7JiMzMTYxNjsmIzIwMTcxOzwvdGV4dD48dGV4dCBmaWxsPSIjMDAwMDAwIiBmb250LWZhbWlseT0ic2Fucy1zZXJpZiIgZm9udC1zaXplPSIxNCIgbGVuZ3RoQWRqdXN0PSJzcGFjaW5nIiB0ZXh0TGVuZ3RoPSIyOCIgeD0iNTk2IiB5PSIxNDYwLjE4NzUiPiYjMzI4NDQ7JiMzMTIxNjs8L3RleHQ+PHRleHQgZmlsbD0iIzAwMDAwMCIgZm9udC1mYW1pbHk9InNhbnMtc2VyaWYiIGZvbnQtc2l6ZT0iMTQiIGxlbmd0aEFkanVzdD0ic3BhY2luZyIgdGV4dExlbmd0aD0iNTYiIHg9IjU5NiIgeT0iMTQ3NS4xNzE5Ij4mIzM1NzYyOyYjMjQwNzI7JiMyMjgzNjsmIzIwNjg3OzwvdGV4dD48dGV4dCBmaWxsPSIjMDAwMDAwIiBmb250LWZhbWlseT0ic2Fucy1zZXJpZiIgZm9udC1zaXplPSIxNCIgbGVuZ3RoQWRqdXN0PSJzcGFjaW5nIiB0ZXh0TGVuZ3RoPSIyOCIgeD0iNTk2IiB5PSIxNDkwLjE1NjMiPiYjMjU0OTA7JiMyNDIwNzs8L3RleHQ+PHRleHQgZmlsbD0iIzAwMDAwMCIgZm9udC1mYW1pbHk9InNhbnMtc2VyaWYiIGZvbnQtc2l6ZT0iMTQiIGxlbmd0aEFkanVzdD0ic3BhY2luZyIgdGV4dExlbmd0aD0iNTYiIHg9IjU5NiIgeT0iMTUwNS4xNDA2Ij4mIzMyMDQ3OyYjMzU3NDU7JiMyNTkxMDsmIzIwODM3OzwvdGV4dD48dGV4dCBmaWxsPSIjMDAwMDAwIiBmb250LWZhbWlseT0ic2Fucy1zZXJpZiIgZm9udC1zaXplPSIxNCIgbGVuZ3RoQWRqdXN0PSJzcGFjaW5nIiB0ZXh0TGVuZ3RoPSI3MCIgeD0iNTk2IiB5PSIxNTIwLjEyNSI+JiMyMTQ4NzsmIzI1NTUyOyYjMjk2MTY7JiMzNzMyOTsmIzM5MDY5OzwvdGV4dD48dGV4dCBmaWxsPSIjMDAwMDAwIiBmb250LWZhbWlseT0ic2Fucy1zZXJpZiIgZm9udC1zaXplPSIxNCIgbGVuZ3RoQWRqdXN0PSJzcGFjaW5nIiB0ZXh0TGVuZ3RoPSI3MCIgeD0iNTk2IiB5PSIxNTM1LjEwOTQiPiYjMjU5MTA7JiMyNzQ1NDsmIzIwMTU0OyYjMjI5OTU7JiMyMTUxNzs8L3RleHQ+PHRleHQgZmlsbD0iIzAwMDAwMCIgZm9udC1mYW1pbHk9InNhbnMtc2VyaWYiIGZvbnQtc2l6ZT0iMTQiIGxlbmd0aEFkanVzdD0ic3BhY2luZyIgdGV4dExlbmd0aD0iNTYiIHg9IjU5NiIgeT0iMTU1MC4wOTM4Ij4mIzM4MTM0OyYjMzQ4OTI7JiMyMTM0NTsmIzIxNDk1OzwvdGV4dD48dGV4dCBmaWxsPSIjMDAwMDAwIiBmb250LWZhbWlseT0ic2Fucy1zZXJpZiIgZm9udC1zaXplPSIxNCIgbGVuZ3RoQWRqdXN0PSJzcGFjaW5nIiB0ZXh0TGVuZ3RoPSI1NiIgeD0iNTk2IiB5PSIxNTY1LjA3ODEiPiYjMjU5MTA7JiMyNzQ1NDsmIzM4MTM0OyYjMzQ4OTI7PC90ZXh0Pjx0ZXh0IGZpbGw9IiMwMDAwMDAiIGZvbnQtZmFtaWx5PSJzYW5zLXNlcmlmIiBmb250LXNpemU9IjE0IiBsZW5ndGhBZGp1c3Q9InNwYWNpbmciIHRleHRMZW5ndGg9IjU2IiB4PSI1OTYiIHk9IjE1ODAuMDYyNSI+JiMzNjkyMzsmIzM2NzUzOyYjMjEwMjQ7JiMzODUwMDs8L3RleHQ+PHRleHQgZmlsbD0iIzAwMDAwMCIgZm9udC1mYW1pbHk9InNhbnMtc2VyaWYiIGZvbnQtc2l6ZT0iMTQiIGxlbmd0aEFkanVzdD0ic3BhY2luZyIgdGV4dExlbmd0aD0iNTYiIHg9IjU5NiIgeT0iMTU5NS4wNDY5Ij4mIzIxMDE5OyYjMjQzMTQ7JiMyNjEwMjsmIzM4Mzg4OzwvdGV4dD48dGV4dCBmaWxsPSIjMDAwMDAwIiBmb250LWZhbWlseT0ic2Fucy1zZXJpZiIgZm9udC1zaXplPSIxNCIgbGVuZ3RoQWRqdXN0PSJzcGFjaW5nIiB0ZXh0TGVuZ3RoPSI0MiIgeD0iNTk2IiB5PSIxNjEwLjAzMTMiPiYjMjEwMTk7JiMyNDMxNDsmIzIwMTU0OzwvdGV4dD48dGV4dCBmaWxsPSIjMDAwMDAwIiBmb250LWZhbWlseT0ic2Fucy1zZXJpZiIgZm9udC1zaXplPSIxNCIgbGVuZ3RoQWRqdXN0PSJzcGFjaW5nIiB0ZXh0TGVuZ3RoPSI0MiIgeD0iNTk2IiB5PSIxNjI1LjAxNTYiPiYjMjYzNTY7JiMyNjAzMjsmIzIwMTU0OzwvdGV4dD48dGV4dCBmaWxsPSIjMDAwMDAwIiBmb250LWZhbWlseT0ic2Fucy1zZXJpZiIgZm9udC1zaXplPSIxNCIgbGVuZ3RoQWRqdXN0PSJzcGFjaW5nIiB0ZXh0TGVuZ3RoPSI1NiIgeD0iNTk2IiB5PSIxNjQwIj4mIzI2MzU2OyYjMjYwMzI7JiMyNjEwMjsmIzM4Mzg4OzwvdGV4dD48dGV4dCBmaWxsPSIjMDAwMDAwIiBmb250LWZhbWlseT0ic2Fucy1zZXJpZiIgZm9udC1zaXplPSIxNCIgbGVuZ3RoQWRqdXN0PSJzcGFjaW5nIiB0ZXh0TGVuZ3RoPSI4NCIgeD0iNTk2IiB5PSIxNjU0Ljk4NDQiPiYjMzU3NjI7JiMyNDA3MjsmIzM1ODE0OyYjMjQ3NzM7JiMyMDE3MTsmIzMyNDYxOzwvdGV4dD48bGluZSBzdHlsZT0ic3Ryb2tlOiMxODE4MTg7c3Ryb2tlLXdpZHRoOjAuNTsiIHgxPSI1NzciIHgyPSI2ODUiIHkxPSIxNjYwLjczNDQiIHkyPSIxNjYwLjczNDQiLz48L2c+PCEtLWNsYXNzIENvdXJzZVZpZGVvLS0+PGcgaWQ9ImVsZW1fQ291cnNlVmlkZW8iPjxyZWN0IGNvZGVMaW5lPSIyNDIiIGZpbGw9IiNGMUYxRjEiIGhlaWdodD0iMzYyLjY3MTkiIGlkPSJDb3Vyc2VWaWRlbyIgcng9IjIuNSIgcnk9IjIuNSIgc3R5bGU9InN0cm9rZTojMTgxODE4O3N0cm9rZS13aWR0aDowLjU7IiB3aWR0aD0iMTI0IiB4PSIyOTUiIHk9IjciLz48ZWxsaXBzZSBjeD0iMzE5LjkiIGN5PSIyMyIgZmlsbD0iI0FERDFCMiIgcng9IjExIiByeT0iMTEiIHN0eWxlPSJzdHJva2U6IzE4MTgxODtzdHJva2Utd2lkdGg6MS4wOyIvPjxwYXRoIGQ9Ik0zMjMuNTI1LDI5IEwzMjMuNTI1LDI3LjI1IEwzMTguMjEyNSwyNy4yNSBRMzE4LjIxMjUsMjcuMjUgMzE4LjIxMjUsMjMuNjg3NSBMMzIyLjQ2MjUsMjMuNjg3NSBMMzIyLjQ2MjUsMjEuOTM3NSBMMzE4LjIxMjUsMjEuOTM3NSBMMzE4LjIxMjUsMTkuNDM3NSBMMzIzLjUyNSwxOS40Mzc1IEwzMjMuNTI1LDE3LjY4NzUgTDMxNi40NjI1LDE3LjY4NzUgUTMxNi40NjI1LDE3LjY4NzUgMzE2LjQ2MjUsMjkgTDMyMy41MjUsMjkgWiAiIGZpbGw9IiMwMDAwMDAiLz48dGV4dCBmaWxsPSIjMDAwMDAwIiBmb250LWZhbWlseT0ic2Fucy1zZXJpZiIgZm9udC1zaXplPSIxNCIgbGVuZ3RoQWRqdXN0PSJzcGFjaW5nIiB0ZXh0TGVuZ3RoPSI3MCIgeD0iMzM2LjEiIHk9IjI4Ljc0MjIiPiYjMzU4Mzg7JiMzMTI0MzsmIzM1MjcwOyYjMzkwNTc7JiMzNDkyMDs8L3RleHQ+PGxpbmUgc3R5bGU9InN0cm9rZTojMTgxODE4O3N0cm9rZS13aWR0aDowLjU7IiB4MT0iMjk2IiB4Mj0iNDE4IiB5MT0iMzkiIHkyPSIzOSIvPjxlbGxpcHNlIGN4PSIzMDYiIGN5PSI1MS45OTIyIiBmaWxsPSJub25lIiByeD0iMyIgcnk9IjMiIHN0eWxlPSJzdHJva2U6IzAzODA0ODtzdHJva2Utd2lkdGg6MS4wOyIvPjx0ZXh0IGZpbGw9IiMwMDAwMDAiIGZvbnQtZmFtaWx5PSJzYW5zLXNlcmlmIiBmb250LXNpemU9IjE0IiBsZW5ndGhBZGp1c3Q9InNwYWNpbmciIHRleHRMZW5ndGg9IjQyIiB4PSIzMTUiIHk9IjU2LjIzNDQiPiYjMzUyNzA7JiMzOTA1NztJRDwvdGV4dD48dGV4dCBmaWxsPSIjMDAwMDAwIiBmb250LWZhbWlseT0ic2Fucy1zZXJpZiIgZm9udC1zaXplPSIxNCIgbGVuZ3RoQWRqdXN0PSJzcGFjaW5nIiB0ZXh0TGVuZ3RoPSI0MiIgeD0iMzE1IiB5PSI3MS4yMTg4Ij4mIzM1ODM4OyYjMzEyNDM7SUQ8L3RleHQ+PHRleHQgZmlsbD0iIzAwMDAwMCIgZm9udC1mYW1pbHk9InNhbnMtc2VyaWYiIGZvbnQtc2l6ZT0iMTQiIGxlbmd0aEFkanVzdD0ic3BhY2luZyIgdGV4dExlbmd0aD0iNDIiIHg9IjMxNSIgeT0iODYuMjAzMSI+JiMzMTQ1NjsmIzMzNDEwO0lEPC90ZXh0Pjx0ZXh0IGZpbGw9IiMwMDAwMDAiIGZvbnQtZmFtaWx5PSJzYW5zLXNlcmlmIiBmb250LXNpemU9IjE0IiBsZW5ndGhBZGp1c3Q9InNwYWNpbmciIHRleHRMZW5ndGg9IjU2IiB4PSIzMTUiIHk9IjEwMS4xODc1Ij4mIzMzNDEwOyYjMjg4NTc7JiMyMTUxNzsmIzMxMjE2OzwvdGV4dD48dGV4dCBmaWxsPSIjMDAwMDAwIiBmb250LWZhbWlseT0ic2Fucy1zZXJpZiIgZm9udC1zaXplPSIxNCIgbGVuZ3RoQWRqdXN0PSJzcGFjaW5nIiB0ZXh0TGVuZ3RoPSI1NiIgeD0iMzE1IiB5PSIxMTYuMTcxOSI+JiMyNTQ5MDsmIzI0MjA3OyYjMjMzODM7JiMyNzU3Mzs8L3RleHQ+PHRleHQgZmlsbD0iIzAwMDAwMCIgZm9udC1mYW1pbHk9InNhbnMtc2VyaWYiIGZvbnQtc2l6ZT0iMTQiIGxlbmd0aEFkanVzdD0ic3BhY2luZyIgdGV4dExlbmd0aD0iNTYiIHg9IjMxNSIgeT0iMTMxLjE1NjMiPiYjMjU3NzM7JiMyNTkxODsmIzI3NDI1OyYjMjU5Njg7PC90ZXh0Pjx0ZXh0IGZpbGw9IiMwMDAwMDAiIGZvbnQtZmFtaWx5PSJzYW5zLXNlcmlmIiBmb250LXNpemU9IjE0IiBsZW5ndGhBZGp1c3Q9InNwYWNpbmciIHRleHRMZW5ndGg9IjcwIiB4PSIzMTUiIHk9IjE0Ni4xNDA2Ij4mIzIxNDg3OyYjMzU3OTc7JiMyMTU0ODsmIzI5MzY2OyYjMjQ1Nzc7PC90ZXh0Pjx0ZXh0IGZpbGw9IiMwMDAwMDAiIGZvbnQtZmFtaWx5PSJzYW5zLXNlcmlmIiBmb250LXNpemU9IjE0IiBsZW5ndGhBZGp1c3Q9InNwYWNpbmciIHRleHRMZW5ndGg9IjU2IiB4PSIzMTUiIHk9IjE2MS4xMjUiPiYjMzUyNzA7JiMzOTA1NzsmIzM2MTY0OyYjMjgzMDQ7PC90ZXh0Pjx0ZXh0IGZpbGw9IiMwMDAwMDAiIGZvbnQtZmFtaWx5PSJzYW5zLXNlcmlmIiBmb250LXNpemU9IjE0IiBsZW5ndGhBZGp1c3Q9InNwYWNpbmciIHRleHRMZW5ndGg9IjU2IiB4PSIzMTUiIHk9IjE3Ni4xMDk0Ij4mIzM1MjcwOyYjMzkwNTc7JiMyNjEwMjsmIzM4MjcxOzwvdGV4dD48dGV4dCBmaWxsPSIjMDAwMDAwIiBmb250LWZhbWlseT0ic2Fucy1zZXJpZiIgZm9udC1zaXplPSIxNCIgbGVuZ3RoQWRqdXN0PSJzcGFjaW5nIiB0ZXh0TGVuZ3RoPSI1NiIgeD0iMzE1IiB5PSIxOTEuMDkzOCI+JiMzOTA0NDsmIzM1MjcyOyYjMjYxMDI7JiMzODI3MTs8L3RleHQ+PHRleHQgZmlsbD0iIzAwMDAwMCIgZm9udC1mYW1pbHk9InNhbnMtc2VyaWYiIGZvbnQtc2l6ZT0iMTQiIGxlbmd0aEFkanVzdD0ic3BhY2luZyIgdGV4dExlbmd0aD0iNTYiIHg9IjMxNSIgeT0iMjA2LjA3ODEiPiYjMzUyNzA7JiMzOTA1NzsmIzI5MzY2OyYjMjQ1Nzc7PC90ZXh0Pjx0ZXh0IGZpbGw9IiMwMDAwMDAiIGZvbnQtZmFtaWx5PSJzYW5zLXNlcmlmIiBmb250LXNpemU9IjE0IiBsZW5ndGhBZGp1c3Q9InNwYWNpbmciIHRleHRMZW5ndGg9Ijk4IiB4PSIzMTUiIHk9IjIyMS4wNjI1Ij4mIzM1MjcwOyYjMzkwNTc7JiMyODMwNDsmIzI1OTkxOyYjMjAyMTQ7JiMyMjgyMzsmIzIzNTY3OzwvdGV4dD48dGV4dCBmaWxsPSIjMDAwMDAwIiBmb250LWZhbWlseT0ic2Fucy1zZXJpZiIgZm9udC1zaXplPSIxNCIgbGVuZ3RoQWRqdXN0PSJzcGFjaW5nIiB0ZXh0TGVuZ3RoPSI0MiIgeD0iMzE1IiB5PSIyMzYuMDQ2OSI+JiMyMDA0ODsmIzM1MjY2OyYjMzgxNDU7PC90ZXh0Pjx0ZXh0IGZpbGw9IiMwMDAwMDAiIGZvbnQtZmFtaWx5PSJzYW5zLXNlcmlmIiBmb250LXNpemU9IjE0IiBsZW5ndGhBZGp1c3Q9InNwYWNpbmciIHRleHRMZW5ndGg9Ijg0IiB4PSIzMTUiIHk9IjI1MS4wMzEzIj4mIzM1MjcwOyYjMzkwNTc7JiMyMTQwNzsmIzIyOTg3OyYjMjE1MTc7JiMzMTIxNjs8L3RleHQ+PHRleHQgZmlsbD0iIzAwMDAwMCIgZm9udC1mYW1pbHk9InNhbnMtc2VyaWYiIGZvbnQtc2l6ZT0iMTQiIGxlbmd0aEFkanVzdD0ic3BhY2luZyIgdGV4dExlbmd0aD0iNDkiIHg9IjMxNSIgeT0iMjY2LjAxNTYiPiYjMzUyNzA7JiMzOTA1NztLZXk8L3RleHQ+PHRleHQgZmlsbD0iIzAwMDAwMCIgZm9udC1mYW1pbHk9InNhbnMtc2VyaWYiIGZvbnQtc2l6ZT0iMTQiIGxlbmd0aEFkanVzdD0ic3BhY2luZyIgdGV4dExlbmd0aD0iNTYiIHg9IjMxNSIgeT0iMjgxIj4mIzIxMDE5OyYjMjQzMTQ7JiMyNjEwMjsmIzM4Mzg4OzwvdGV4dD48dGV4dCBmaWxsPSIjMDAwMDAwIiBmb250LWZhbWlseT0ic2Fucy1zZXJpZiIgZm9udC1zaXplPSIxNCIgbGVuZ3RoQWRqdXN0PSJzcGFjaW5nIiB0ZXh0TGVuZ3RoPSI0MiIgeD0iMzE1IiB5PSIyOTUuOTg0NCI+JiMyMTAxOTsmIzI0MzE0OyYjMjAxNTQ7PC90ZXh0Pjx0ZXh0IGZpbGw9IiMwMDAwMDAiIGZvbnQtZmFtaWx5PSJzYW5zLXNlcmlmIiBmb250LXNpemU9IjE0IiBsZW5ndGhBZGp1c3Q9InNwYWNpbmciIHRleHRMZW5ndGg9IjU2IiB4PSIzMTUiIHk9IjMxMC45Njg4Ij4mIzI2MzU2OyYjMjYwMzI7JiMyNjEwMjsmIzM4Mzg4OzwvdGV4dD48dGV4dCBmaWxsPSIjMDAwMDAwIiBmb250LWZhbWlseT0ic2Fucy1zZXJpZiIgZm9udC1zaXplPSIxNCIgbGVuZ3RoQWRqdXN0PSJzcGFjaW5nIiB0ZXh0TGVuZ3RoPSI0MiIgeD0iMzE1IiB5PSIzMjUuOTUzMSI+JiMyNjM1NjsmIzI2MDMyOyYjMjAxNTQ7PC90ZXh0Pjx0ZXh0IGZpbGw9IiMwMDAwMDAiIGZvbnQtZmFtaWx5PSJzYW5zLXNlcmlmIiBmb250LXNpemU9IjE0IiBsZW5ndGhBZGp1c3Q9InNwYWNpbmciIHRleHRMZW5ndGg9IjI4IiB4PSIzMTUiIHk9IjM0MC45Mzc1Ij4mIzIyNzkxOyYjMjc4ODA7PC90ZXh0Pjx0ZXh0IGZpbGw9IiMwMDAwMDAiIGZvbnQtZmFtaWx5PSJzYW5zLXNlcmlmIiBmb250LXNpemU9IjE0IiBsZW5ndGhBZGp1c3Q9InNwYWNpbmciIHRleHRMZW5ndGg9IjU2IiB4PSIzMTUiIHk9IjM1NS45MjE5Ij4mIzM2OTIzOyYjMzY3NTM7JiMyMTAyNDsmIzM4NTAwOzwvdGV4dD48bGluZSBzdHlsZT0ic3Ryb2tlOiMxODE4MTg7c3Ryb2tlLXdpZHRoOjAuNTsiIHgxPSIyOTYiIHgyPSI0MTgiIHkxPSIzNjEuNjcxOSIgeTI9IjM2MS42NzE5Ii8+PC9nPjwhLS1jbGFzcyBWaWRlb1BsYXlSZWNvcmQtLT48ZyBpZD0iZWxlbV9WaWRlb1BsYXlSZWNvcmQiPjxyZWN0IGNvZGVMaW5lPSIyNjYiIGZpbGw9IiNGMUYxRjEiIGhlaWdodD0iMzAyLjczNDQiIGlkPSJWaWRlb1BsYXlSZWNvcmQiIHJ4PSIyLjUiIHJ5PSIyLjUiIHN0eWxlPSJzdHJva2U6IzE4MTgxODtzdHJva2Utd2lkdGg6MC41OyIgd2lkdGg9IjE1OCIgeD0iOTY2IiB5PSI0NjcuNSIvPjxlbGxpcHNlIGN4PSI5ODEiIGN5PSI0ODMuNSIgZmlsbD0iI0FERDFCMiIgcng9IjExIiByeT0iMTEiIHN0eWxlPSJzdHJva2U6IzE4MTgxODtzdHJva2Utd2lkdGg6MS4wOyIvPjxwYXRoIGQ9Ik05ODQuNjI1LDQ4OS41IEw5ODQuNjI1LDQ4Ny43NSBMOTc5LjMxMjUsNDg3Ljc1IFE5NzkuMzEyNSw0ODcuNzUgOTc5LjMxMjUsNDg0LjE4NzUgTDk4My41NjI1LDQ4NC4xODc1IEw5ODMuNTYyNSw0ODIuNDM3NSBMOTc5LjMxMjUsNDgyLjQzNzUgTDk3OS4zMTI1LDQ3OS45Mzc1IEw5ODQuNjI1LDQ3OS45Mzc1IEw5ODQuNjI1LDQ3OC4xODc1IEw5NzcuNTYyNSw0NzguMTg3NSBROTc3LjU2MjUsNDc4LjE4NzUgOTc3LjU2MjUsNDg5LjUgTDk4NC42MjUsNDg5LjUgWiAiIGZpbGw9IiMwMDAwMDAiLz48dGV4dCBmaWxsPSIjMDAwMDAwIiBmb250LWZhbWlseT0ic2Fucy1zZXJpZiIgZm9udC1zaXplPSIxNCIgbGVuZ3RoQWRqdXN0PSJzcGFjaW5nIiB0ZXh0TGVuZ3RoPSIxMjYiIHg9Ijk5NSIgeT0iNDg5LjI0MjIiPiYjMjAyNTA7JiMyMTU5MjsmIzM1MjcwOyYjMzkwNTc7JiMyNTc3MzsmIzI1OTE4OyYjMzU3NjA7JiMyNDQwNTsmIzM0OTIwOzwvdGV4dD48bGluZSBzdHlsZT0ic3Ryb2tlOiMxODE4MTg7c3Ryb2tlLXdpZHRoOjAuNTsiIHgxPSI5NjciIHgyPSIxMTIzIiB5MT0iNDk5LjUiIHkyPSI0OTkuNSIvPjxlbGxpcHNlIGN4PSI5NzciIGN5PSI1MTIuNDkyMiIgZmlsbD0ibm9uZSIgcng9IjMiIHJ5PSIzIiBzdHlsZT0ic3Ryb2tlOiMwMzgwNDg7c3Ryb2tlLXdpZHRoOjEuMDsiLz48dGV4dCBmaWxsPSIjMDAwMDAwIiBmb250LWZhbWlseT0ic2Fucy1zZXJpZiIgZm9udC1zaXplPSIxNCIgbGVuZ3RoQWRqdXN0PSJzcGFjaW5nIiB0ZXh0TGVuZ3RoPSI0MiIgeD0iOTg2IiB5PSI1MTYuNzM0NCI+JiMzMzI1ODsmIzIyNjg2O0lEPC90ZXh0Pjx0ZXh0IGZpbGw9IiMwMDAwMDAiIGZvbnQtZmFtaWx5PSJzYW5zLXNlcmlmIiBmb250LXNpemU9IjE0IiBsZW5ndGhBZGp1c3Q9InNwYWNpbmciIHRleHRMZW5ndGg9IjQyIiB4PSI5ODYiIHk9IjUzMS43MTg4Ij4mIzM1MjcwOyYjMzkwNTc7SUQ8L3RleHQ+PHRleHQgZmlsbD0iIzAwMDAwMCIgZm9udC1mYW1pbHk9InNhbnMtc2VyaWYiIGZvbnQtc2l6ZT0iMTQiIGxlbmd0aEFkanVzdD0ic3BhY2luZyIgdGV4dExlbmd0aD0iNDIiIHg9Ijk4NiIgeT0iNTQ2LjcwMzEiPiYjMjAyNTA7JiMyMTU5MjtJRDwvdGV4dD48dGV4dCBmaWxsPSIjMDAwMDAwIiBmb250LWZhbWlseT0ic2Fucy1zZXJpZiIgZm9udC1zaXplPSIxNCIgbGVuZ3RoQWRqdXN0PSJzcGFjaW5nIiB0ZXh0TGVuZ3RoPSI1NiIgeD0iOTg2IiB5PSI1NjEuNjg3NSI+JiMyNTc3MzsmIzI1OTE4OyYjMjc0MjU7JiMyNTk2ODs8L3RleHQ+PHRleHQgZmlsbD0iIzAwMDAwMCIgZm9udC1mYW1pbHk9InNhbnMtc2VyaWYiIGZvbnQtc2l6ZT0iMTQiIGxlbmd0aEFkanVzdD0ic3BhY2luZyIgdGV4dExlbmd0aD0iNzAiIHg9Ijk4NiIgeT0iNTc2LjY3MTkiPiYjMjQwNTA7JiMyNTc3MzsmIzI1OTE4OyYjMjYxMDI7JiMzODI3MTs8L3RleHQ+PHRleHQgZmlsbD0iIzAwMDAwMCIgZm9udC1mYW1pbHk9InNhbnMtc2VyaWYiIGZvbnQtc2l6ZT0iMTQiIGxlbmd0aEFkanVzdD0ic3BhY2luZyIgdGV4dExlbmd0aD0iNTYiIHg9Ijk4NiIgeT0iNTkxLjY1NjMiPiYjMjU4MDU7JiMyMDMxNjsmIzMyNzczO0lQPC90ZXh0Pjx0ZXh0IGZpbGw9IiMwMDAwMDAiIGZvbnQtZmFtaWx5PSJzYW5zLXNlcmlmIiBmb250LXNpemU9IjE0IiBsZW5ndGhBZGp1c3Q9InNwYWNpbmciIHRleHRMZW5ndGg9IjcwIiB4PSI5ODYiIHk9IjYwNi42NDA2Ij4mIzIyMjY5OyYjMjM0Nzg7JiMyNTExMDsmIzIyMzIwOyYjMjEzMDY7PC90ZXh0Pjx0ZXh0IGZpbGw9IiMwMDAwMDAiIGZvbnQtZmFtaWx5PSJzYW5zLXNlcmlmIiBmb250LXNpemU9IjE0IiBsZW5ndGhBZGp1c3Q9InNwYWNpbmciIHRleHRMZW5ndGg9IjI4IiB4PSI5ODYiIHk9IjYyMS42MjUiPiYjMjEzMDY7JiMyMjQ5NTs8L3RleHQ+PHRleHQgZmlsbD0iIzAwMDAwMCIgZm9udC1mYW1pbHk9InNhbnMtc2VyaWYiIGZvbnQtc2l6ZT0iMTQiIGxlbmd0aEFkanVzdD0ic3BhY2luZyIgdGV4dExlbmd0aD0iNTYiIHg9Ijk4NiIgeT0iNjM2LjYwOTQiPiYjMjUxNTI7JiMyMzY0NjsmIzMwNDY1OyYjMjAyMjE7PC90ZXh0Pjx0ZXh0IGZpbGw9IiMwMDAwMDAiIGZvbnQtZmFtaWx5PSJzYW5zLXNlcmlmIiBmb250LXNpemU9IjE0IiBsZW5ndGhBZGp1c3Q9InNwYWNpbmciIHRleHRMZW5ndGg9IjI4IiB4PSI5ODYiIHk9IjY1MS41OTM4Ij4mIzIyNDc4OyYjMjQwNjY7PC90ZXh0Pjx0ZXh0IGZpbGw9IiMwMDAwMDAiIGZvbnQtZmFtaWx5PSJzYW5zLXNlcmlmIiBmb250LXNpemU9IjE0IiBsZW5ndGhBZGp1c3Q9InNwYWNpbmciIHRleHRMZW5ndGg9Ijk4IiB4PSI5ODYiIHk9IjY2Ni41NzgxIj4mIzMyNTkzOyYjMzI0NzY7JiMyNjM4MTsmIzIxMTUzOyYjMjU1NTI7JiMyMDM3OTsmIzIxODMwOzwvdGV4dD48dGV4dCBmaWxsPSIjMDAwMDAwIiBmb250LWZhbWlseT0ic2Fucy1zZXJpZiIgZm9udC1zaXplPSIxNCIgbGVuZ3RoQWRqdXN0PSJzcGFjaW5nIiB0ZXh0TGVuZ3RoPSI1NiIgeD0iOTg2IiB5PSI2ODEuNTYyNSI+JiMyMTAxOTsmIzI0MzE0OyYjMjYxMDI7JiMzODM4ODs8L3RleHQ+PHRleHQgZmlsbD0iIzAwMDAwMCIgZm9udC1mYW1pbHk9InNhbnMtc2VyaWYiIGZvbnQtc2l6ZT0iMTQiIGxlbmd0aEFkanVzdD0ic3BhY2luZyIgdGV4dExlbmd0aD0iNDIiIHg9Ijk4NiIgeT0iNjk2LjU0NjkiPiYjMjEwMTk7JiMyNDMxNDsmIzIwMTU0OzwvdGV4dD48dGV4dCBmaWxsPSIjMDAwMDAwIiBmb250LWZhbWlseT0ic2Fucy1zZXJpZiIgZm9udC1zaXplPSIxNCIgbGVuZ3RoQWRqdXN0PSJzcGFjaW5nIiB0ZXh0TGVuZ3RoPSI0MiIgeD0iOTg2IiB5PSI3MTEuNTMxMyI+JiMyNjM1NjsmIzI2MDMyOyYjMjAxNTQ7PC90ZXh0Pjx0ZXh0IGZpbGw9IiMwMDAwMDAiIGZvbnQtZmFtaWx5PSJzYW5zLXNlcmlmIiBmb250LXNpemU9IjE0IiBsZW5ndGhBZGp1c3Q9InNwYWNpbmciIHRleHRMZW5ndGg9Ijg0IiB4PSI5ODYiIHk9IjcyNi41MTU2Ij4mIzI2MzY4OyYjMjE1MTg7JiMyNTc3MzsmIzI1OTE4OyYjMjYxMDI7JiMzODM4ODs8L3RleHQ+PHRleHQgZmlsbD0iIzAwMDAwMCIgZm9udC1mYW1pbHk9InNhbnMtc2VyaWYiIGZvbnQtc2l6ZT0iMTQiIGxlbmd0aEFkanVzdD0ic3BhY2luZyIgdGV4dExlbmd0aD0iNTYiIHg9Ijk4NiIgeT0iNzQxLjUiPiYjMzY5MjM7JiMzNjc1MzsmIzIxMDI0OyYjMzg1MDA7PC90ZXh0Pjx0ZXh0IGZpbGw9IiMwMDAwMDAiIGZvbnQtZmFtaWx5PSJzYW5zLXNlcmlmIiBmb250LXNpemU9IjE0IiBsZW5ndGhBZGp1c3Q9InNwYWNpbmciIHRleHRMZW5ndGg9IjI4IiB4PSI5ODYiIHk9Ijc1Ni40ODQ0Ij4mIzIyNzkxOyYjMjc4ODA7PC90ZXh0PjxsaW5lIHN0eWxlPSJzdHJva2U6IzE4MTgxODtzdHJva2Utd2lkdGg6MC41OyIgeDE9Ijk2NyIgeDI9IjExMjMiIHkxPSI3NjIuMjM0NCIgeTI9Ijc2Mi4yMzQ0Ii8+PC9nPjwhLS1jbGFzcyBWSVBUeXBlcy0tPjxnIGlkPSJlbGVtX1ZJUFR5cGVzIj48cmVjdCBjb2RlTGluZT0iMjg2IiBmaWxsPSIjRjFGMUYxIiBoZWlnaHQ9IjE4Mi44NTk0IiBpZD0iVklQVHlwZXMiIHJ4PSIyLjUiIHJ5PSIyLjUiIHN0eWxlPSJzdHJva2U6IzE4MTgxODtzdHJva2Utd2lkdGg6MC41OyIgd2lkdGg9IjEyMyIgeD0iMTE1OS41IiB5PSI1MjcuNSIvPjxlbGxpcHNlIGN4PSIxMTc0LjUiIGN5PSI1NDMuNSIgZmlsbD0iI0FERDFCMiIgcng9IjExIiByeT0iMTEiIHN0eWxlPSJzdHJva2U6IzE4MTgxODtzdHJva2Utd2lkdGg6MS4wOyIvPjxwYXRoIGQ9Ik0xMTc4LjEyNSw1NDkuNSBMMTE3OC4xMjUsNTQ3Ljc1IEwxMTcyLjgxMjUsNTQ3Ljc1IFExMTcyLjgxMjUsNTQ3Ljc1IDExNzIuODEyNSw1NDQuMTg3NSBMMTE3Ny4wNjI1LDU0NC4xODc1IEwxMTc3LjA2MjUsNTQyLjQzNzUgTDExNzIuODEyNSw1NDIuNDM3NSBMMTE3Mi44MTI1LDUzOS45Mzc1IEwxMTc4LjEyNSw1MzkuOTM3NSBMMTE3OC4xMjUsNTM4LjE4NzUgTDExNzEuMDYyNSw1MzguMTg3NSBRMTE3MS4wNjI1LDUzOC4xODc1IDExNzEuMDYyNSw1NDkuNSBMMTE3OC4xMjUsNTQ5LjUgWiAiIGZpbGw9IiMwMDAwMDAiLz48dGV4dCBmaWxsPSIjMDAwMDAwIiBmb250LWZhbWlseT0ic2Fucy1zZXJpZiIgZm9udC1zaXplPSIxNCIgbGVuZ3RoQWRqdXN0PSJzcGFjaW5nIiB0ZXh0TGVuZ3RoPSI5MSIgeD0iMTE4OC41IiB5PSI1NDkuMjQyMiI+VklQJiMyMDI1MDsmIzIxNTkyOyYjMzE4Njc7JiMyMjQxMTsmIzM0OTIwOzwvdGV4dD48bGluZSBzdHlsZT0ic3Ryb2tlOiMxODE4MTg7c3Ryb2tlLXdpZHRoOjAuNTsiIHgxPSIxMTYwLjUiIHgyPSIxMjgxLjUiIHkxPSI1NTkuNSIgeTI9IjU1OS41Ii8+PGVsbGlwc2UgY3g9IjExNzAuNSIgY3k9IjU3Mi40OTIyIiBmaWxsPSJub25lIiByeD0iMyIgcnk9IjMiIHN0eWxlPSJzdHJva2U6IzAzODA0ODtzdHJva2Utd2lkdGg6MS4wOyIvPjx0ZXh0IGZpbGw9IiMwMDAwMDAiIGZvbnQtZmFtaWx5PSJzYW5zLXNlcmlmIiBmb250LXNpemU9IjE0IiBsZW5ndGhBZGp1c3Q9InNwYWNpbmciIHRleHRMZW5ndGg9IjQyIiB4PSIxMTc5LjUiIHk9IjU3Ni43MzQ0Ij4mIzMzMjU4OyYjMjI2ODY7SUQ8L3RleHQ+PHRleHQgZmlsbD0iIzAwMDAwMCIgZm9udC1mYW1pbHk9InNhbnMtc2VyaWYiIGZvbnQtc2l6ZT0iMTQiIGxlbmd0aEFkanVzdD0ic3BhY2luZyIgdGV4dExlbmd0aD0iNTYiIHg9IjExNzkuNSIgeT0iNTkxLjcxODgiPiYjMjAyNTA7JiMyMTU5MjsmIzIxNTE3OyYjMzEyMTY7PC90ZXh0Pjx0ZXh0IGZpbGw9IiMwMDAwMDAiIGZvbnQtZmFtaWx5PSJzYW5zLXNlcmlmIiBmb250LXNpemU9IjE0IiBsZW5ndGhBZGp1c3Q9InNwYWNpbmciIHRleHRMZW5ndGg9IjU2IiB4PSIxMTc5LjUiIHk9IjYwNi43MDMxIj4mIzIwMjUwOyYjMjE1OTI7JiMyMDIxNTsmIzI2Njg0OzwvdGV4dD48dGV4dCBmaWxsPSIjMDAwMDAwIiBmb250LWZhbWlseT0ic2Fucy1zZXJpZiIgZm9udC1zaXplPSIxNCIgbGVuZ3RoQWRqdXN0PSJzcGFjaW5nIiB0ZXh0TGVuZ3RoPSI1NiIgeD0iMTE3OS41IiB5PSI2MjEuNjg3NSI+JiMyMTAxOTsmIzI0MzE0OyYjMjYxMDI7JiMzODM4ODs8L3RleHQ+PHRleHQgZmlsbD0iIzAwMDAwMCIgZm9udC1mYW1pbHk9InNhbnMtc2VyaWYiIGZvbnQtc2l6ZT0iMTQiIGxlbmd0aEFkanVzdD0ic3BhY2luZyIgdGV4dExlbmd0aD0iNDIiIHg9IjExNzkuNSIgeT0iNjM2LjY3MTkiPiYjMjEwMTk7JiMyNDMxNDsmIzIwMTU0OzwvdGV4dD48dGV4dCBmaWxsPSIjMDAwMDAwIiBmb250LWZhbWlseT0ic2Fucy1zZXJpZiIgZm9udC1zaXplPSIxNCIgbGVuZ3RoQWRqdXN0PSJzcGFjaW5nIiB0ZXh0TGVuZ3RoPSI0MiIgeD0iMTE3OS41IiB5PSI2NTEuNjU2MyI+JiMyNjM1NjsmIzI2MDMyOyYjMjAxNTQ7PC90ZXh0Pjx0ZXh0IGZpbGw9IiMwMDAwMDAiIGZvbnQtZmFtaWx5PSJzYW5zLXNlcmlmIiBmb250LXNpemU9IjE0IiBsZW5ndGhBZGp1c3Q9InNwYWNpbmciIHRleHRMZW5ndGg9IjU2IiB4PSIxMTc5LjUiIHk9IjY2Ni42NDA2Ij4mIzI2MzU2OyYjMjYwMzI7JiMyNjEwMjsmIzM4Mzg4OzwvdGV4dD48dGV4dCBmaWxsPSIjMDAwMDAwIiBmb250LWZhbWlseT0ic2Fucy1zZXJpZiIgZm9udC1zaXplPSIxNCIgbGVuZ3RoQWRqdXN0PSJzcGFjaW5nIiB0ZXh0TGVuZ3RoPSI1NiIgeD0iMTE3OS41IiB5PSI2ODEuNjI1Ij4mIzM2OTIzOyYjMzY3NTM7JiMyMTAyNDsmIzM4NTAwOzwvdGV4dD48dGV4dCBmaWxsPSIjMDAwMDAwIiBmb250LWZhbWlseT0ic2Fucy1zZXJpZiIgZm9udC1zaXplPSIxNCIgbGVuZ3RoQWRqdXN0PSJzcGFjaW5nIiB0ZXh0TGVuZ3RoPSIyOCIgeD0iMTE3OS41IiB5PSI2OTYuNjA5NCI+JiMyMjc5MTsmIzI3ODgwOzwvdGV4dD48bGluZSBzdHlsZT0ic3Ryb2tlOiMxODE4MTg7c3Ryb2tlLXdpZHRoOjAuNTsiIHgxPSIxMTYwLjUiIHgyPSIxMjgxLjUiIHkxPSI3MDIuMzU5NCIgeTI9IjcwMi4zNTk0Ii8+PC9nPjwhLS1jbGFzcyBNZW1iZXJzaGlwQ291cnNlQ2F0ZWdvcnktLT48ZyBpZD0iZWxlbV9NZW1iZXJzaGlwQ291cnNlQ2F0ZWdvcnkiPjxyZWN0IGNvZGVMaW5lPSIyOTgiIGZpbGw9IiNGMUYxRjEiIGhlaWdodD0iMTgyLjg1OTQiIGlkPSJNZW1iZXJzaGlwQ291cnNlQ2F0ZWdvcnkiIHJ4PSIyLjUiIHJ5PSIyLjUiIHN0eWxlPSJzdHJva2U6IzE4MTgxODtzdHJva2Utd2lkdGg6MC41OyIgd2lkdGg9IjIwMCIgeD0iMTMwOSIgeT0iOTciLz48ZWxsaXBzZSBjeD0iMTMyNCIgY3k9IjExMyIgZmlsbD0iI0FERDFCMiIgcng9IjExIiByeT0iMTEiIHN0eWxlPSJzdHJva2U6IzE4MTgxODtzdHJva2Utd2lkdGg6MS4wOyIvPjxwYXRoIGQ9Ik0xMzI3LjYyNSwxMTkgTDEzMjcuNjI1LDExNy4yNSBMMTMyMi4zMTI1LDExNy4yNSBRMTMyMi4zMTI1LDExNy4yNSAxMzIyLjMxMjUsMTEzLjY4NzUgTDEzMjYuNTYyNSwxMTMuNjg3NSBMMTMyNi41NjI1LDExMS45Mzc1IEwxMzIyLjMxMjUsMTExLjkzNzUgTDEzMjIuMzEyNSwxMDkuNDM3NSBMMTMyNy42MjUsMTA5LjQzNzUgTDEzMjcuNjI1LDEwNy42ODc1IEwxMzIwLjU2MjUsMTA3LjY4NzUgUTEzMjAuNTYyNSwxMDcuNjg3NSAxMzIwLjU2MjUsMTE5IEwxMzI3LjYyNSwxMTkgWiAiIGZpbGw9IiMwMDAwMDAiLz48dGV4dCBmaWxsPSIjMDAwMDAwIiBmb250LWZhbWlseT0ic2Fucy1zZXJpZiIgZm9udC1zaXplPSIxNCIgbGVuZ3RoQWRqdXN0PSJzcGFjaW5nIiB0ZXh0TGVuZ3RoPSIxNjgiIHg9IjEzMzgiIHk9IjExOC43NDIyIj4mIzIwMjUwOyYjMjE1OTI7JiMzMTg2NzsmIzIyNDExOyYjMTk5ODI7JiMzNTgzODsmIzMxMjQzOyYjMzE4Njc7JiMyMTAzNTsmIzIwODUxOyYjMzE5OTU7JiMzNDkyMDs8L3RleHQ+PGxpbmUgc3R5bGU9InN0cm9rZTojMTgxODE4O3N0cm9rZS13aWR0aDowLjU7IiB4MT0iMTMxMCIgeDI9IjE1MDgiIHkxPSIxMjkiIHkyPSIxMjkiLz48ZWxsaXBzZSBjeD0iMTMyMCIgY3k9IjE0MS45OTIyIiBmaWxsPSJub25lIiByeD0iMyIgcnk9IjMiIHN0eWxlPSJzdHJva2U6IzAzODA0ODtzdHJva2Utd2lkdGg6MS4wOyIvPjx0ZXh0IGZpbGw9IiMwMDAwMDAiIGZvbnQtZmFtaWx5PSJzYW5zLXNlcmlmIiBmb250LXNpemU9IjE0IiBsZW5ndGhBZGp1c3Q9InNwYWNpbmciIHRleHRMZW5ndGg9IjQyIiB4PSIxMzI5IiB5PSIxNDYuMjM0NCI+JiMzMzI1ODsmIzIyNjg2O0lEPC90ZXh0Pjx0ZXh0IGZpbGw9IiMwMDAwMDAiIGZvbnQtZmFtaWx5PSJzYW5zLXNlcmlmIiBmb250LXNpemU9IjE0IiBsZW5ndGhBZGp1c3Q9InNwYWNpbmciIHRleHRMZW5ndGg9IjYzIiB4PSIxMzI5IiB5PSIxNjEuMjE4OCI+VklQJiMzMTg2NzsmIzIxMDM1O0lEPC90ZXh0Pjx0ZXh0IGZpbGw9IiMwMDAwMDAiIGZvbnQtZmFtaWx5PSJzYW5zLXNlcmlmIiBmb250LXNpemU9IjE0IiBsZW5ndGhBZGp1c3Q9InNwYWNpbmciIHRleHRMZW5ndGg9IjcwIiB4PSIxMzI5IiB5PSIxNzYuMjAzMSI+JiMzNTgzODsmIzMxMjQzOyYjMjA5OTg7JiMzMTg2NztJRDwvdGV4dD48dGV4dCBmaWxsPSIjMDAwMDAwIiBmb250LWZhbWlseT0ic2Fucy1zZXJpZiIgZm9udC1zaXplPSIxNCIgbGVuZ3RoQWRqdXN0PSJzcGFjaW5nIiB0ZXh0TGVuZ3RoPSI1NiIgeD0iMTMyOSIgeT0iMTkxLjE4NzUiPiYjMjEwMTk7JiMyNDMxNDsmIzI2MTAyOyYjMzgzODg7PC90ZXh0Pjx0ZXh0IGZpbGw9IiMwMDAwMDAiIGZvbnQtZmFtaWx5PSJzYW5zLXNlcmlmIiBmb250LXNpemU9IjE0IiBsZW5ndGhBZGp1c3Q9InNwYWNpbmciIHRleHRMZW5ndGg9IjQyIiB4PSIxMzI5IiB5PSIyMDYuMTcxOSI+JiMyMTAxOTsmIzI0MzE0OyYjMjAxNTQ7PC90ZXh0Pjx0ZXh0IGZpbGw9IiMwMDAwMDAiIGZvbnQtZmFtaWx5PSJzYW5zLXNlcmlmIiBmb250LXNpemU9IjE0IiBsZW5ndGhBZGp1c3Q9InNwYWNpbmciIHRleHRMZW5ndGg9IjQyIiB4PSIxMzI5IiB5PSIyMjEuMTU2MyI+JiMyNjM1NjsmIzI2MDMyOyYjMjAxNTQ7PC90ZXh0Pjx0ZXh0IGZpbGw9IiMwMDAwMDAiIGZvbnQtZmFtaWx5PSJzYW5zLXNlcmlmIiBmb250LXNpemU9IjE0IiBsZW5ndGhBZGp1c3Q9InNwYWNpbmciIHRleHRMZW5ndGg9IjU2IiB4PSIxMzI5IiB5PSIyMzYuMTQwNiI+JiMyNjM1NjsmIzI2MDMyOyYjMjYxMDI7JiMzODM4ODs8L3RleHQ+PHRleHQgZmlsbD0iIzAwMDAwMCIgZm9udC1mYW1pbHk9InNhbnMtc2VyaWYiIGZvbnQtc2l6ZT0iMTQiIGxlbmd0aEFkanVzdD0ic3BhY2luZyIgdGV4dExlbmd0aD0iMjgiIHg9IjEzMjkiIHk9IjI1MS4xMjUiPiYjMjI3OTE7JiMyNzg4MDs8L3RleHQ+PHRleHQgZmlsbD0iIzAwMDAwMCIgZm9udC1mYW1pbHk9InNhbnMtc2VyaWYiIGZvbnQtc2l6ZT0iMTQiIGxlbmd0aEFkanVzdD0ic3BhY2luZyIgdGV4dExlbmd0aD0iNTYiIHg9IjEzMjkiIHk9IjI2Ni4xMDk0Ij4mIzM2OTIzOyYjMzY3NTM7JiMyMTAyNDsmIzM4NTAwOzwvdGV4dD48bGluZSBzdHlsZT0ic3Ryb2tlOiMxODE4MTg7c3Ryb2tlLXdpZHRoOjAuNTsiIHgxPSIxMzEwIiB4Mj0iMTUwOCIgeTE9IjI3MS44NTk0IiB5Mj0iMjcxLjg1OTQiLz48L2c+PCEtLXJldmVyc2UgbGluayBDb3Vyc2UgdG8gVGVhY2hlci0tPjxnIGlkPSJsaW5rX0NvdXJzZV9UZWFjaGVyIj48cGF0aCBjb2RlTGluZT0iMzEwIiBkPSJNNjMxLDEzMDMuMTYgQzYzMSwxMzI4LjM5IDYzMSwxMzQxLjc2IDYzMSwxMzY1LjkxICIgZmlsbD0ibm9uZSIgaWQ9IkNvdXJzZS1iYWNrdG8tVGVhY2hlciIgc3R5bGU9InN0cm9rZTojMTgxODE4O3N0cm9rZS13aWR0aDoxLjA7Ii8+PHBvbHlnb24gZmlsbD0iIzE4MTgxOCIgcG9pbnRzPSI2MzEsMTI5MS4xNiw2MjcsMTI5Ny4xNiw2MzEsMTMwMy4xNiw2MzUsMTI5Ny4xNiw2MzEsMTI5MS4xNiIgc3R5bGU9InN0cm9rZTojMTgxODE4O3N0cm9rZS13aWR0aDoxLjA7Ii8+PHRleHQgZmlsbD0iIzAwMDAwMCIgZm9udC1mYW1pbHk9InNhbnMtc2VyaWYiIGZvbnQtc2l6ZT0iMTMiIGxlbmd0aEFkanVzdD0ic3BhY2luZyIgdGV4dExlbmd0aD0iMzkiIHg9IjYzMiIgeT0iMTMzNC4yODkxIj4mIzM1NzYyOyYjMjQwNzI7SUQ8L3RleHQ+PHRleHQgZmlsbD0iIzAwMDAwMCIgZm9udC1mYW1pbHk9InNhbnMtc2VyaWYiIGZvbnQtc2l6ZT0iMTMiIGxlbmd0aEFkanVzdD0ic3BhY2luZyIgdGV4dExlbmd0aD0iNyIgeD0iNjIzLjgwODYiIHk9IjEzNTYuNTg1OCI+MTwvdGV4dD48L2c+PCEtLXJldmVyc2UgbGluayBDb3Vyc2VQdXJjaGFzZSB0byBDb3Vyc2UtLT48ZyBpZD0ibGlua19Db3Vyc2VQdXJjaGFzZV9Db3Vyc2UiPjxwYXRoIGNvZGVMaW5lPSIzMTEiIGQ9Ik02NjQuNDE1Nyw4MDQuOTIxNiBDNjYxLjQyNTcsODI5LjQxMTYgNjU5Ljc4LDg0Mi44OSA2NTYuNzEsODY3Ljk5ICIgZmlsbD0ibm9uZSIgaWQ9IkNvdXJzZVB1cmNoYXNlLWJhY2t0by1Db3Vyc2UiIHN0eWxlPSJzdHJva2U6IzE4MTgxODtzdHJva2Utd2lkdGg6MS4wOyIvPjxwb2x5Z29uIGZpbGw9IiMxODE4MTgiIHBvaW50cz0iNjY1Ljg3LDc5My4wMSw2NjEuMTcyMyw3OTguNDgxLDY2NC40MTU3LDgwNC45MjE2LDY2OS4xMTM0LDc5OS40NTA1LDY2NS44Nyw3OTMuMDEiIHN0eWxlPSJzdHJva2U6IzE4MTgxODtzdHJva2Utd2lkdGg6MS4wOyIvPjx0ZXh0IGZpbGw9IiMwMDAwMDAiIGZvbnQtZmFtaWx5PSJzYW5zLXNlcmlmIiBmb250LXNpemU9IjEzIiBsZW5ndGhBZGp1c3Q9InNwYWNpbmciIHRleHRMZW5ndGg9IjM5IiB4PSI2NjIiIHk9IjgzNi4yODkxIj4mIzM1ODM4OyYjMzEyNDM7SUQ8L3RleHQ+PHRleHQgZmlsbD0iIzAwMDAwMCIgZm9udC1mYW1pbHk9InNhbnMtc2VyaWYiIGZvbnQtc2l6ZT0iMTMiIGxlbmd0aEFkanVzdD0ic3BhY2luZyIgdGV4dExlbmd0aD0iNyIgeD0iNjUwLjY0NyIgeT0iODU4LjEwOTMiPjE8L3RleHQ+PC9nPjwhLS1yZXZlcnNlIGxpbmsgQ291cnNlUHVyY2hhc2UgdG8gTWVtYmVyLS0+PGcgaWQ9ImxpbmtfQ291cnNlUHVyY2hhc2VfTWVtYmVyIj48cGF0aCBjb2RlTGluZT0iMzEyIiBkPSJNNzMwLjkwNDcsODA0LjY4NDggQzc0MC44MjQ3LDg0Ni40MjQ4IDc0OC42MSw4NzkuMTQgNzU4LjM2LDkyMC4xNiAiIGZpbGw9Im5vbmUiIGlkPSJDb3Vyc2VQdXJjaGFzZS1iYWNrdG8tTWVtYmVyIiBzdHlsZT0ic3Ryb2tlOiMxODE4MTg7c3Ryb2tlLXdpZHRoOjEuMDsiLz48cG9seWdvbiBmaWxsPSIjMTgxODE4IiBwb2ludHM9IjcyOC4xMyw3OTMuMDEsNzI1LjYyNTcsNzk5Ljc3MjMsNzMwLjkwNDcsODA0LjY4NDgsNzMzLjQwODksNzk3LjkyMjUsNzI4LjEzLDc5My4wMSIgc3R5bGU9InN0cm9rZTojMTgxODE4O3N0cm9rZS13aWR0aDoxLjA7Ii8+PHRleHQgZmlsbD0iIzAwMDAwMCIgZm9udC1mYW1pbHk9InNhbnMtc2VyaWYiIGZvbnQtc2l6ZT0iMTMiIGxlbmd0aEFkanVzdD0ic3BhY2luZyIgdGV4dExlbmd0aD0iMzkiIHg9Ijc0MCIgeT0iODM2LjI4OTEiPiYjMjAyNTA7JiMyMTU5MjtJRDwvdGV4dD48dGV4dCBmaWxsPSIjMDAwMDAwIiBmb250LWZhbWlseT0ic2Fucy1zZXJpZiIgZm9udC1zaXplPSIxMyIgbGVuZ3RoQWRqdXN0PSJzcGFjaW5nIiB0ZXh0TGVuZ3RoPSI3IiB4PSI3NDkuMjM4NyIgeT0iOTEwLjkyODgiPjE8L3RleHQ+PC9nPjwhLS1yZXZlcnNlIGxpbmsgQ291cnNlVmlkZW8gdG8gQ2hhcHRlci0tPjxnIGlkPSJsaW5rX0NvdXJzZVZpZGVvX0NoYXB0ZXIiPjxwYXRoIGNvZGVMaW5lPSIzMTMiIGQ9Ik0zNTcsMzgyLjI5IEMzNTcsNDMwLjc1IDM1Nyw0NjkuNTUgMzU3LDUxMi40NCAiIGZpbGw9Im5vbmUiIGlkPSJDb3Vyc2VWaWRlby1iYWNrdG8tQ2hhcHRlciIgc3R5bGU9InN0cm9rZTojMTgxODE4O3N0cm9rZS13aWR0aDoxLjA7Ii8+PHBvbHlnb24gZmlsbD0iIzE4MTgxOCIgcG9pbnRzPSIzNTcsMzcwLjI5LDM1MywzNzYuMjksMzU3LDM4Mi4yOSwzNjEsMzc2LjI5LDM1NywzNzAuMjkiIHN0eWxlPSJzdHJva2U6IzE4MTgxODtzdHJva2Utd2lkdGg6MS4wOyIvPjx0ZXh0IGZpbGw9IiMwMDAwMDAiIGZvbnQtZmFtaWx5PSJzYW5zLXNlcmlmIiBmb250LXNpemU9IjEzIiBsZW5ndGhBZGp1c3Q9InNwYWNpbmciIHRleHRMZW5ndGg9IjM5IiB4PSIzNTgiIHk9IjQxMy4yODkxIj4mIzMxNDU2OyYjMzM0MTA7SUQ8L3RleHQ+PHRleHQgZmlsbD0iIzAwMDAwMCIgZm9udC1mYW1pbHk9InNhbnMtc2VyaWYiIGZvbnQtc2l6ZT0iMTMiIGxlbmd0aEFkanVzdD0ic3BhY2luZyIgdGV4dExlbmd0aD0iNyIgeD0iMzQ5LjcyMTEiIHk9IjUwMi43NjI5Ij4xPC90ZXh0PjwvZz48IS0tcmV2ZXJzZSBsaW5rIENoYXB0ZXIgdG8gQ291cnNlLS0+PGcgaWQ9ImxpbmtfQ2hhcHRlcl9Db3Vyc2UiPjxwYXRoIGNvZGVMaW5lPSIzMTQiIGQ9Ik0zOTAuODE2Nyw3MzYuNjc3MSBDNDAwLjYwNjcsNzYwLjQ2NzEgNDA4Ljc0LDc3My4zNiA0MjUsNzkzIEM0NjQuODcsODQxLjE2IDUwMy43Miw4MjAuMTkgNTQ0LDg2OCBDNTUwLjM3LDg3NS41NiA1NTYuMzMsODgzLjY1IDU2MS44OSw4OTIuMSAiIGZpbGw9Im5vbmUiIGlkPSJDaGFwdGVyLWJhY2t0by1Db3Vyc2UiIHN0eWxlPSJzdHJva2U6IzE4MTgxODtzdHJva2Utd2lkdGg6MS4wOyIvPjxwb2x5Z29uIGZpbGw9IiMxODE4MTgiIHBvaW50cz0iMzg2LjI1LDcyNS41OCwzODQuODM0Myw3MzIuNjUwOCwzOTAuODE2Nyw3MzYuNjc3MSwzOTIuMjMyNCw3MjkuNjA2MywzODYuMjUsNzI1LjU4IiBzdHlsZT0ic3Ryb2tlOiMxODE4MTg7c3Ryb2tlLXdpZHRoOjEuMDsiLz48dGV4dCBmaWxsPSIjMDAwMDAwIiBmb250LWZhbWlseT0ic2Fucy1zZXJpZiIgZm9udC1zaXplPSIxMyIgbGVuZ3RoQWRqdXN0PSJzcGFjaW5nIiB0ZXh0TGVuZ3RoPSIzOSIgeD0iNTA1IiB5PSI4MzYuMjg5MSI+JiMzNTgzODsmIzMxMjQzO0lEPC90ZXh0Pjx0ZXh0IGZpbGw9IiMwMDAwMDAiIGZvbnQtZmFtaWx5PSJzYW5zLXNlcmlmIiBmb250LXNpemU9IjEzIiBsZW5ndGhBZGp1c3Q9InNwYWNpbmciIHRleHRMZW5ndGg9IjciIHg9IjU0Ni45NDgzIiB5PSI4NzAuMjUyNiI+MTwvdGV4dD48L2c+PCEtLXJldmVyc2UgbGluayBWaWRlb1BsYXlSZWNvcmQgdG8gTWVtYmVyLS0+PGcgaWQ9ImxpbmtfVmlkZW9QbGF5UmVjb3JkX01lbWJlciI+PHBhdGggY29kZUxpbmU9IjMxNSIgZD0iTTk1OC44NTYzLDc3OS4zMDIzIEM5NTMuMTM2Myw3ODcuNDUyMyA5NTQuMSw3ODUuNTMgOTQ4LDc5MyBDOTE1LjY5LDgzMi41MyA4ODguOTUsODI1LjI4IDg2MSw4NjggQzg1MC40OCw4ODQuMDggODQxLjU4LDkwMS45NiA4MzQuMDgsOTIwLjMxICIgZmlsbD0ibm9uZSIgaWQ9IlZpZGVvUGxheVJlY29yZC1iYWNrdG8tTWVtYmVyIiBzdHlsZT0ic3Ryb2tlOiMxODE4MTg7c3Ryb2tlLXdpZHRoOjEuMDsiLz48cG9seWdvbiBmaWxsPSIjMTgxODE4IiBwb2ludHM9Ijk2NS43NSw3NjkuNDgsOTU5LjAyOTEsNzcyLjA5MzIsOTU4Ljg1NjMsNzc5LjMwMjMsOTY1LjU3NzMsNzc2LjY4OSw5NjUuNzUsNzY5LjQ4IiBzdHlsZT0ic3Ryb2tlOiMxODE4MTg7c3Ryb2tlLXdpZHRoOjEuMDsiLz48dGV4dCBmaWxsPSIjMDAwMDAwIiBmb250LWZhbWlseT0ic2Fucy1zZXJpZiIgZm9udC1zaXplPSIxMyIgbGVuZ3RoQWRqdXN0PSJzcGFjaW5nIiB0ZXh0TGVuZ3RoPSIzOSIgeD0iOTE1IiB5PSI4MzYuMjg5MSI+JiMyMDI1MDsmIzIxNTkyO0lEPC90ZXh0Pjx0ZXh0IGZpbGw9IiMwMDAwMDAiIGZvbnQtZmFtaWx5PSJzYW5zLXNlcmlmIiBmb250LXNpemU9IjEzIiBsZW5ndGhBZGp1c3Q9InNwYWNpbmciIHRleHRMZW5ndGg9IjciIHg9IjgyOC44NjMiIHk9IjkxMS4wODY1Ij4xPC90ZXh0PjwvZz48IS0tcmV2ZXJzZSBsaW5rIFRlYWNoZXJJbmNvbWUgdG8gQ291cnNlLS0+PGcgaWQ9ImxpbmtfVGVhY2hlckluY29tZV9Db3Vyc2UiPjxwYXRoIGNvZGVMaW5lPSIzMTYiIGQ9Ik01NDMuNTA4Niw3NTIuMzYwNCBDNTUzLjk2ODYsNzkxLjM2MDQgNTYyLjc4LDgyNC4yMSA1NzQuNDcsODY3Ljc2ICIgZmlsbD0ibm9uZSIgaWQ9IlRlYWNoZXJJbmNvbWUtYmFja3RvLUNvdXJzZSIgc3R5bGU9InN0cm9rZTojMTgxODE4O3N0cm9rZS13aWR0aDoxLjA7Ii8+PHBvbHlnb24gZmlsbD0iIzE4MTgxOCIgcG9pbnRzPSI1NDAuNCw3NDAuNzcsNTM4LjA5MDgsNzQ3LjYwMTQsNTQzLjUwODYsNzUyLjM2MDQsNTQ1LjgxNzgsNzQ1LjUyOSw1NDAuNCw3NDAuNzciIHN0eWxlPSJzdHJva2U6IzE4MTgxODtzdHJva2Utd2lkdGg6MS4wOyIvPjx0ZXh0IGZpbGw9IiMwMDAwMDAiIGZvbnQtZmFtaWx5PSJzYW5zLXNlcmlmIiBmb250LXNpemU9IjEzIiBsZW5ndGhBZGp1c3Q9InNwYWNpbmciIHRleHRMZW5ndGg9IjM5IiB4PSI1NjciIHk9IjgzNi4yODkxIj4mIzM1ODM4OyYjMzEyNDM7SUQ8L3RleHQ+PHRleHQgZmlsbD0iIzAwMDAwMCIgZm9udC1mYW1pbHk9InNhbnMtc2VyaWYiIGZvbnQtc2l6ZT0iMTMiIGxlbmd0aEFkanVzdD0ic3BhY2luZyIgdGV4dExlbmd0aD0iNyIgeD0iNTY1LjEyNTEiIHk9Ijg1OC41NDk1Ij4xPC90ZXh0PjwvZz48IS0tcmV2ZXJzZSBsaW5rIFdpdGhkcmF3IHRvIFRlYWNoZXItLT48ZyBpZD0ibGlua19XaXRoZHJhd19UZWFjaGVyIj48cGF0aCBjb2RlTGluZT0iMzE3IiBkPSJNNTEwLjE4NywxMjA0LjgxODggQzUzMS42MDcsMTI2MC4wNzg4IDU1My4yNiwxMzE1Ljk1IDU3NiwxMzc0LjYgIiBmaWxsPSJub25lIiBpZD0iV2l0aGRyYXctYmFja3RvLVRlYWNoZXIiIHN0eWxlPSJzdHJva2U6IzE4MTgxODtzdHJva2Utd2lkdGg6MS4wOyIvPjxwb2x5Z29uIGZpbGw9IiMxODE4MTgiIHBvaW50cz0iNTA1Ljg1LDExOTMuNjMsNTA0LjI4ODksMTIwMC42NzAxLDUxMC4xODcsMTIwNC44MTg4LDUxMS43NDgxLDExOTcuNzc4Nyw1MDUuODUsMTE5My42MyIgc3R5bGU9InN0cm9rZTojMTgxODE4O3N0cm9rZS13aWR0aDoxLjA7Ii8+PHRleHQgZmlsbD0iIzAwMDAwMCIgZm9udC1mYW1pbHk9InNhbnMtc2VyaWYiIGZvbnQtc2l6ZT0iMTMiIGxlbmd0aEFkanVzdD0ic3BhY2luZyIgdGV4dExlbmd0aD0iMzkiIHg9IjU1OCIgeT0iMTMzNC4yODkxIj4mIzM1NzYyOyYjMjQwNzI7SUQ8L3RleHQ+PHRleHQgZmlsbD0iIzAwMDAwMCIgZm9udC1mYW1pbHk9InNhbnMtc2VyaWYiIGZvbnQtc2l6ZT0iMTMiIGxlbmd0aEFkanVzdD0ic3BhY2luZyIgdGV4dExlbmd0aD0iNyIgeD0iNTYyLjIzNTkiIHk9IjEzNTYuNjgyOSI+MTwvdGV4dD48L2c+PCEtLXJldmVyc2UgbGluayBEYWlseUluY29tZSB0byBUZWFjaGVyLS0+PGcgaWQ9ImxpbmtfRGFpbHlJbmNvbWVfVGVhY2hlciI+PHBhdGggY29kZUxpbmU9IjMxOCIgZD0iTTkzNy43MTcsMTE2Ni45NjQ0IEM5MTYuNDY3LDEyMDguNTI0NCA4OTIuOTUsMTI0OS4yNCA4NjEsMTI5MSBDODA4LjUsMTM1OS42MiA3MzUuNiwxNDI3LjU1IDY4Ni4wNCwxNDcwLjYyICIgZmlsbD0ibm9uZSIgaWQ9IkRhaWx5SW5jb21lLWJhY2t0by1UZWFjaGVyIiBzdHlsZT0ic3Ryb2tlOiMxODE4MTg7c3Ryb2tlLXdpZHRoOjEuMDsiLz48cG9seWdvbiBmaWxsPSIjMTgxODE4IiBwb2ludHM9Ijk0My4xOCwxMTU2LjI4LDkzNi44ODcsMTE1OS44MDEyLDkzNy43MTcsMTE2Ni45NjQ0LDk0NC4wMDk5LDExNjMuNDQzMiw5NDMuMTgsMTE1Ni4yOCIgc3R5bGU9InN0cm9rZTojMTgxODE4O3N0cm9rZS13aWR0aDoxLjA7Ii8+PHRleHQgZmlsbD0iIzAwMDAwMCIgZm9udC1mYW1pbHk9InNhbnMtc2VyaWYiIGZvbnQtc2l6ZT0iMTMiIGxlbmd0aEFkanVzdD0ic3BhY2luZyIgdGV4dExlbmd0aD0iMzkiIHg9IjgzNSIgeT0iMTMzNC4yODkxIj4mIzM1NzYyOyYjMjQwNzI7SUQ8L3RleHQ+PHRleHQgZmlsbD0iIzAwMDAwMCIgZm9udC1mYW1pbHk9InNhbnMtc2VyaWYiIGZvbnQtc2l6ZT0iMTMiIGxlbmd0aEFkanVzdD0ic3BhY2luZyIgdGV4dExlbmd0aD0iNyIgeD0iNjkzLjkwNjMiIHk9IjE0NjIuODE1NCI+MTwvdGV4dD48L2c+PCEtLXJldmVyc2UgbGluayBUcmFuc2FjdGlvbiB0byBNZW1iZXItLT48ZyBpZD0ibGlua19UcmFuc2FjdGlvbl9NZW1iZXIiPjxwYXRoIGNvZGVMaW5lPSIzMTkiIGQ9Ik04NDEuMTY5Myw3ODIuNjMyNiBDODMzLjg1OTMsODMwLjUyMjYgODI3LjU2LDg3MS43NSA4MjAuMTcsOTIwLjE2ICIgZmlsbD0ibm9uZSIgaWQ9IlRyYW5zYWN0aW9uLWJhY2t0by1NZW1iZXIiIHN0eWxlPSJzdHJva2U6IzE4MTgxODtzdHJva2Utd2lkdGg6MS4wOyIvPjxwb2x5Z29uIGZpbGw9IiMxODE4MTgiIHBvaW50cz0iODQyLjk4LDc3MC43Nyw4MzguMTIwNCw3NzYuMDk3Nyw4NDEuMTY5Myw3ODIuNjMyNiw4NDYuMDI4OCw3NzcuMzA0OSw4NDIuOTgsNzcwLjc3IiBzdHlsZT0ic3Ryb2tlOiMxODE4MTg7c3Ryb2tlLXdpZHRoOjEuMDsiLz48dGV4dCBmaWxsPSIjMDAwMDAwIiBmb250LWZhbWlseT0ic2Fucy1zZXJpZiIgZm9udC1zaXplPSIxMyIgbGVuZ3RoQWRqdXN0PSJzcGFjaW5nIiB0ZXh0TGVuZ3RoPSIzOSIgeD0iODM1IiB5PSI4MzYuMjg5MSI+JiMyMDI1MDsmIzIxNTkyO0lEPC90ZXh0Pjx0ZXh0IGZpbGw9IiMwMDAwMDAiIGZvbnQtZmFtaWx5PSJzYW5zLXNlcmlmIiBmb250LXNpemU9IjEzIiBsZW5ndGhBZGp1c3Q9InNwYWNpbmciIHRleHRMZW5ndGg9IjciIHg9IjgxNC4yMzU4IiB5PSI5MTAuOTI4OCI+MTwvdGV4dD48L2c+PCEtLXJldmVyc2UgbGluayBWSVBKb2luIHRvIFZJUFR5cGVzLS0+PGcgaWQ9ImxpbmtfVklQSm9pbl9WSVBUeXBlcyI+PHBhdGggY29kZUxpbmU9IjMyMCIgZD0iTTExOTYuODQyLDM1OS41NjgxIEMxMTk3LjI0MiwzODIuMjA4MSAxMTk3Ljc3LDM5My4yMSAxMTk5LDQxNSBDMTIwMS4wOCw0NTEuOSAxMjA1LjExLDQ5Mi40MSAxMjA5LjE2LDUyNy40NyAiIGZpbGw9Im5vbmUiIGlkPSJWSVBKb2luLWJhY2t0by1WSVBUeXBlcyIgc3R5bGU9InN0cm9rZTojMTgxODE4O3N0cm9rZS13aWR0aDoxLjA7Ii8+PHBvbHlnb24gZmlsbD0iIzE4MTgxOCIgcG9pbnRzPSIxMTk2LjYzLDM0Ny41NywxMTkyLjczNjYsMzUzLjYzOTcsMTE5Ni44NDIsMzU5LjU2ODEsMTIwMC43MzU0LDM1My40OTg0LDExOTYuNjMsMzQ3LjU3IiBzdHlsZT0ic3Ryb2tlOiMxODE4MTg7c3Ryb2tlLXdpZHRoOjEuMDsiLz48dGV4dCBmaWxsPSIjMDAwMDAwIiBmb250LWZhbWlseT0ic2Fucy1zZXJpZiIgZm9udC1zaXplPSIxMyIgbGVuZ3RoQWRqdXN0PSJzcGFjaW5nIiB0ZXh0TGVuZ3RoPSI1OSIgeD0iMTIwMCIgeT0iNDEzLjI4OTEiPlZJUCYjMzE4Njc7JiMyMTAzNTtJRDwvdGV4dD48dGV4dCBmaWxsPSIjMDAwMDAwIiBmb250LWZhbWlseT0ic2Fucy1zZXJpZiIgZm9udC1zaXplPSIxMyIgbGVuZ3RoQWRqdXN0PSJzcGFjaW5nIiB0ZXh0TGVuZ3RoPSI3IiB4PSIxMjAwLjc0NTgiIHk9IjUxNy43NzA1Ij4xPC90ZXh0PjwvZz48IS0tcmV2ZXJzZSBsaW5rIE1lbWJlcnNoaXBDb3Vyc2VDYXRlZ29yeSB0byBWSVBUeXBlcy0tPjxnIGlkPSJsaW5rX01lbWJlcnNoaXBDb3Vyc2VDYXRlZ29yeV9WSVBUeXBlcyI+PHBhdGggY29kZUxpbmU9IjMyMSIgZD0iTTEzNjQuNDE5NiwyOTEuMDk5MiBDMTMzMi41Mjk2LDM2My43OTkyIDEyOTIuNzksNDU0LjM4IDEyNjAuODYsNTI3LjE1ICIgZmlsbD0ibm9uZSIgaWQ9Ik1lbWJlcnNoaXBDb3Vyc2VDYXRlZ29yeS1iYWNrdG8tVklQVHlwZXMiIHN0eWxlPSJzdHJva2U6IzE4MTgxODtzdHJva2Utd2lkdGg6MS4wOyIvPjxwb2x5Z29uIGZpbGw9IiMxODE4MTgiIHBvaW50cz0iMTM2OS4yNCwyODAuMTEsMTM2My4xNjY3LDI4My45OTc4LDEzNjQuNDE5NiwyOTEuMDk5MiwxMzcwLjQ5MjksMjg3LjIxMTQsMTM2OS4yNCwyODAuMTEiIHN0eWxlPSJzdHJva2U6IzE4MTgxODtzdHJva2Utd2lkdGg6MS4wOyIvPjx0ZXh0IGZpbGw9IiMwMDAwMDAiIGZvbnQtZmFtaWx5PSJzYW5zLXNlcmlmIiBmb250LXNpemU9IjEzIiBsZW5ndGhBZGp1c3Q9InNwYWNpbmciIHRleHRMZW5ndGg9IjU5IiB4PSIxMzE2IiB5PSI0MTMuMjg5MSI+VklQJiMzMTg2NzsmIzIxMDM1O0lEPC90ZXh0Pjx0ZXh0IGZpbGw9IiMwMDAwMDAiIGZvbnQtZmFtaWx5PSJzYW5zLXNlcmlmIiBmb250LXNpemU9IjEzIiBsZW5ndGhBZGp1c3Q9InNwYWNpbmciIHRleHRMZW5ndGg9IjciIHg9IjEyNTcuMDk4MyIgeT0iNTE3LjcyNjciPjE8L3RleHQ+PC9nPjwhLS1yZXZlcnNlIGxpbmsgTWVtYmVyc2hpcENvdXJzZUNhdGVnb3J5IHRvIENvdXJzZUNhdGVnb3J5LS0+PGcgaWQ9ImxpbmtfTWVtYmVyc2hpcENvdXJzZUNhdGVnb3J5X0NvdXJzZUNhdGVnb3J5Ij48cGF0aCBjb2RlTGluZT0iMzIyIiBkPSJNMTQwOSwyOTIuMTEgQzE0MDksMzYwLjAyIDE0MDksNDQxLjEzIDE0MDksNTEyLjQxICIgZmlsbD0ibm9uZSIgaWQ9Ik1lbWJlcnNoaXBDb3Vyc2VDYXRlZ29yeS1iYWNrdG8tQ291cnNlQ2F0ZWdvcnkiIHN0eWxlPSJzdHJva2U6IzE4MTgxODtzdHJva2Utd2lkdGg6MS4wOyIvPjxwb2x5Z29uIGZpbGw9IiMxODE4MTgiIHBvaW50cz0iMTQwOSwyODAuMTEsMTQwNSwyODYuMTEsMTQwOSwyOTIuMTEsMTQxMywyODYuMTEsMTQwOSwyODAuMTEiIHN0eWxlPSJzdHJva2U6IzE4MTgxODtzdHJva2Utd2lkdGg6MS4wOyIvPjx0ZXh0IGZpbGw9IiMwMDAwMDAiIGZvbnQtZmFtaWx5PSJzYW5zLXNlcmlmIiBmb250LXNpemU9IjEzIiBsZW5ndGhBZGp1c3Q9InNwYWNpbmciIHRleHRMZW5ndGg9IjY1IiB4PSIxNDEwIiB5PSI0MTMuMjg5MSI+JiMzNTgzODsmIzMxMjQzOyYjMjA5OTg7JiMzMTg2NztJRDwvdGV4dD48dGV4dCBmaWxsPSIjMDAwMDAwIiBmb250LWZhbWlseT0ic2Fucy1zZXJpZiIgZm9udC1zaXplPSIxMyIgbGVuZ3RoQWRqdXN0PSJzcGFjaW5nIiB0ZXh0TGVuZ3RoPSI3IiB4PSIxNDAxLjcyMTEiIHk9IjUwMi43MzA1Ij4xPC90ZXh0PjwvZz48IS0tU1JDPVt0TFhSUm5mNzU3eGRMbzFVQWhOQUdyX3pzQUdGUmJOOVlnQnFVTWtsUWdHT0I3MFFNTEtiWjJ5R3NybVNpNHJqT1dGMm5ndERCZXVuOWMzbWR6Y1B0VnFOZFRxcG12dTVCbzVBNzROYllKcnBUa1BTbGxFVENvazdiZTlCb193MFVSZmRiZ3pfYTQ4WEVNQUtwbTktQVVnNzlfLVZGWl94VlVVVlZjQl9DTkR6Y1p1WG5HUHY2eEM1ajlHbUFtTnhCc2NpYzZ5aHpiLXpfYmhscjZadzNVYmFPMnJ2SUJlVGtqeW96dmo4ZTdLd2lDalhhLXVycTM4OG5COFB3bmh6N1A4aWNOek51VXJnV2J3VC1WeG8tTUprV2c2eTgtcWFwTUpyVENERzZnSXRBbnB2RFJXcUZuVUhOV3JTQ0hCX2FpZUhUbVpVdW1faVROaEhEdmdkOTdDM3Z6cDZRRjljT0FNemt2ZE9DSWpsYUszVlJEN09vWnJjM19hOG9sYWhHeHQxV0wzQWpESk1rV0xzQ1g5RnVoQlFyeS1zekZFSWlIYU5wWndVYm5RTktEZldMVlhnbHkwVk84TGFLdGdqMFZPTC1kZ3JXdDg2NmZQRGt0U0ZicUgzUlQ5MlVqSWxXS1ZYYnY2ZXgyR0YteTByU0dmMWZCTHBNbGwwOUs5MHZPNUpPaTlyNDladjZDYWhNbFU2YmN4MVZjUW5RWUs1QUc3OG9NNVZWdnFtUmJKSU54Q05kcV9GYUZlZnNJZEdOR09HWTFfaVhtSnFFY0ZLYWFZV2xTeVFqUllQTnk1Y0VNWllQWHRxUUk1ZDdUcXZYUm1hTXZ2VXdmVFRTaEk1dFN2YVozbGlmTjZ6SFpqUGhScmJ6N2dlWmw3WXBfQm92RmRzcDN3RjV5MXMxMDBldHJKRHFGcUpOaTN2YmR3dUlUdmk2cWc1ZjdScnhoNlhiMEtLZGFaMTV5bEplVGRtV2RuX0NHazNKc1puNjhuMlZfQ2ppZHcyWVhURUdEYVdyTno0dEd5V1hTckNQaExFNUpRV2JtYUI3RG9rUG40ZjU5TGNidUJYYTFWOXNDeFN4ZWR6alRpM1hYTjFFY1haSzZfTWpWU0RiNGdRTG9zMlE5VkNiSG9PVWpXWkllaWN6d21DUmRFc3NVd0dPLXhod25ZdkZEQUJBcmd0MXNsN1FUQUUwdGZ3RXRndEk4aWZpYmJjYkFKcjN5ZGtuZlZYUTNzamFpZWdvU0hQcTROaVZXcHpDSUQ1ZjhNZUhxUGpQU0hJTjEyeDdNTXFCekxaUjhZd1V5bXBNUGdUYm9GWmkwYjlETUJoenBNVTRPM1NHdEU4YzdYZnN1UHlYYWdUbTdNUUJVaEQyYmNfQ2xFQWVRUTR0dW1mTmVLWlNyeDk0LWZtaEJxNWxJWXBfN3NQVjQ2TDJMal9hSFQtR3Z0SExPQWFoc1h0dlYyWTcwaEV5R2hRZWlORU8wbkdEX0dJeF8yNVFtNTVGTnpEd2JhcGhrWkE5VXlORFA4eXZzamRSNzBXcklQUHBJMjFOa3lwQkZFREw5OHoxSElDMFdBaWlvV1dVSXZlT2RteUZYM0QyTllPWG1qbW9aaWgxWmJxdWZjTmFUYnZBSWZGbzdHazhCall4WXUwLXJKNFdKMEd1TVJ1NVBFWTlzR2RaWmhQQkI3a25BTzhUeVlQdUFUbVNEQWttaEhUWTc2Ny11Q0hfZnpxNk1TR0lmd3hlVmpPTWY5XzNxVU1YdVA5THlwVzBKS1NEY3N2b3owVWE0Ynpkb2hOZHlFWG1mc1BzRE93RXFQam13bW1wcFJPUU9BTDdGRzBNdW9ZMXVmZWcwcXZfaGJ4WkZMMFFaZDFHMjFXT3gzTXZIRlpvbFBXOFdQYlh4X21sUTJmaWc0Q3ZZZFVhek5IZ3I2LW5UMzVsNEc3Y2hjTUtUdWNnUjgwQjJZMXMyRXpkcFEyR2RKS0t4Z3dwZnBLa3dieHhYYnN0RHIwVUh3U2F5REU1NnFEeHBrS01EY0N3Xzd0LTQ4cloxSndmYXhwVlRtMUN3Z1h4ZkJpMVVPdmlDU1VuOTQwTlNGQ29mZnJaTjA0ZTM2bzF6azB4WU1xUmVqS1F3SG54dXEzQzlTLTloS2pQM1k4Ri1lTXVEc005a3V4T0JDVGVZNElqQjhueXE5UVZZaEZpYzczV21ubmFqcFp6S1pLUnp2bmNIRDJjYWpmbFE4cmRTcnlCUnNhNjJGUGo2RmV2QkNRUW1GRS03MnFYTmg5aS1MNXNNRE11c3Q4MEc0OHFEM3Z1M0NjRGJmaGZwNHZpcWJJbC1ndzl4ZGVWNzNIWXpVblB5RFRhVHpCTktKeEc0dC1jd1ZvMnljdzViZ3NIZHR5S3lRdFpueHYwenk3MWNtejlNWHktYWQwRHBIYTJMdC13ZkhXaEo2Z1ZDd1Q0VzVyTDg3TTFibG9KcUxDS1YwT0stSjJTVVNFci1FdVd6cU5ldDZ4M1p4SlpHcUZfV0dtTFg3Vm9TU1BBMk9pZUpFZWFZY3hhMEhvMFp2RnE3dHdjcUZZR0xXNEhXRl8wRzAwXS0tPjwvZz48L3N2Zz4=;" vertex="1" parent="1">
            <mxGeometry x="-480" y="-110" width="1776" height="1962.27" as="geometry" />
          </mxCell>
        </UserObject>
        <UserObject label="" plantUmlData="{&quot;data&quot;:&quot;@startuml\n\n&#39; 实体定义\nentity \&quot;首页Banner表\&quot; as Banner {\n  ID: int\n  链接地址: varchar\n  标题: varchar\n  封面: varchar\n  等级排序: int\n  创建时间: datetime\n  创建人: varchar\n  更新时间: datetime\n  更新人: varchar\n  逻辑删除: bit\n  备注: varchar\n}\n\nentity \&quot;讲师提现记录表\&quot; as TeacherWithdraw {\n  自增ID: int\n  讲师ID: int\n  提款账号: varchar\n  开户人: varchar\n  提现金额: decimal\n  提现状态: varchar\n  更新人: varchar\n  创建人: varchar\n  提现申请时间: datetime\n  审核付款时间: datetime\n  逻辑删除: bit\n  备注: varchar\n}\n\nentity \&quot;课程章节表\&quot; as CourseSection {\n  章节ID: int\n  课程ID: int\n  章节名称: varchar\n  显示排序: int\n  章节时长: time\n  创建时间: datetime\n  创建人: varchar\n  更新时间: datetime\n  更新人: varchar\n  逻辑删除: bit\n  备注说明: varchar\n}\n\nentity \&quot;课程表\&quot; as Course {\n  课程ID: int\n  课程讲师ID: int\n  课程专业ID: int\n  课程标题: varchar\n  课程简称: varchar\n  课程销售价格: decimal\n  总课时: int\n  课程封面图片路径: varchar\n  VIP学员数量: int\n  销售数量: int\n  浏览数量: int\n  乐观锁: int\n  课程状态: varchar\n  课程难易程度: varchar\n  父课程专业ID: int\n  课程类型: varchar\n  课程描述: text\n  课程资源下载地址: varchar\n  课程资源Key: varchar\n  创建时间: datetime\n  创建人: varchar\n  更新人: varchar\n  更新时间: datetime\n  课程备注: varchar\n  逻辑删除: bit\n}\n\n&#39; 定义其他实体，类似于上面的格式...\n\n&#39; 实体关系\nTeacherWithdraw \&quot;n\&quot; -- \&quot;1\&quot; Teacher : 讲师ID\nCourseSection \&quot;n\&quot; -- \&quot;1\&quot; Course : 课程ID\nCourse \&quot;1\&quot; -- \&quot;n\&quot; Teacher : 课程讲师ID\n\n&#39; 定义其他实体关系，类似于上面的格式...\n\n@enduml&quot;,&quot;format&quot;:&quot;svg&quot;}" id="4ec-3jum0nc3cHPIG_mP-2">
          <mxCell style="shape=image;noLabel=1;verticalAlign=top;aspect=fixed;imageAspect=0;image=data:image/svg+xml,PD94bWwgdmVyc2lvbj0iMS4wIiBlbmNvZGluZz0idXMtYXNjaWkiIHN0YW5kYWxvbmU9Im5vIj8+PHN2ZyB4bWxucz0iaHR0cDovL3d3dy53My5vcmcvMjAwMC9zdmciIHhtbG5zOnhsaW5rPSJodHRwOi8vd3d3LnczLm9yZy8xOTk5L3hsaW5rIiBjb250ZW50U3R5bGVUeXBlPSJ0ZXh0L2NzcyIgaGVpZ2h0PSI4NDhweCIgcHJlc2VydmVBc3BlY3RSYXRpbz0ibm9uZSIgc3R5bGU9IndpZHRoOjQwM3B4O2hlaWdodDo4NDhweDtiYWNrZ3JvdW5kOiNGRkZGRkY7IiB2ZXJzaW9uPSIxLjEiIHZpZXdCb3g9IjAgMCA0MDMgODQ4IiB3aWR0aD0iNDAzcHgiIHpvb21BbmRQYW49Im1hZ25pZnkiPjxkZWZzLz48Zz48IS0tY2xhc3MgQmFubmVyLS0+PGcgaWQ9ImVsZW1fQmFubmVyIj48cmVjdCBjb2RlTGluZT0iMiIgZmlsbD0iI0YxRjFGMSIgaGVpZ2h0PSIyMTIuODI4MSIgaWQ9IkJhbm5lciIgcng9IjIuNSIgcnk9IjIuNSIgc3R5bGU9InN0cm9rZTojMTgxODE4O3N0cm9rZS13aWR0aDowLjU7IiB3aWR0aD0iMTM5IiB4PSI1OSIgeT0iNyIvPjxlbGxpcHNlIGN4PSI4NC4zNSIgY3k9IjIzIiBmaWxsPSIjQUREMUIyIiByeD0iMTEiIHJ5PSIxMSIgc3R5bGU9InN0cm9rZTojMTgxODE4O3N0cm9rZS13aWR0aDoxLjA7Ii8+PHBhdGggZD0iTTg3Ljk3NSwyOSBMODcuOTc1LDI3LjI1IEw4Mi42NjI1LDI3LjI1IFE4Mi42NjI1LDI3LjI1IDgyLjY2MjUsMjMuNjg3NSBMODYuOTEyNSwyMy42ODc1IEw4Ni45MTI1LDIxLjkzNzUgTDgyLjY2MjUsMjEuOTM3NSBMODIuNjYyNSwxOS40Mzc1IEw4Ny45NzUsMTkuNDM3NSBMODcuOTc1LDE3LjY4NzUgTDgwLjkxMjUsMTcuNjg3NSBRODAuOTEyNSwxNy42ODc1IDgwLjkxMjUsMjkgTDg3Ljk3NSwyOSBaICIgZmlsbD0iIzAwMDAwMCIvPjx0ZXh0IGZpbGw9IiMwMDAwMDAiIGZvbnQtZmFtaWx5PSJzYW5zLXNlcmlmIiBmb250LXNpemU9IjE0IiBsZW5ndGhBZGp1c3Q9InNwYWNpbmciIHRleHRMZW5ndGg9Ijg0IiB4PSIxMDAuNjUiIHk9IjI4Ljc0MjIiPiYjMzkzMTg7JiMzOTAyOTtCYW5uZXImIzM0OTIwOzwvdGV4dD48bGluZSBzdHlsZT0ic3Ryb2tlOiMxODE4MTg7c3Ryb2tlLXdpZHRoOjAuNTsiIHgxPSI2MCIgeDI9IjE5NyIgeTE9IjM5IiB5Mj0iMzkiLz48dGV4dCBmaWxsPSIjMDAwMDAwIiBmb250LWZhbWlseT0ic2Fucy1zZXJpZiIgZm9udC1zaXplPSIxNCIgbGVuZ3RoQWRqdXN0PSJzcGFjaW5nIiB0ZXh0TGVuZ3RoPSI0OSIgeD0iNjUiIHk9IjU2LjIzNDQiPklEOiBpbnQ8L3RleHQ+PHRleHQgZmlsbD0iIzAwMDAwMCIgZm9udC1mYW1pbHk9InNhbnMtc2VyaWYiIGZvbnQtc2l6ZT0iMTQiIGxlbmd0aEFkanVzdD0ic3BhY2luZyIgdGV4dExlbmd0aD0iMTE5IiB4PSI2NSIgeT0iNzEuMjE4OCI+JiMzODE0MjsmIzI1NTA5OyYjMjIzMjA7JiMyMjMzNjs6IHZhcmNoYXI8L3RleHQ+PHRleHQgZmlsbD0iIzAwMDAwMCIgZm9udC1mYW1pbHk9InNhbnMtc2VyaWYiIGZvbnQtc2l6ZT0iMTQiIGxlbmd0aEFkanVzdD0ic3BhY2luZyIgdGV4dExlbmd0aD0iOTEiIHg9IjY1IiB5PSI4Ni4yMDMxIj4mIzI2NjMxOyYjMzkwNjQ7OiB2YXJjaGFyPC90ZXh0Pjx0ZXh0IGZpbGw9IiMwMDAwMDAiIGZvbnQtZmFtaWx5PSJzYW5zLXNlcmlmIiBmb250LXNpemU9IjE0IiBsZW5ndGhBZGp1c3Q9InNwYWNpbmciIHRleHRMZW5ndGg9IjkxIiB4PSI2NSIgeT0iMTAxLjE4NzUiPiYjMjM1NTM7JiMzODc1NDs6IHZhcmNoYXI8L3RleHQ+PHRleHQgZmlsbD0iIzAwMDAwMCIgZm9udC1mYW1pbHk9InNhbnMtc2VyaWYiIGZvbnQtc2l6ZT0iMTQiIGxlbmd0aEFkanVzdD0ic3BhY2luZyIgdGV4dExlbmd0aD0iOTEiIHg9IjY1IiB5PSIxMTYuMTcxOSI+JiMzMTU2MTsmIzMyNDIzOyYjMjU0OTA7JiMyNDIwNzs6IGludDwvdGV4dD48dGV4dCBmaWxsPSIjMDAwMDAwIiBmb250LWZhbWlseT0ic2Fucy1zZXJpZiIgZm9udC1zaXplPSIxNCIgbGVuZ3RoQWRqdXN0PSJzcGFjaW5nIiB0ZXh0TGVuZ3RoPSIxMjciIHg9IjY1IiB5PSIxMzEuMTU2MyI+JiMyMTAxOTsmIzI0MzE0OyYjMjYxMDI7JiMzODM4ODs6IGRhdGV0aW1lPC90ZXh0Pjx0ZXh0IGZpbGw9IiMwMDAwMDAiIGZvbnQtZmFtaWx5PSJzYW5zLXNlcmlmIiBmb250LXNpemU9IjE0IiBsZW5ndGhBZGp1c3Q9InNwYWNpbmciIHRleHRMZW5ndGg9IjEwNSIgeD0iNjUiIHk9IjE0Ni4xNDA2Ij4mIzIxMDE5OyYjMjQzMTQ7JiMyMDE1NDs6IHZhcmNoYXI8L3RleHQ+PHRleHQgZmlsbD0iIzAwMDAwMCIgZm9udC1mYW1pbHk9InNhbnMtc2VyaWYiIGZvbnQtc2l6ZT0iMTQiIGxlbmd0aEFkanVzdD0ic3BhY2luZyIgdGV4dExlbmd0aD0iMTI3IiB4PSI2NSIgeT0iMTYxLjEyNSI+JiMyNjM1NjsmIzI2MDMyOyYjMjYxMDI7JiMzODM4ODs6IGRhdGV0aW1lPC90ZXh0Pjx0ZXh0IGZpbGw9IiMwMDAwMDAiIGZvbnQtZmFtaWx5PSJzYW5zLXNlcmlmIiBmb250LXNpemU9IjE0IiBsZW5ndGhBZGp1c3Q9InNwYWNpbmciIHRleHRMZW5ndGg9IjEwNSIgeD0iNjUiIHk9IjE3Ni4xMDk0Ij4mIzI2MzU2OyYjMjYwMzI7JiMyMDE1NDs6IHZhcmNoYXI8L3RleHQ+PHRleHQgZmlsbD0iIzAwMDAwMCIgZm9udC1mYW1pbHk9InNhbnMtc2VyaWYiIGZvbnQtc2l6ZT0iMTQiIGxlbmd0aEFkanVzdD0ic3BhY2luZyIgdGV4dExlbmd0aD0iOTEiIHg9IjY1IiB5PSIxOTEuMDkzOCI+JiMzNjkyMzsmIzM2NzUzOyYjMjEwMjQ7JiMzODUwMDs6IGJpdDwvdGV4dD48dGV4dCBmaWxsPSIjMDAwMDAwIiBmb250LWZhbWlseT0ic2Fucy1zZXJpZiIgZm9udC1zaXplPSIxNCIgbGVuZ3RoQWRqdXN0PSJzcGFjaW5nIiB0ZXh0TGVuZ3RoPSI5MSIgeD0iNjUiIHk9IjIwNi4wNzgxIj4mIzIyNzkxOyYjMjc4ODA7OiB2YXJjaGFyPC90ZXh0PjxsaW5lIHN0eWxlPSJzdHJva2U6IzE4MTgxODtzdHJva2Utd2lkdGg6MC41OyIgeDE9IjYwIiB4Mj0iMTk3IiB5MT0iMjExLjgyODEiIHkyPSIyMTEuODI4MSIvPjwvZz48IS0tY2xhc3MgVGVhY2hlcldpdGhkcmF3LS0+PGcgaWQ9ImVsZW1fVGVhY2hlcldpdGhkcmF3Ij48cmVjdCBjb2RlTGluZT0iMTYiIGZpbGw9IiNGMUYxRjEiIGhlaWdodD0iMjI3LjgxMjUiIGlkPSJUZWFjaGVyV2l0aGRyYXciIHJ4PSIyLjUiIHJ5PSIyLjUiIHN0eWxlPSJzdHJva2U6IzE4MTgxODtzdHJva2Utd2lkdGg6MC41OyIgd2lkdGg9IjE2NyIgeD0iNyIgeT0iMzkyLjUiLz48ZWxsaXBzZSBjeD0iMzguNjUiIGN5PSI0MDguNSIgZmlsbD0iI0FERDFCMiIgcng9IjExIiByeT0iMTEiIHN0eWxlPSJzdHJva2U6IzE4MTgxODtzdHJva2Utd2lkdGg6MS4wOyIvPjxwYXRoIGQ9Ik00Mi4yNzUsNDE0LjUgTDQyLjI3NSw0MTIuNzUgTDM2Ljk2MjUsNDEyLjc1IFEzNi45NjI1LDQxMi43NSAzNi45NjI1LDQwOS4xODc1IEw0MS4yMTI1LDQwOS4xODc1IEw0MS4yMTI1LDQwNy40Mzc1IEwzNi45NjI1LDQwNy40Mzc1IEwzNi45NjI1LDQwNC45Mzc1IEw0Mi4yNzUsNDA0LjkzNzUgTDQyLjI3NSw0MDMuMTg3NSBMMzUuMjEyNSw0MDMuMTg3NSBRMzUuMjEyNSw0MDMuMTg3NSAzNS4yMTI1LDQxNC41IEw0Mi4yNzUsNDE0LjUgWiAiIGZpbGw9IiMwMDAwMDAiLz48dGV4dCBmaWxsPSIjMDAwMDAwIiBmb250LWZhbWlseT0ic2Fucy1zZXJpZiIgZm9udC1zaXplPSIxNCIgbGVuZ3RoQWRqdXN0PSJzcGFjaW5nIiB0ZXh0TGVuZ3RoPSI5OCIgeD0iNTYuMzUiIHk9IjQxNC4yNDIyIj4mIzM1NzYyOyYjMjQwNzI7JiMyNTU1MjsmIzI5NjE2OyYjMzU3NjA7JiMyNDQwNTsmIzM0OTIwOzwvdGV4dD48bGluZSBzdHlsZT0ic3Ryb2tlOiMxODE4MTg7c3Ryb2tlLXdpZHRoOjAuNTsiIHgxPSI4IiB4Mj0iMTczIiB5MT0iNDI0LjUiIHkyPSI0MjQuNSIvPjx0ZXh0IGZpbGw9IiMwMDAwMDAiIGZvbnQtZmFtaWx5PSJzYW5zLXNlcmlmIiBmb250LXNpemU9IjE0IiBsZW5ndGhBZGp1c3Q9InNwYWNpbmciIHRleHRMZW5ndGg9Ijc3IiB4PSIxMyIgeT0iNDQxLjczNDQiPiYjMzMyNTg7JiMyMjY4NjtJRDogaW50PC90ZXh0Pjx0ZXh0IGZpbGw9IiMwMDAwMDAiIGZvbnQtZmFtaWx5PSJzYW5zLXNlcmlmIiBmb250LXNpemU9IjE0IiBsZW5ndGhBZGp1c3Q9InNwYWNpbmciIHRleHRMZW5ndGg9Ijc3IiB4PSIxMyIgeT0iNDU2LjcxODgiPiYjMzU3NjI7JiMyNDA3MjtJRDogaW50PC90ZXh0Pjx0ZXh0IGZpbGw9IiMwMDAwMDAiIGZvbnQtZmFtaWx5PSJzYW5zLXNlcmlmIiBmb250LXNpemU9IjE0IiBsZW5ndGhBZGp1c3Q9InNwYWNpbmciIHRleHRMZW5ndGg9IjExOSIgeD0iMTMiIHk9IjQ3MS43MDMxIj4mIzI1NTUyOyYjMjc0NTQ7JiMzNjEzNDsmIzIxNDk1OzogdmFyY2hhcjwvdGV4dD48dGV4dCBmaWxsPSIjMDAwMDAwIiBmb250LWZhbWlseT0ic2Fucy1zZXJpZiIgZm9udC1zaXplPSIxNCIgbGVuZ3RoQWRqdXN0PSJzcGFjaW5nIiB0ZXh0TGVuZ3RoPSIxMDUiIHg9IjEzIiB5PSI0ODYuNjg3NSI+JiMyNDMyMDsmIzI1MTQzOyYjMjAxNTQ7OiB2YXJjaGFyPC90ZXh0Pjx0ZXh0IGZpbGw9IiMwMDAwMDAiIGZvbnQtZmFtaWx5PSJzYW5zLXNlcmlmIiBmb250LXNpemU9IjE0IiBsZW5ndGhBZGp1c3Q9InNwYWNpbmciIHRleHRMZW5ndGg9IjEyMCIgeD0iMTMiIHk9IjUwMS42NzE5Ij4mIzI1NTUyOyYjMjk2MTY7JiMzNzMyOTsmIzM5MDY5OzogZGVjaW1hbDwvdGV4dD48dGV4dCBmaWxsPSIjMDAwMDAwIiBmb250LWZhbWlseT0ic2Fucy1zZXJpZiIgZm9udC1zaXplPSIxNCIgbGVuZ3RoQWRqdXN0PSJzcGFjaW5nIiB0ZXh0TGVuZ3RoPSIxMTkiIHg9IjEzIiB5PSI1MTYuNjU2MyI+JiMyNTU1MjsmIzI5NjE2OyYjMjkzNjY7JiMyNDU3Nzs6IHZhcmNoYXI8L3RleHQ+PHRleHQgZmlsbD0iIzAwMDAwMCIgZm9udC1mYW1pbHk9InNhbnMtc2VyaWYiIGZvbnQtc2l6ZT0iMTQiIGxlbmd0aEFkanVzdD0ic3BhY2luZyIgdGV4dExlbmd0aD0iMTA1IiB4PSIxMyIgeT0iNTMxLjY0MDYiPiYjMjYzNTY7JiMyNjAzMjsmIzIwMTU0OzogdmFyY2hhcjwvdGV4dD48dGV4dCBmaWxsPSIjMDAwMDAwIiBmb250LWZhbWlseT0ic2Fucy1zZXJpZiIgZm9udC1zaXplPSIxNCIgbGVuZ3RoQWRqdXN0PSJzcGFjaW5nIiB0ZXh0TGVuZ3RoPSIxMDUiIHg9IjEzIiB5PSI1NDYuNjI1Ij4mIzIxMDE5OyYjMjQzMTQ7JiMyMDE1NDs6IHZhcmNoYXI8L3RleHQ+PHRleHQgZmlsbD0iIzAwMDAwMCIgZm9udC1mYW1pbHk9InNhbnMtc2VyaWYiIGZvbnQtc2l6ZT0iMTQiIGxlbmd0aEFkanVzdD0ic3BhY2luZyIgdGV4dExlbmd0aD0iMTU1IiB4PSIxMyIgeT0iNTYxLjYwOTQiPiYjMjU1NTI7JiMyOTYxNjsmIzMwMDAzOyYjMzU4MzE7JiMyNjEwMjsmIzM4Mzg4OzogZGF0ZXRpbWU8L3RleHQ+PHRleHQgZmlsbD0iIzAwMDAwMCIgZm9udC1mYW1pbHk9InNhbnMtc2VyaWYiIGZvbnQtc2l6ZT0iMTQiIGxlbmd0aEFkanVzdD0ic3BhY2luZyIgdGV4dExlbmd0aD0iMTU1IiB4PSIxMyIgeT0iNTc2LjU5MzgiPiYjMjM0NTc7JiMyNjY4MDsmIzIwMTg0OyYjMjc0NTQ7JiMyNjEwMjsmIzM4Mzg4OzogZGF0ZXRpbWU8L3RleHQ+PHRleHQgZmlsbD0iIzAwMDAwMCIgZm9udC1mYW1pbHk9InNhbnMtc2VyaWYiIGZvbnQtc2l6ZT0iMTQiIGxlbmd0aEFkanVzdD0ic3BhY2luZyIgdGV4dExlbmd0aD0iOTEiIHg9IjEzIiB5PSI1OTEuNTc4MSI+JiMzNjkyMzsmIzM2NzUzOyYjMjEwMjQ7JiMzODUwMDs6IGJpdDwvdGV4dD48dGV4dCBmaWxsPSIjMDAwMDAwIiBmb250LWZhbWlseT0ic2Fucy1zZXJpZiIgZm9udC1zaXplPSIxNCIgbGVuZ3RoQWRqdXN0PSJzcGFjaW5nIiB0ZXh0TGVuZ3RoPSI5MSIgeD0iMTMiIHk9IjYwNi41NjI1Ij4mIzIyNzkxOyYjMjc4ODA7OiB2YXJjaGFyPC90ZXh0PjxsaW5lIHN0eWxlPSJzdHJva2U6IzE4MTgxODtzdHJva2Utd2lkdGg6MC41OyIgeDE9IjgiIHgyPSIxNzMiIHkxPSI2MTIuMzEyNSIgeTI9IjYxMi4zMTI1Ii8+PC9nPjwhLS1jbGFzcyBDb3Vyc2VTZWN0aW9uLS0+PGcgaWQ9ImVsZW1fQ291cnNlU2VjdGlvbiI+PHJlY3QgY29kZUxpbmU9IjMxIiBmaWxsPSIjRjFGMUYxIiBoZWlnaHQ9IjIxMi44MjgxIiBpZD0iQ291cnNlU2VjdGlvbiIgcng9IjIuNSIgcnk9IjIuNSIgc3R5bGU9InN0cm9rZTojMTgxODE4O3N0cm9rZS13aWR0aDowLjU7IiB3aWR0aD0iMTM5IiB4PSIyMzMiIHk9IjciLz48ZWxsaXBzZSBjeD0iMjY0LjY1IiBjeT0iMjMiIGZpbGw9IiNBREQxQjIiIHJ4PSIxMSIgcnk9IjExIiBzdHlsZT0ic3Ryb2tlOiMxODE4MTg7c3Ryb2tlLXdpZHRoOjEuMDsiLz48cGF0aCBkPSJNMjY4LjI3NSwyOSBMMjY4LjI3NSwyNy4yNSBMMjYyLjk2MjUsMjcuMjUgUTI2Mi45NjI1LDI3LjI1IDI2Mi45NjI1LDIzLjY4NzUgTDI2Ny4yMTI1LDIzLjY4NzUgTDI2Ny4yMTI1LDIxLjkzNzUgTDI2Mi45NjI1LDIxLjkzNzUgTDI2Mi45NjI1LDE5LjQzNzUgTDI2OC4yNzUsMTkuNDM3NSBMMjY4LjI3NSwxNy42ODc1IEwyNjEuMjEyNSwxNy42ODc1IFEyNjEuMjEyNSwxNy42ODc1IDI2MS4yMTI1LDI5IEwyNjguMjc1LDI5IFogIiBmaWxsPSIjMDAwMDAwIi8+PHRleHQgZmlsbD0iIzAwMDAwMCIgZm9udC1mYW1pbHk9InNhbnMtc2VyaWYiIGZvbnQtc2l6ZT0iMTQiIGxlbmd0aEFkanVzdD0ic3BhY2luZyIgdGV4dExlbmd0aD0iNzAiIHg9IjI4Mi4zNSIgeT0iMjguNzQyMiI+JiMzNTgzODsmIzMxMjQzOyYjMzE0NTY7JiMzMzQxMDsmIzM0OTIwOzwvdGV4dD48bGluZSBzdHlsZT0ic3Ryb2tlOiMxODE4MTg7c3Ryb2tlLXdpZHRoOjAuNTsiIHgxPSIyMzQiIHgyPSIzNzEiIHkxPSIzOSIgeTI9IjM5Ii8+PHRleHQgZmlsbD0iIzAwMDAwMCIgZm9udC1mYW1pbHk9InNhbnMtc2VyaWYiIGZvbnQtc2l6ZT0iMTQiIGxlbmd0aEFkanVzdD0ic3BhY2luZyIgdGV4dExlbmd0aD0iNzciIHg9IjIzOSIgeT0iNTYuMjM0NCI+JiMzMTQ1NjsmIzMzNDEwO0lEOiBpbnQ8L3RleHQ+PHRleHQgZmlsbD0iIzAwMDAwMCIgZm9udC1mYW1pbHk9InNhbnMtc2VyaWYiIGZvbnQtc2l6ZT0iMTQiIGxlbmd0aEFkanVzdD0ic3BhY2luZyIgdGV4dExlbmd0aD0iNzciIHg9IjIzOSIgeT0iNzEuMjE4OCI+JiMzNTgzODsmIzMxMjQzO0lEOiBpbnQ8L3RleHQ+PHRleHQgZmlsbD0iIzAwMDAwMCIgZm9udC1mYW1pbHk9InNhbnMtc2VyaWYiIGZvbnQtc2l6ZT0iMTQiIGxlbmd0aEFkanVzdD0ic3BhY2luZyIgdGV4dExlbmd0aD0iMTE5IiB4PSIyMzkiIHk9Ijg2LjIwMzEiPiYjMzE0NTY7JiMzMzQxMDsmIzIxNTE3OyYjMzEyMTY7OiB2YXJjaGFyPC90ZXh0Pjx0ZXh0IGZpbGw9IiMwMDAwMDAiIGZvbnQtZmFtaWx5PSJzYW5zLXNlcmlmIiBmb250LXNpemU9IjE0IiBsZW5ndGhBZGp1c3Q9InNwYWNpbmciIHRleHRMZW5ndGg9IjkxIiB4PSIyMzkiIHk9IjEwMS4xODc1Ij4mIzI2MTc0OyYjMzEwMzQ7JiMyNTQ5MDsmIzI0MjA3OzogaW50PC90ZXh0Pjx0ZXh0IGZpbGw9IiMwMDAwMDAiIGZvbnQtZmFtaWx5PSJzYW5zLXNlcmlmIiBmb250LXNpemU9IjE0IiBsZW5ndGhBZGp1c3Q9InNwYWNpbmciIHRleHRMZW5ndGg9Ijk5IiB4PSIyMzkiIHk9IjExNi4xNzE5Ij4mIzMxNDU2OyYjMzM0MTA7JiMyNjEwMjsmIzM4MjcxOzogdGltZTwvdGV4dD48dGV4dCBmaWxsPSIjMDAwMDAwIiBmb250LWZhbWlseT0ic2Fucy1zZXJpZiIgZm9udC1zaXplPSIxNCIgbGVuZ3RoQWRqdXN0PSJzcGFjaW5nIiB0ZXh0TGVuZ3RoPSIxMjciIHg9IjIzOSIgeT0iMTMxLjE1NjMiPiYjMjEwMTk7JiMyNDMxNDsmIzI2MTAyOyYjMzgzODg7OiBkYXRldGltZTwvdGV4dD48dGV4dCBmaWxsPSIjMDAwMDAwIiBmb250LWZhbWlseT0ic2Fucy1zZXJpZiIgZm9udC1zaXplPSIxNCIgbGVuZ3RoQWRqdXN0PSJzcGFjaW5nIiB0ZXh0TGVuZ3RoPSIxMDUiIHg9IjIzOSIgeT0iMTQ2LjE0MDYiPiYjMjEwMTk7JiMyNDMxNDsmIzIwMTU0OzogdmFyY2hhcjwvdGV4dD48dGV4dCBmaWxsPSIjMDAwMDAwIiBmb250LWZhbWlseT0ic2Fucy1zZXJpZiIgZm9udC1zaXplPSIxNCIgbGVuZ3RoQWRqdXN0PSJzcGFjaW5nIiB0ZXh0TGVuZ3RoPSIxMjciIHg9IjIzOSIgeT0iMTYxLjEyNSI+JiMyNjM1NjsmIzI2MDMyOyYjMjYxMDI7JiMzODM4ODs6IGRhdGV0aW1lPC90ZXh0Pjx0ZXh0IGZpbGw9IiMwMDAwMDAiIGZvbnQtZmFtaWx5PSJzYW5zLXNlcmlmIiBmb250LXNpemU9IjE0IiBsZW5ndGhBZGp1c3Q9InNwYWNpbmciIHRleHRMZW5ndGg9IjEwNSIgeD0iMjM5IiB5PSIxNzYuMTA5NCI+JiMyNjM1NjsmIzI2MDMyOyYjMjAxNTQ7OiB2YXJjaGFyPC90ZXh0Pjx0ZXh0IGZpbGw9IiMwMDAwMDAiIGZvbnQtZmFtaWx5PSJzYW5zLXNlcmlmIiBmb250LXNpemU9IjE0IiBsZW5ndGhBZGp1c3Q9InNwYWNpbmciIHRleHRMZW5ndGg9IjkxIiB4PSIyMzkiIHk9IjE5MS4wOTM4Ij4mIzM2OTIzOyYjMzY3NTM7JiMyMTAyNDsmIzM4NTAwOzogYml0PC90ZXh0Pjx0ZXh0IGZpbGw9IiMwMDAwMDAiIGZvbnQtZmFtaWx5PSJzYW5zLXNlcmlmIiBmb250LXNpemU9IjE0IiBsZW5ndGhBZGp1c3Q9InNwYWNpbmciIHRleHRMZW5ndGg9IjExOSIgeD0iMjM5IiB5PSIyMDYuMDc4MSI+JiMyMjc5MTsmIzI3ODgwOyYjMzU4Mjg7JiMyNjEyNjs6IHZhcmNoYXI8L3RleHQ+PGxpbmUgc3R5bGU9InN0cm9rZTojMTgxODE4O3N0cm9rZS13aWR0aDowLjU7IiB4MT0iMjM0IiB4Mj0iMzcxIiB5MT0iMjExLjgyODEiIHkyPSIyMTEuODI4MSIvPjwvZz48IS0tY2xhc3MgQ291cnNlLS0+PGcgaWQ9ImVsZW1fQ291cnNlIj48cmVjdCBjb2RlTGluZT0iNDUiIGZpbGw9IiNGMUYxRjEiIGhlaWdodD0iNDIyLjYwOTQiIGlkPSJDb3Vyc2UiIHJ4PSIyLjUiIHJ5PSIyLjUiIHN0eWxlPSJzdHJva2U6IzE4MTgxODtzdHJva2Utd2lkdGg6MC41OyIgd2lkdGg9IjE4NyIgeD0iMjA5IiB5PSIyOTUiLz48ZWxsaXBzZSBjeD0iMjc3LjI1IiBjeT0iMzExIiBmaWxsPSIjQUREMUIyIiByeD0iMTEiIHJ5PSIxMSIgc3R5bGU9InN0cm9rZTojMTgxODE4O3N0cm9rZS13aWR0aDoxLjA7Ii8+PHBhdGggZD0iTTI4MC44NzUsMzE3IEwyODAuODc1LDMxNS4yNSBMMjc1LjU2MjUsMzE1LjI1IFEyNzUuNTYyNSwzMTUuMjUgMjc1LjU2MjUsMzExLjY4NzUgTDI3OS44MTI1LDMxMS42ODc1IEwyNzkuODEyNSwzMDkuOTM3NSBMMjc1LjU2MjUsMzA5LjkzNzUgTDI3NS41NjI1LDMwNy40Mzc1IEwyODAuODc1LDMwNy40Mzc1IEwyODAuODc1LDMwNS42ODc1IEwyNzMuODEyNSwzMDUuNjg3NSBRMjczLjgxMjUsMzA1LjY4NzUgMjczLjgxMjUsMzE3IEwyODAuODc1LDMxNyBaICIgZmlsbD0iIzAwMDAwMCIvPjx0ZXh0IGZpbGw9IiMwMDAwMDAiIGZvbnQtZmFtaWx5PSJzYW5zLXNlcmlmIiBmb250LXNpemU9IjE0IiBsZW5ndGhBZGp1c3Q9InNwYWNpbmciIHRleHRMZW5ndGg9IjQyIiB4PSIyOTcuNzUiIHk9IjMxNi43NDIyIj4mIzM1ODM4OyYjMzEyNDM7JiMzNDkyMDs8L3RleHQ+PGxpbmUgc3R5bGU9InN0cm9rZTojMTgxODE4O3N0cm9rZS13aWR0aDowLjU7IiB4MT0iMjEwIiB4Mj0iMzk1IiB5MT0iMzI3IiB5Mj0iMzI3Ii8+PHRleHQgZmlsbD0iIzAwMDAwMCIgZm9udC1mYW1pbHk9InNhbnMtc2VyaWYiIGZvbnQtc2l6ZT0iMTQiIGxlbmd0aEFkanVzdD0ic3BhY2luZyIgdGV4dExlbmd0aD0iNzciIHg9IjIxNSIgeT0iMzQ0LjIzNDQiPiYjMzU4Mzg7JiMzMTI0MztJRDogaW50PC90ZXh0Pjx0ZXh0IGZpbGw9IiMwMDAwMDAiIGZvbnQtZmFtaWx5PSJzYW5zLXNlcmlmIiBmb250LXNpemU9IjE0IiBsZW5ndGhBZGp1c3Q9InNwYWNpbmciIHRleHRMZW5ndGg9IjEwNSIgeD0iMjE1IiB5PSIzNTkuMjE4OCI+JiMzNTgzODsmIzMxMjQzOyYjMzU3NjI7JiMyNDA3MjtJRDogaW50PC90ZXh0Pjx0ZXh0IGZpbGw9IiMwMDAwMDAiIGZvbnQtZmFtaWx5PSJzYW5zLXNlcmlmIiBmb250LXNpemU9IjE0IiBsZW5ndGhBZGp1c3Q9InNwYWNpbmciIHRleHRMZW5ndGg9IjEwNSIgeD0iMjE1IiB5PSIzNzQuMjAzMSI+JiMzNTgzODsmIzMxMjQzOyYjMTk5ODc7JiMxOTk5NDtJRDogaW50PC90ZXh0Pjx0ZXh0IGZpbGw9IiMwMDAwMDAiIGZvbnQtZmFtaWx5PSJzYW5zLXNlcmlmIiBmb250LXNpemU9IjE0IiBsZW5ndGhBZGp1c3Q9InNwYWNpbmciIHRleHRMZW5ndGg9IjExOSIgeD0iMjE1IiB5PSIzODkuMTg3NSI+JiMzNTgzODsmIzMxMjQzOyYjMjY2MzE7JiMzOTA2NDs6IHZhcmNoYXI8L3RleHQ+PHRleHQgZmlsbD0iIzAwMDAwMCIgZm9udC1mYW1pbHk9InNhbnMtc2VyaWYiIGZvbnQtc2l6ZT0iMTQiIGxlbmd0aEFkanVzdD0ic3BhY2luZyIgdGV4dExlbmd0aD0iMTE5IiB4PSIyMTUiIHk9IjQwNC4xNzE5Ij4mIzM1ODM4OyYjMzEyNDM7JiMzMTYxNjsmIzMxMjE2OzogdmFyY2hhcjwvdGV4dD48dGV4dCBmaWxsPSIjMDAwMDAwIiBmb250LWZhbWlseT0ic2Fucy1zZXJpZiIgZm9udC1zaXplPSIxNCIgbGVuZ3RoQWRqdXN0PSJzcGFjaW5nIiB0ZXh0TGVuZ3RoPSIxNDgiIHg9IjIxNSIgeT0iNDE5LjE1NjMiPiYjMzU4Mzg7JiMzMTI0MzsmIzM4MTQ0OyYjMjE4MDY7JiMyMDIxNTsmIzI2Njg0OzogZGVjaW1hbDwvdGV4dD48dGV4dCBmaWxsPSIjMDAwMDAwIiBmb250LWZhbWlseT0ic2Fucy1zZXJpZiIgZm9udC1zaXplPSIxNCIgbGVuZ3RoQWRqdXN0PSJzcGFjaW5nIiB0ZXh0TGVuZ3RoPSI3NyIgeD0iMjE1IiB5PSI0MzQuMTQwNiI+JiMyNDYzNTsmIzM1ODM4OyYjMjYxMDI7OiBpbnQ8L3RleHQ+PHRleHQgZmlsbD0iIzAwMDAwMCIgZm9udC1mYW1pbHk9InNhbnMtc2VyaWYiIGZvbnQtc2l6ZT0iMTQiIGxlbmd0aEFkanVzdD0ic3BhY2luZyIgdGV4dExlbmd0aD0iMTc1IiB4PSIyMTUiIHk9IjQ0OS4xMjUiPiYjMzU4Mzg7JiMzMTI0MzsmIzIzNTUzOyYjMzg3NTQ7JiMyMjI3MDsmIzI5MjU1OyYjMzYzMzU7JiMyNDQ1Mjs6IHZhcmNoYXI8L3RleHQ+PHRleHQgZmlsbD0iIzAwMDAwMCIgZm9udC1mYW1pbHk9InNhbnMtc2VyaWYiIGZvbnQtc2l6ZT0iMTQiIGxlbmd0aEFkanVzdD0ic3BhY2luZyIgdGV4dExlbmd0aD0iMTEyIiB4PSIyMTUiIHk9IjQ2NC4xMDk0Ij5WSVAmIzIzMzk4OyYjMjE1OTI7JiMyNTk2ODsmIzM3MzI3OzogaW50PC90ZXh0Pjx0ZXh0IGZpbGw9IiMwMDAwMDAiIGZvbnQtZmFtaWx5PSJzYW5zLXNlcmlmIiBmb250LXNpemU9IjE0IiBsZW5ndGhBZGp1c3Q9InNwYWNpbmciIHRleHRMZW5ndGg9IjkxIiB4PSIyMTUiIHk9IjQ3OS4wOTM4Ij4mIzM4MTQ0OyYjMjE4MDY7JiMyNTk2ODsmIzM3MzI3OzogaW50PC90ZXh0Pjx0ZXh0IGZpbGw9IiMwMDAwMDAiIGZvbnQtZmFtaWx5PSJzYW5zLXNlcmlmIiBmb250LXNpemU9IjE0IiBsZW5ndGhBZGp1c3Q9InNwYWNpbmciIHRleHRMZW5ndGg9IjkxIiB4PSIyMTUiIHk9IjQ5NC4wNzgxIj4mIzI3OTgzOyYjMzUyNzI7JiMyNTk2ODsmIzM3MzI3OzogaW50PC90ZXh0Pjx0ZXh0IGZpbGw9IiMwMDAwMDAiIGZvbnQtZmFtaWx5PSJzYW5zLXNlcmlmIiBmb250LXNpemU9IjE0IiBsZW5ndGhBZGp1c3Q9InNwYWNpbmciIHRleHRMZW5ndGg9Ijc3IiB4PSIyMTUiIHk9IjUwOS4wNjI1Ij4mIzIwMDQ4OyYjMzUyNjY7JiMzODE0NTs6IGludDwvdGV4dD48dGV4dCBmaWxsPSIjMDAwMDAwIiBmb250LWZhbWlseT0ic2Fucy1zZXJpZiIgZm9udC1zaXplPSIxNCIgbGVuZ3RoQWRqdXN0PSJzcGFjaW5nIiB0ZXh0TGVuZ3RoPSIxMTkiIHg9IjIxNSIgeT0iNTI0LjA0NjkiPiYjMzU4Mzg7JiMzMTI0MzsmIzI5MzY2OyYjMjQ1Nzc7OiB2YXJjaGFyPC90ZXh0Pjx0ZXh0IGZpbGw9IiMwMDAwMDAiIGZvbnQtZmFtaWx5PSJzYW5zLXNlcmlmIiBmb250LXNpemU9IjE0IiBsZW5ndGhBZGp1c3Q9InNwYWNpbmciIHRleHRMZW5ndGg9IjE0NyIgeD0iMjE1IiB5PSI1MzkuMDMxMyI+JiMzNTgzODsmIzMxMjQzOyYjMzg1OTA7JiMyNjEzMTsmIzMxMjQzOyYjMjQyMzA7OiB2YXJjaGFyPC90ZXh0Pjx0ZXh0IGZpbGw9IiMwMDAwMDAiIGZvbnQtZmFtaWx5PSJzYW5zLXNlcmlmIiBmb250LXNpemU9IjE0IiBsZW5ndGhBZGp1c3Q9InNwYWNpbmciIHRleHRMZW5ndGg9IjExOSIgeD0iMjE1IiB5PSI1NTQuMDE1NiI+JiMyOTIzODsmIzM1ODM4OyYjMzEyNDM7JiMxOTk4NzsmIzE5OTk0O0lEOiBpbnQ8L3RleHQ+PHRleHQgZmlsbD0iIzAwMDAwMCIgZm9udC1mYW1pbHk9InNhbnMtc2VyaWYiIGZvbnQtc2l6ZT0iMTQiIGxlbmd0aEFkanVzdD0ic3BhY2luZyIgdGV4dExlbmd0aD0iMTE5IiB4PSIyMTUiIHk9IjU2OSI+JiMzNTgzODsmIzMxMjQzOyYjMzE4Njc7JiMyMjQxMTs6IHZhcmNoYXI8L3RleHQ+PHRleHQgZmlsbD0iIzAwMDAwMCIgZm9udC1mYW1pbHk9InNhbnMtc2VyaWYiIGZvbnQtc2l6ZT0iMTQiIGxlbmd0aEFkanVzdD0ic3BhY2luZyIgdGV4dExlbmd0aD0iOTgiIHg9IjIxNSIgeT0iNTgzLjk4NDQiPiYjMzU4Mzg7JiMzMTI0MzsmIzI1NTUxOyYjMzY4NDg7OiB0ZXh0PC90ZXh0Pjx0ZXh0IGZpbGw9IiMwMDAwMDAiIGZvbnQtZmFtaWx5PSJzYW5zLXNlcmlmIiBmb250LXNpemU9IjE0IiBsZW5ndGhBZGp1c3Q9InNwYWNpbmciIHRleHRMZW5ndGg9IjE3NSIgeD0iMjE1IiB5PSI1OTguOTY4OCI+JiMzNTgzODsmIzMxMjQzOyYjMzYxNjQ7JiMyODMwNDsmIzE5OTc5OyYjMzY3MzM7JiMyMjMyMDsmIzIyMzM2OzogdmFyY2hhcjwvdGV4dD48dGV4dCBmaWxsPSIjMDAwMDAwIiBmb250LWZhbWlseT0ic2Fucy1zZXJpZiIgZm9udC1zaXplPSIxNCIgbGVuZ3RoQWRqdXN0PSJzcGFjaW5nIiB0ZXh0TGVuZ3RoPSIxNDAiIHg9IjIxNSIgeT0iNjEzLjk1MzEiPiYjMzU4Mzg7JiMzMTI0MzsmIzM2MTY0OyYjMjgzMDQ7S2V5OiB2YXJjaGFyPC90ZXh0Pjx0ZXh0IGZpbGw9IiMwMDAwMDAiIGZvbnQtZmFtaWx5PSJzYW5zLXNlcmlmIiBmb250LXNpemU9IjE0IiBsZW5ndGhBZGp1c3Q9InNwYWNpbmciIHRleHRMZW5ndGg9IjEyNyIgeD0iMjE1IiB5PSI2MjguOTM3NSI+JiMyMTAxOTsmIzI0MzE0OyYjMjYxMDI7JiMzODM4ODs6IGRhdGV0aW1lPC90ZXh0Pjx0ZXh0IGZpbGw9IiMwMDAwMDAiIGZvbnQtZmFtaWx5PSJzYW5zLXNlcmlmIiBmb250LXNpemU9IjE0IiBsZW5ndGhBZGp1c3Q9InNwYWNpbmciIHRleHRMZW5ndGg9IjEwNSIgeD0iMjE1IiB5PSI2NDMuOTIxOSI+JiMyMTAxOTsmIzI0MzE0OyYjMjAxNTQ7OiB2YXJjaGFyPC90ZXh0Pjx0ZXh0IGZpbGw9IiMwMDAwMDAiIGZvbnQtZmFtaWx5PSJzYW5zLXNlcmlmIiBmb250LXNpemU9IjE0IiBsZW5ndGhBZGp1c3Q9InNwYWNpbmciIHRleHRMZW5ndGg9IjEwNSIgeD0iMjE1IiB5PSI2NTguOTA2MyI+JiMyNjM1NjsmIzI2MDMyOyYjMjAxNTQ7OiB2YXJjaGFyPC90ZXh0Pjx0ZXh0IGZpbGw9IiMwMDAwMDAiIGZvbnQtZmFtaWx5PSJzYW5zLXNlcmlmIiBmb250LXNpemU9IjE0IiBsZW5ndGhBZGp1c3Q9InNwYWNpbmciIHRleHRMZW5ndGg9IjEyNyIgeD0iMjE1IiB5PSI2NzMuODkwNiI+JiMyNjM1NjsmIzI2MDMyOyYjMjYxMDI7JiMzODM4ODs6IGRhdGV0aW1lPC90ZXh0Pjx0ZXh0IGZpbGw9IiMwMDAwMDAiIGZvbnQtZmFtaWx5PSJzYW5zLXNlcmlmIiBmb250LXNpemU9IjE0IiBsZW5ndGhBZGp1c3Q9InNwYWNpbmciIHRleHRMZW5ndGg9IjExOSIgeD0iMjE1IiB5PSI2ODguODc1Ij4mIzM1ODM4OyYjMzEyNDM7JiMyMjc5MTsmIzI3ODgwOzogdmFyY2hhcjwvdGV4dD48dGV4dCBmaWxsPSIjMDAwMDAwIiBmb250LWZhbWlseT0ic2Fucy1zZXJpZiIgZm9udC1zaXplPSIxNCIgbGVuZ3RoQWRqdXN0PSJzcGFjaW5nIiB0ZXh0TGVuZ3RoPSI5MSIgeD0iMjE1IiB5PSI3MDMuODU5NCI+JiMzNjkyMzsmIzM2NzUzOyYjMjEwMjQ7JiMzODUwMDs6IGJpdDwvdGV4dD48bGluZSBzdHlsZT0ic3Ryb2tlOiMxODE4MTg7c3Ryb2tlLXdpZHRoOjAuNTsiIHgxPSIyMTAiIHgyPSIzOTUiIHkxPSI3MDkuNjA5NCIgeTI9IjcwOS42MDk0Ii8+PC9nPjwhLS1jbGFzcyBUZWFjaGVyLS0+PGcgaWQ9ImVsZW1fVGVhY2hlciI+PHJlY3QgZmlsbD0iI0YxRjFGMSIgaGVpZ2h0PSI0OCIgaWQ9IlRlYWNoZXIiIHJ4PSIyLjUiIHJ5PSIyLjUiIHN0eWxlPSJzdHJva2U6IzE4MTgxODtzdHJva2Utd2lkdGg6MC41OyIgd2lkdGg9IjgxIiB4PSI5MCIgeT0iNzkzIi8+PGVsbGlwc2UgY3g9IjEwNSIgY3k9IjgwOSIgZmlsbD0iI0FERDFCMiIgcng9IjExIiByeT0iMTEiIHN0eWxlPSJzdHJva2U6IzE4MTgxODtzdHJva2Utd2lkdGg6MS4wOyIvPjxwYXRoIGQ9Ik0xMDIuNjI1LDgxMy4yNSBMMTAyLjYyNSw4MTUgTDEwNy41NjI1LDgxNSBMMTA3LjU2MjUsODEzLjI1IEwxMDIuNjI1LDgxMy4yNSBaIE0xMDMuMzEyNSw4MTMuOTM3NSBRMTAzLjMxMjUsODEzLjkzNzUgMTAzLjMxMjUsODA0Ljc1IEwxMDEuNTYyNSw4MDQuNzUgUTEwMS41NjI1LDgwNC43NSAxMDEuNTYyNSw4MTMuOTM3NSBMMTAzLjMxMjUsODEzLjkzNzUgWiBNMTA2Ljg3NSw4MTMuOTM3NSBMMTA4LjYyNSw4MTMuOTM3NSBRMTA4LjYyNSw4MTMuOTM3NSAxMDguNjI1LDgxMS4xMjUgTDEwNi44NzUsODExLjEyNSBRMTA2Ljg3NSw4MTEuMTI1IDEwNi44NzUsODEzLjkzNzUgWiBNMTA2Ljg3NSw4MDQuNzUgUTEwNi44NzUsODA0Ljc1IDEwNi44NzUsODA3LjU2MjUgTDEwOC42MjUsODA3LjU2MjUgUTEwOC42MjUsODA3LjU2MjUgMTA4LjYyNSw4MDQuNzUgTDEwNi44NzUsODA0Ljc1IFogTTEwMi42MjUsODA1LjQzNzUgTDEwNy41NjI1LDgwNS40Mzc1IEwxMDcuNTYyNSw4MDMuNjg3NSBMMTAyLjYyNSw4MDMuNjg3NSBMMTAyLjYyNSw4MDUuNDM3NSBaICIgZmlsbD0iIzAwMDAwMCIvPjx0ZXh0IGZpbGw9IiMwMDAwMDAiIGZvbnQtZmFtaWx5PSJzYW5zLXNlcmlmIiBmb250LXNpemU9IjE0IiBsZW5ndGhBZGp1c3Q9InNwYWNpbmciIHRleHRMZW5ndGg9IjQ5IiB4PSIxMTkiIHk9IjgxNC43NDIyIj5UZWFjaGVyPC90ZXh0PjxsaW5lIHN0eWxlPSJzdHJva2U6IzE4MTgxODtzdHJva2Utd2lkdGg6MC41OyIgeDE9IjkxIiB4Mj0iMTcwIiB5MT0iODI1IiB5Mj0iODI1Ii8+PGxpbmUgc3R5bGU9InN0cm9rZTojMTgxODE4O3N0cm9rZS13aWR0aDowLjU7IiB4MT0iOTEiIHgyPSIxNzAiIHkxPSI4MzMiIHkyPSI4MzMiLz48L2c+PCEtLWxpbmsgVGVhY2hlcldpdGhkcmF3IHRvIFRlYWNoZXItLT48ZyBpZD0ibGlua19UZWFjaGVyV2l0aGRyYXdfVGVhY2hlciI+PHBhdGggY29kZUxpbmU9Ijc2IiBkPSJNMTA1LjE3LDYyMC42MiBDMTEzLjMzLDY4My41NiAxMjIuNzcsNzU2LjM2IDEyNy40OSw3OTIuNzUgIiBmaWxsPSJub25lIiBpZD0iVGVhY2hlcldpdGhkcmF3LVRlYWNoZXIiIHN0eWxlPSJzdHJva2U6IzE4MTgxODtzdHJva2Utd2lkdGg6MS4wOyIvPjx0ZXh0IGZpbGw9IiMwMDAwMDAiIGZvbnQtZmFtaWx5PSJzYW5zLXNlcmlmIiBmb250LXNpemU9IjEzIiBsZW5ndGhBZGp1c3Q9InNwYWNpbmciIHRleHRMZW5ndGg9IjM5IiB4PSIxMjQuNSIgeT0iNzYxLjI4OTEiPiYjMzU3NjI7JiMyNDA3MjtJRDwvdGV4dD48dGV4dCBmaWxsPSIjMDAwMDAwIiBmb250LWZhbWlseT0ic2Fucy1zZXJpZiIgZm9udC1zaXplPSIxMyIgbGVuZ3RoQWRqdXN0PSJzcGFjaW5nIiB0ZXh0TGVuZ3RoPSI3IiB4PSI5OC44ODU2IiB5PSI2NDAuNjcxNiI+bjwvdGV4dD48dGV4dCBmaWxsPSIjMDAwMDAwIiBmb250LWZhbWlseT0ic2Fucy1zZXJpZiIgZm9udC1zaXplPSIxMyIgbGVuZ3RoQWRqdXN0PSJzcGFjaW5nIiB0ZXh0TGVuZ3RoPSI3IiB4PSIxMTguNjU5MSIgeT0iNzgzLjUxOTIiPjE8L3RleHQ+PC9nPjwhLS1saW5rIENvdXJzZVNlY3Rpb24gdG8gQ291cnNlLS0+PGcgaWQ9ImxpbmtfQ291cnNlU2VjdGlvbl9Db3Vyc2UiPjxwYXRoIGNvZGVMaW5lPSI3NyIgZD0iTTMwMi41LDIyMC4wNSBDMzAyLjUsMjQzLjM1IDMwMi41LDI2OC44MiAzMDIuNSwyOTQuNjYgIiBmaWxsPSJub25lIiBpZD0iQ291cnNlU2VjdGlvbi1Db3Vyc2UiIHN0eWxlPSJzdHJva2U6IzE4MTgxODtzdHJva2Utd2lkdGg6MS4wOyIvPjx0ZXh0IGZpbGw9IiMwMDAwMDAiIGZvbnQtZmFtaWx5PSJzYW5zLXNlcmlmIiBmb250LXNpemU9IjEzIiBsZW5ndGhBZGp1c3Q9InNwYWNpbmciIHRleHRMZW5ndGg9IjM5IiB4PSIzMDMuNSIgeT0iMjYzLjI4OTEiPiYjMzU4Mzg7JiMzMTI0MztJRDwvdGV4dD48dGV4dCBmaWxsPSIjMDAwMDAwIiBmb250LWZhbWlseT0ic2Fucy1zZXJpZiIgZm9udC1zaXplPSIxMyIgbGVuZ3RoQWRqdXN0PSJzcGFjaW5nIiB0ZXh0TGVuZ3RoPSI3IiB4PSIyOTUuMjY0OCIgeT0iMjM5Ljk3MTEiPm48L3RleHQ+PHRleHQgZmlsbD0iIzAwMDAwMCIgZm9udC1mYW1pbHk9InNhbnMtc2VyaWYiIGZvbnQtc2l6ZT0iMTMiIGxlbmd0aEFkanVzdD0ic3BhY2luZyIgdGV4dExlbmd0aD0iNyIgeD0iMjk1LjM2MzMiIHk9IjI4NS40NDU2Ij4xPC90ZXh0PjwvZz48IS0tbGluayBDb3Vyc2UgdG8gVGVhY2hlci0tPjxnIGlkPSJsaW5rX0NvdXJzZV9UZWFjaGVyIj48cGF0aCBjb2RlTGluZT0iNzgiIGQ9Ik0yMDguOTIsNzAxLjY0IEMxOTcuMjQsNzIyLjY5IDE4NSw3NDMuNTIgMTcyLjUsNzYzIEMxNjUuOTcsNzczLjE4IDE1Ny45LDc4My43NSAxNTAuNTgsNzkyLjc0ICIgZmlsbD0ibm9uZSIgaWQ9IkNvdXJzZS1UZWFjaGVyIiBzdHlsZT0ic3Ryb2tlOiMxODE4MTg7c3Ryb2tlLXdpZHRoOjEuMDsiLz48dGV4dCBmaWxsPSIjMDAwMDAwIiBmb250LWZhbWlseT0ic2Fucy1zZXJpZiIgZm9udC1zaXplPSIxMyIgbGVuZ3RoQWRqdXN0PSJzcGFjaW5nIiB0ZXh0TGVuZ3RoPSI2NSIgeD0iMTgxLjUiIHk9Ijc2MS4yODkxIj4mIzM1ODM4OyYjMzEyNDM7JiMzNTc2MjsmIzI0MDcyO0lEPC90ZXh0Pjx0ZXh0IGZpbGw9IiMwMDAwMDAiIGZvbnQtZmFtaWx5PSJzYW5zLXNlcmlmIiBmb250LXNpemU9IjEzIiBsZW5ndGhBZGp1c3Q9InNwYWNpbmciIHRleHRMZW5ndGg9IjciIHg9IjE5My44ODA2IiB5PSI3MTYuNjA0OCI+MTwvdGV4dD48dGV4dCBmaWxsPSIjMDAwMDAwIiBmb250LWZhbWlseT0ic2Fucy1zZXJpZiIgZm9udC1zaXplPSIxMyIgbGVuZ3RoQWRqdXN0PSJzcGFjaW5nIiB0ZXh0TGVuZ3RoPSI3IiB4PSIxNDguMjQzMSIgeT0iNzgzLjUwNjQiPm48L3RleHQ+PC9nPjwhLS1TUkM9W2xMTkJSamYwNUR0cDVJQ3NNSUxJanJ3c3RLSlRMNmhMaGJyWUFQT1FIdEJTSHJITFdlVzhhaElPNTlBdTk0NjBBQTJzQ1JHR1M2bm1WY1BjRjV4cjVzZXlGM29zNUpNUnhacGR0aGNGQy1UVWhtMmFMLTZhWEZHQWwzYjgyOThZQWhpV3dSUEV0VmhyR3J3STE5ZEtFcWQweG0xdzBYeUkwQW1fdmUwZUFUd05NeDludUhrd3dBN0JEMFZVeWQ5Z2F2U3o3RFRvUmFDQjhnWU5TSXlSR1NJdkVkM0NEWXZ5R1FPd1p1Vm92eVdveVRkR0ZIam1POEROMTROUzRYTzZROWZDYmxDMUZrdDVVNUQzb0RqRE15Ry1IbGNRLXhOOVdMVVlkdy1QbV90RXFralpPaTQxcU55Wjh1X0xlYkZlNFJzNzlZVHA5ZnVCVjZmSmE1LUFva1E2cEJfcEFJNnZ4d1hITkg5M1JvX0ZOWHB5cW9RMzViOTczMnRaREN3Rm1kdHZJVHRTaVRrdXpGZUlLazhNX3RnMUV1VDNkQ3Y0VUdXNVlNVUNIWVp0SU5TS254OVVucEszTWZmTlF1cHZsV25zUlFUcHZGb2VhU0V6RU5VRmpqXzhFeThwOFFNOHN2QkY3Qks3Y0ZEbEJTX0taZWdWZE5RRlFLTXBkUVI5b2VWd0pZaV9rVUswOHZ0X2hJZEk3TTJqUzBTbEIyREtIQTdNUHV1WEFMNEs2WUxlTEM5ZVRFdmNadzJkR19ISHQyc2RLTGM3cldaTm5lcElsQnd3S21jbXVVYUdldEZSRVNZSEtIVlBzTTM4NS1qRnFMS0I3TWx1bjFGbHViNWUzWFIzcm9mZnZyYUN0WEg5VXl5alB6WVNLUmRGSWdfT00yakRZcDlScDVoOTMtellvRmJiZVVmSEQxbk1MTkJoQ1FHOHhtRktOc1VuTU9KNjRQYkNlYWlrd0ZENHM4cUV0X3Fxend6MmQzcjVRRXhZakVYZlJXTkdyT3hzWHowd2ZTbC1wX1lKbm04U1p3NVBXQ1FYenc5RTlVaTkwOHRMalJLclVpVl9BVXB0ZFJ3TDJBLXhmOUc0Z3dpVy1JMHZ0dUkwTS1veDEzbFcwVC1QcGhjNW9jVWtsZDdnOHA3bjZFZDd6cTdoa3hrUmxtMDBdLS0+PC9nPjwvc3ZnPg==;" vertex="1" parent="1">
            <mxGeometry x="-940" y="180" width="403" height="848" as="geometry" />
          </mxCell>
        </UserObject>
      </root>
    </mxGraphModel>
  </diagram>
</mxfile>
